SplineFontDB: 3.0
FontName: SPLaweng-Bold
FullName: SP Laweng Bold
FamilyName: SP Laweng
Weight: Bold
Copyright: Copyright (c) 2006 by Department of Intellectual Property (DIP), Ministry of Commerce and Software Industry Promotion Agency (Public Organization) (SIPA). All rights reserved.
Version: 2.1
ItalicAngle: 0
UnderlinePosition: -35
UnderlineWidth: 30
Ascent: 800
Descent: 200
LayerCount: 2
Layer: 0 0 "Back" 
Layer: 1 0 "Fore" 
NeedsXUIDChange: 1
XUID: [1021 375 425136265 1511652]
FSType: 0
OS2Version: 3
OS2_WeightWidthSlopeOnly: 0
OS2_UseTypoMetrics: 1
CreationTime: 1154326861
ModificationTime: 1211190621
PfmFamily: 17
TTFWeight: 700
TTFWidth: 5
LineGap: 60
VLineGap: 0
Panose: 2 0 5 6 0 0 0 2 0 4
OS2TypoAscent: 0
OS2TypoAOffset: 1
OS2TypoDescent: 0
OS2TypoDOffset: 1
OS2TypoLinegap: 0
OS2WinAscent: 0
OS2WinAOffset: 1
OS2WinDescent: -104
OS2WinDOffset: 1
HheadAscent: 0
HheadAOffset: 1
HheadDescent: 104
HheadDOffset: 1
OS2SubXSize: 700
OS2SubYSize: 650
OS2SubXOff: 0
OS2SubYOff: 140
OS2SupXSize: 700
OS2SupYSize: 650
OS2SupXOff: 0
OS2SupYOff: 477
OS2StrikeYSize: 30
OS2StrikeYPos: 250
OS2FamilyClass: 773
OS2Vendor: 'IPTH'
Lookup: 4 0 0 "'frac' Diagonal Fractions in Latin lookup 0"  {"'frac' Diagonal Fractions in Latin lookup 0 subtable"  } ['frac' ('latn' <'dflt' > ) ]
Lookup: 6 0 0 "'liga' Standard Ligatures in Latin lookup 1"  {"'liga' Standard Ligatures in Latin lookup 1 subtable"  } ['liga' ('latn' <'dflt' > ) ]
Lookup: 6 0 0 "'liga' Standard Ligatures in Latin lookup 2"  {"'liga' Standard Ligatures in Latin lookup 2 subtable"  } ['liga' ('latn' <'dflt' > ) ]
Lookup: 6 0 0 "'liga' Standard Ligatures in Latin lookup 3"  {"'liga' Standard Ligatures in Latin lookup 3 subtable"  } ['liga' ('latn' <'dflt' > ) ]
Lookup: 6 0 0 "'liga' Standard Ligatures in Latin lookup 4"  {"'liga' Standard Ligatures in Latin lookup 4 subtable"  } ['liga' ('latn' <'dflt' > ) ]

StartChar: .notdef
Encoding: 65536 -1 0
Width: 813
VWidth: 1507
Flags: W
HStem: 0 103<208 594> 971 98<208 594>
VStem: 90 118<103 971> 594 119<103 971>
LayerCount: 2
Fore
SplineSet
594 103 m 1
 594 971 l 1
 208 971 l 1
 208 103 l 1
 594 103 l 1
713 0 m 1
 90 0 l 1
 90 1069 l 1
 713 1069 l 1
 713 0 l 1
EndSplineSet
EndChar

StartChar: numbersign
Encoding: 35 35 4
Width: 713
VWidth: 1507
Flags: W
HStem: 0 21G<173 280 437 543> 197 85<51 173 280 437 543 654> 464 86<51 173 280 437 543 654>
VStem: 173 107<0 197 282 464 550 730> 437 106<0 197 282 464 550 730>
LayerCount: 2
Fore
SplineSet
437 197 m 1
 280 197 l 1
 280 0 l 1
 173 0 l 1
 173 197 l 1
 51 197 l 1
 51 282 l 1
 173 282 l 1
 173 464 l 1
 51 464 l 1
 51 550 l 1
 173 550 l 1
 173 730 l 1
 280 730 l 1
 280 550 l 1
 437 550 l 1
 437 730 l 1
 543 730 l 1
 543 550 l 1
 654 550 l 1
 654 464 l 1
 543 464 l 1
 543 282 l 1
 654 282 l 1
 654 197 l 1
 543 197 l 1
 543 0 l 1
 437 0 l 1
 437 197 l 1
280 282 m 1
 437 282 l 1
 437 464 l 1
 280 464 l 1
 280 282 l 1
EndSplineSet
EndChar

StartChar: dollar
Encoding: 36 36 5
Width: 595
VWidth: 1507
Flags: W
HStem: 0 90<154.069 250 357 403.648> 641 89<191.58 250 357 414.865>
VStem: 20 110<114.678 173> 44 111<477.017 606.023> 250 107<-78 0 90 301 437 641 730 805> 439 111<556 614.39> 454 110<136.944 259.378>
LayerCount: 2
Fore
SplineSet
564 188 m 0xca
 564 96 471 0 357 0 c 1
 357 -78 l 1
 250 -78 l 1
 250 0 l 1
 213 0 l 2
 102 0 20 69 20 173 c 1
 130 173 l 1xea
 130 107 183 90 213 90 c 2
 250 90 l 1
 250 345 l 1
 178 374 l 2
 82 416 44 480 44 550 c 0
 44 666 156 730 250 730 c 1
 250 805 l 1
 357 805 l 1
 357 730 l 1
 456 730 550 670 550 556 c 1
 439 556 l 1xdc
 439 624 390 641 357 641 c 1
 357 393 l 1
 394 378 l 2
 512 332 564 293 564 188 c 0xca
357 90 m 1
 383 90 454 135 454 187 c 0
 454 228 446 262 398 283 c 2
 357 301 l 1
 357 90 l 1
250 641 m 1
 208 641 155 605 155 552 c 0xd8
 155 455 211 457 250 437 c 1
 250 641 l 1
EndSplineSet
EndChar

StartChar: percent
Encoding: 37 37 6
Width: 943
VWidth: 1507
Flags: W
HStem: 6 84<627.611 645 678 703.773> 734 20G<596.46 716>
VStem: 65 104<413.274 436 561 597.093> 262 103<421.168 454 583 605.344> 520 103<93.5614 115 241 277.506> 716 103<101.325 134 264 284.435>
LayerCount: 2
Fore
SplineSet
262 466 m 2
 262 436 239 410 211 410 c 2
 205 410 l 2
 181 410 169 424 169 451 c 2
 169 549 l 2
 169 580 190 608 218 608 c 2
 224 608 l 2
 249 608 262 595 262 570 c 2
 262 466 l 2
197 -24 m 1
 607 754 l 1
 716 754 l 1
 309 -24 l 1
 197 -24 l 1
365 583 m 2
 365 622 350 692 237 692 c 2
 200 692 l 2
 134 692 65 634 65 561 c 2
 65 436 l 2
 65 363 113 324 191 324 c 2
 226 324 l 2
 305 324 365 390 365 454 c 2
 365 583 l 2
819 264 m 2
 819 304 804 372 690 372 c 2
 654 372 l 2
 574 372 520 300 520 241 c 2
 520 115 l 2
 520 65 548 6 645 6 c 2
 678 6 l 2
 759 6 819 70 819 134 c 2
 819 264 l 2
716 146 m 2
 716 116 693 90 665 90 c 2
 659 90 l 2
 635 90 623 104 623 131 c 2
 623 229 l 2
 623 260 644 288 672 288 c 2
 678 288 l 2
 703 288 716 275 716 250 c 2
 716 146 l 2
EndSplineSet
EndChar

StartChar: ampersand
Encoding: 38 38 7
Width: 711
VWidth: 1507
Flags: W
HStem: -9 90<209.632 334.961> 644 86<270.778 404.158>
VStem: 48 112<131.201 273.599> 130 110<512.262 610.668> 422 109<542.537 629.569>
LayerCount: 2
Fore
SplineSet
482 229 m 1xd8
 495 259 505 298 505 338 c 1
 617 338 l 1
 617 260 587 189 559 143 c 1
 684 0 l 1
 558 2 l 1
 536 20 515 44 496 66 c 1
 446 21 382 -9 306 -9 c 2
 261 -9 l 2
 163 -9 48 84 48 188 c 2
 48 222 l 2xe8
 48 299 124 362 205 402 c 1
 185 425 l 2
 135 478 130 517 130 540 c 2
 130 550 l 2
 130 657 226 730 326 730 c 2
 366 730 l 2
 460 730 531 664 531 582 c 2
 531 567 l 2
 531 491 478 430 354 378 c 1
 391 337 396 327 425 294 c 2
 482 229 l 1xd8
160 188 m 2
 160 140 215 81 261 81 c 2
 306 81 l 2
 331 81 376 88 430 146 c 1
 262 336 l 1
 170 284 160 245 160 222 c 2
 160 188 l 2
240 541 m 2xd8
 240 522 254 494 294 448 c 1
 295 448 l 1
 314 457 l 2
 419 503 422 545 422 567 c 2
 422 580 l 2
 422 616 395 644 363 644 c 2
 326 644 l 2
 277 644 240 603 240 550 c 2
 240 541 l 2xd8
EndSplineSet
EndChar

StartChar: quotesingle
Encoding: 39 39 8
Width: 214
VWidth: 1507
Flags: W
HStem: 535 21G<44 158>
VStem: 44 114<535 776 535 776 535 535>
LayerCount: 2
Fore
SplineSet
44 776 m 1
 158 776 l 1
 158 535 l 1
 44 535 l 1
 44 776 l 1
EndSplineSet
EndChar

StartChar: parenleft
Encoding: 40 40 9
Width: 361
VWidth: 1507
Flags: W
VStem: 63 110<143.531 434.639>
LayerCount: 2
Fore
SplineSet
173 262 m 0
 173 216 173 34 329 -205 c 1
 211 -205 l 1
 137 -88 63 75 63 262 c 0
 63 449 122 599 211 730 c 1
 330 730 l 1
 249 612 173 460 173 262 c 0
EndSplineSet
EndChar

StartChar: parenright
Encoding: 41 41 10
Width: 361
VWidth: 1507
Flags: W
VStem: 211 109<145.295 434.655>
LayerCount: 2
Fore
SplineSet
320 262 m 0
 320 75 246 -88 172 -205 c 1
 54 -205 l 1
 209 36 211 211 211 262 c 0
 211 449 144 598 53 730 c 1
 172 730 l 1
 261 599 320 449 320 262 c 0
EndSplineSet
EndChar

StartChar: asterisk
Encoding: 42 42 11
Width: 515
VWidth: 1507
Flags: W
VStem: 202 95<448 574 719 849 448 849 448 448>
LayerCount: 2
Fore
SplineSet
415 785 m 1
 458 719 l 1
 333 648 l 1
 458 579 l 1
 416 510 l 1
 297 574 l 1
 297 448 l 1
 202 448 l 1
 202 576 l 1
 84 511 l 1
 42 580 l 1
 164 648 l 1
 42 716 l 1
 51 729 57 744 84 784 c 1
 202 718 l 1
 202 849 l 1
 297 849 l 1
 297 719 l 1
 415 785 l 1
EndSplineSet
EndChar

StartChar: plus
Encoding: 43 43 12
Width: 624
VWidth: 1507
Flags: W
HStem: 297 86<48 255 362 567>
VStem: 255 107<98 297 383 580>
LayerCount: 2
Fore
SplineSet
362 297 m 1
 362 98 l 1
 255 98 l 1
 255 297 l 1
 48 297 l 1
 48 383 l 1
 255 383 l 1
 255 580 l 1
 362 580 l 1
 362 383 l 1
 567 383 l 1
 567 297 l 1
 362 297 l 1
EndSplineSet
EndChar

StartChar: comma
Encoding: 44 44 13
Width: 260
VWidth: 1507
Flags: W
HStem: -130 246<62 92 92 92>
VStem: 92 104<-6.72194 116>
LayerCount: 2
Fore
SplineSet
92 116 m 1
 196 116 l 1
 196 65 l 2
 196 4 174 -48 128 -82 c 2
 62 -130 l 1
 11 -59 l 1
 39 -35 l 2
 82 -5 92 23 92 65 c 2
 92 116 l 1
EndSplineSet
EndChar

StartChar: hyphen
Encoding: 45 45 14
Width: 393
VWidth: 1507
Flags: W
HStem: 279 92<33 353 33 353 33 33>
LayerCount: 2
Fore
SplineSet
33 279 m 1
 33 371 l 1
 353 371 l 1
 353 279 l 1
 33 279 l 1
EndSplineSet
EndChar

StartChar: period
Encoding: 46 46 15
Width: 304
VWidth: 1507
Flags: W
HStem: -8 127<98.3273 212.476>
VStem: 81 150<10.9556 101.875>
LayerCount: 2
Fore
SplineSet
155 -8 m 256
 112 -8 81 18 81 57 c 0
 81 94 112 119 155 119 c 256
 198 119 231 94 231 57 c 0
 231 18 197 -8 155 -8 c 256
EndSplineSet
EndChar

StartChar: slash
Encoding: 47 47 16
Width: 495
VWidth: 1507
Flags: W
HStem: 734 20G<381.486 502>
LayerCount: 2
Fore
SplineSet
-17 -24 m 1
 392 754 l 1
 502 754 l 1
 96 -24 l 1
 -17 -24 l 1
EndSplineSet
EndChar

StartChar: zero
Encoding: 48 48 17
Width: 624
VWidth: 1507
Flags: W
HStem: -8 83<203.043 371.222> 656 83<245.082 408.328>
VStem: 42 110<130.788 555.151> 464 110<176.55 599.834>
LayerCount: 2
Fore
SplineSet
42 470 m 2
 42 601 159 739 295 739 c 2
 338 739 l 2
 523 739 574 617 574 520 c 2
 574 255 l 2
 574 125 458 -8 312 -8 c 2
 277 -8 l 2
 120 -8 42 87 42 214 c 2
 42 470 l 2
314 656 m 2
 223 656 152 556 152 470 c 2
 152 214 l 2
 152 145 187 75 276 75 c 2
 301 75 l 2
 390 75 464 175 464 255 c 2
 464 520 l 2
 464 580 435 656 339 656 c 2
 314 656 l 2
EndSplineSet
EndChar

StartChar: one
Encoding: 49 49 18
Width: 428
VWidth: 1507
Flags: MW
HStem: 0 21G<208 318> 487 83<41 116.068>
VStem: 208 110<0 523 659.082 730>
LayerCount: 2
Fore
SplineSet
41 570 m 1
 123 570 208 646 208 730 c 1
 318 730 l 1
 318 0 l 1
 208 0 l 1
 208 523 l 1
 166 499 106 488 41 487 c 1
 41 570 l 1
EndSplineSet
EndChar

StartChar: two
Encoding: 50 50 19
Width: 634
VWidth: 1507
Flags: W
HStem: 0 83<158 583> 668 83<231.969 415.325>
VStem: 42 116<83 152.729> 461 110<473.782 622.95>
LayerCount: 2
Fore
SplineSet
59 633 m 1
 113 698 199 751 311 751 c 2
 333 751 l 2
 513 751 571 648 571 540 c 0
 571 453 532 415 470 371 c 2
 213 187 l 2
 199 178 163 152 158 83 c 1
 583 83 l 1
 583 0 l 1
 42 0 l 1
 42 78 l 2
 42 156 84 214 133 250 c 2
 425 460 l 2
 443 471 461 507 461 540 c 0
 461 625 419 668 336 668 c 2
 311 668 l 2
 238 668 175 612 140 573 c 1
 59 633 l 1
EndSplineSet
EndChar

StartChar: three
Encoding: 51 51 20
Width: 642
VWidth: 1507
Flags: W
HStem: -6 83<214.481 377.794> 380 83<203 419.822> 668 83<213.856 398.428>
VStem: 442 111<484.258 622.912> 479 112<174.645 325.576>
LayerCount: 2
Fore
SplineSet
479 256 m 0xe8
 479 322 425 380 363 380 c 2
 203 380 l 1
 203 463 l 1
 369 463 l 2
 393 465 442 478 442 540 c 0
 442 625 401 668 318 668 c 2
 291 668 l 2
 218 668 155 613 121 573 c 1
 41 633 l 1
 60 657 141 751 291 751 c 2
 317 751 l 2
 463 751 553 677 553 540 c 0xf0
 553 493 537 454 505 425 c 1
 551 389 591 325 591 256 c 0
 591 99 462 -6 295 -6 c 0
 229 -6 125 -1 23 128 c 1
 101 193 l 1
 196 85 258 77 297 77 c 0
 394 77 479 160 479 256 c 0xe8
EndSplineSet
EndChar

StartChar: four
Encoding: 52 52 21
Width: 639
VWidth: 1507
Flags: W
HStem: 0 21G<395 505> 146 83<178 395 505 600>
VStem: 395 110<0 146 229 541>
LayerCount: 2
Fore
SplineSet
395 0 m 1
 395 146 l 1
 133 146 l 2
 66 146 42 176 42 222 c 1
 402 730 l 1
 505 730 l 1
 505 229 l 1
 600 229 l 1
 600 146 l 1
 505 146 l 1
 505 0 l 1
 395 0 l 1
395 541 m 1
 178 229 l 1
 395 229 l 1
 395 541 l 1
EndSplineSet
EndChar

StartChar: five
Encoding: 53 53 22
Width: 657
VWidth: 1507
Flags: W
HStem: -6 83<230.695 395.231> 380 83<219 440.529> 648 82<219 567>
VStem: 107 112<463 648> 494 112<174.205 325.671>
LayerCount: 2
Fore
SplineSet
494 256 m 0
 494 322 440 380 378 380 c 2
 107 380 l 1
 107 730 l 1
 567 730 l 1
 567 648 l 1
 219 648 l 1
 219 463 l 1
 398 463 l 2
 515 463 606 364 606 256 c 0
 606 99 476 -6 312 -6 c 0
 177 -6 100 51 41 128 c 1
 118 193 l 1
 211 85 275 77 314 77 c 0
 408 77 494 158 494 256 c 0
EndSplineSet
EndChar

StartChar: six
Encoding: 54 54 23
Width: 649
VWidth: 1507
Flags: W
HStem: -6 83<221.729 397.904> 384 83<262.44 436.685> 614 21G<453 499.128> 668 83<274.678 409.32>
VStem: 48 128<146.963 293.315> 48 110<407 548.204> 487 111<169.858 259 259 336.641>
LayerCount: 2
Fore
SplineSet
158 407 m 1xf6
 199 447 248 467 320 467 c 2
 360 467 l 2
 543 467 598 366 598 259 c 2
 598 249 l 2
 598 115 479 -6 333 -6 c 2
 300 -6 l 2
 115 -6 48 117 48 297 c 2
 48 455 l 2
 48 614 185 751 360 751 c 0
 429 751 490 731 543 692 c 1
 484 614 l 1
 422 659 385 668 360 668 c 0
 256 668 158 579 158 457 c 2
 158 407 l 1xf6
336 384 m 2
 246 384 176 298 176 211 c 0xfa
 176 148 200 77 298 77 c 2
 326 77 l 2
 404 77 487 156 487 249 c 2
 487 259 l 2
 487 338 445 384 363 384 c 2
 336 384 l 2
EndSplineSet
EndChar

StartChar: seven
Encoding: 55 55 24
Width: 602
VWidth: 1507
Flags: W
HStem: 0 21G<181 294> 650 83<30 428>
VStem: 181 113<0 150.344>
LayerCount: 2
Fore
SplineSet
30 733 m 1
 565 733 l 1
 565 674 l 1
 339 217 l 2
 313 158 294 81 294 0 c 1
 181 0 l 1
 188 125 207 184 225 225 c 2
 247 275 l 2
 255 294 266 318 281 350 c 2
 428 650 l 1
 30 650 l 1
 30 733 l 1
EndSplineSet
EndChar

StartChar: eight
Encoding: 56 56 25
Width: 643
VWidth: 1507
Flags: W
HStem: -8 83<202.016 395.257> 353 83<243.971 276 276 393.981> 657 83<248.933 414.577>
VStem: 42 110<122.839 262.693> 72 112<474.375 595.021> 452 113<491.57 619.464> 481 111<155.254 294.154>
LayerCount: 2
Fore
SplineSet
345 740 m 2xe8
 482 740 565 672 565 544 c 0xec
 565 487 519 430 485 401 c 1
 551 366 592 297 592 228 c 0
 592 61 452 -8 297 -8 c 2
 277 -8 l 2
 158 -8 42 61 42 197 c 0xf2
 42 272 99 347 145 384 c 1
 77 432 72 489 72 520 c 256
 72 639 181 740 306 740 c 2
 345 740 l 2xe8
481 228 m 0xf2
 481 293 418 353 365 353 c 2
 314 353 l 2
 225 353 152 256 152 197 c 0
 152 117 208 75 276 75 c 2
 295 75 l 2
 399 75 481 133 481 228 c 0xf2
184 522 m 0xec
 184 449 253 436 276 436 c 2
 330 436 l 2
 399 439 452 501 452 544 c 0
 452 595 431 657 345 657 c 2
 323 657 l 2
 244 657 184 598 184 522 c 0xec
EndSplineSet
EndChar

StartChar: nine
Encoding: 57 57 26
Width: 643
VWidth: 1507
Flags: W
HStem: -6 83<230.281 365.463> 279 83<197.141 379.414> 668 83<244.762 415.539>
VStem: 42 110<405.362 572.464> 464 128<450.865 592.892> 481 111<195.01 336>
LayerCount: 2
Fore
SplineSet
279 77 m 0xf4
 384 77 481 166 481 288 c 2
 481 336 l 1
 438 298 384 279 321 279 c 2
 279 279 l 2
 133 279 42 347 42 485 c 2
 42 494 l 2
 42 643 178 751 304 751 c 2
 339 751 l 2
 541 751 592 602 592 448 c 2
 592 288 l 2
 592 129 459 -6 279 -6 c 0
 206 -6 146 19 96 53 c 1
 157 130 l 1
 218 86 255 77 279 77 c 0xf4
303 362 m 2
 399 362 464 452 464 535 c 0xf8
 464 593 439 668 341 668 c 2
 315 668 l 2
 230 668 152 580 152 494 c 2
 152 485 l 2
 152 403 194 362 277 362 c 2
 303 362 l 2
EndSplineSet
EndChar

StartChar: colon
Encoding: 58 58 27
Width: 334
VWidth: 1507
Flags: W
HStem: 26 129<118.178 230.468> 392 128<117.828 230.854>
VStem: 99 150<45.0918 135.625 410.999 501.375>
LayerCount: 2
Fore
SplineSet
173 26 m 0
 132 26 99 55 99 90 c 256
 99 126 132 155 173 155 c 0
 219 155 249 125 249 90 c 256
 249 65 228 26 173 26 c 0
173 392 m 0
 132 392 99 420 99 455 c 0
 99 492 131 520 173 520 c 0
 217 520 249 493 249 455 c 0
 249 431 229 392 173 392 c 0
EndSplineSet
EndChar

StartChar: semicolon
Encoding: 59 59 28
Width: 334
VWidth: 1507
Flags: W
HStem: 392 128<117.828 229.875>
VStem: 99 148<411.096 501.049> 133 104<44.1785 164>
LayerCount: 2
Fore
SplineSet
173 392 m 0xc0
 132 392 99 420 99 455 c 0
 99 492 131 520 173 520 c 0
 226 520 247 485 247 455 c 0
 247 428 226 392 173 392 c 0xc0
50 -11 m 1
 85 27 127 23 133 112 c 2
 133 164 l 1
 237 164 l 1
 237 112 l 2xa0
 237 -10 162 -39 103 -81 c 1
 50 -11 l 1
EndSplineSet
EndChar

StartChar: less
Encoding: 60 60 29
Width: 673
VWidth: 1507
Flags: W
LayerCount: 2
Fore
SplineSet
621 647 m 1
 621 547 l 1
 211 309 l 1
 621 72 l 1
 621 -26 l 1
 35 309 l 1
 621 647 l 1
EndSplineSet
EndChar

StartChar: equal
Encoding: 61 61 30
Width: 574
VWidth: 1507
Flags: W
HStem: 182 92<35 508 35 508 35 35> 374 92<35 508>
LayerCount: 2
Fore
SplineSet
35 182 m 1
 35 274 l 1
 508 274 l 1
 508 182 l 1
 35 182 l 1
35 374 m 1
 35 466 l 1
 508 466 l 1
 508 374 l 1
 35 374 l 1
EndSplineSet
EndChar

StartChar: greater
Encoding: 62 62 31
Width: 675
VWidth: 1507
Flags: W
LayerCount: 2
Fore
SplineSet
629 309 m 1
 42 -26 l 1
 42 72 l 1
 451 309 l 1
 42 547 l 1
 42 647 l 1
 629 309 l 1
EndSplineSet
EndChar

StartChar: question
Encoding: 63 63 32
Width: 586
VWidth: 1507
Flags: W
HStem: -8 127<193.768 305.999> 644 89<122.283 369.017>
VStem: 175 149<10.9556 100.842> 190 110<163 309.707> 422 110<470.716 597.176>
LayerCount: 2
Fore
SplineSet
250 -8 m 256xe8
 210 -8 175 18 175 57 c 0
 175 94 210 119 250 119 c 256
 291 119 324 94 324 57 c 0
 324 18 291 -8 250 -8 c 256xe8
205 644 m 2
 146 644 91 608 60 577 c 1
 14 668 l 1
 38 694 99 733 205 733 c 2
 291 733 l 2
 412 733 532 669 532 532 c 0
 532 413 406 356 351 333 c 0
 319 319 300 283 300 232 c 2
 300 163 l 1
 190 163 l 1
 190 232 l 2xd8
 190 344 284 401 327 419 c 0
 369 439 422 469 422 532 c 0
 422 612 352 644 291 644 c 2
 205 644 l 2
EndSplineSet
EndChar

StartChar: at
Encoding: 64 64 33
Width: 975
VWidth: 1507
Flags: W
HStem: -26 83<255.654 596.924> 137 82<358.132 518.176 677.936 752.52> 508 81<376.659 515.859> 674 84<302.449 700.625>
VStem: 60 104<148.104 542.443> 235 103<238.294 471.388> 553 100<253.943 489.375 579 589> 791 104<334.687 584.345>
LayerCount: 2
Fore
SplineSet
455 219 m 2
 514 219 552 262 553 315 c 2
 553 443 l 2
 549 480 521 508 485 508 c 2
 434 508 l 2
 379 508 338 465 338 405 c 2
 338 289 l 2
 338 248 366 219 402 219 c 2
 455 219 l 2
564 57 m 2
 595 57 646 66 718 118 c 1
 770 44 l 1
 720 8 647 -26 561 -26 c 2
 341 -26 l 2
 181 -26 60 92 60 235 c 2
 60 443 l 2
 60 616 206 758 396 758 c 2
 615 758 l 2
 776 758 895 639 895 494 c 2
 895 392 l 2
 895 253 859 142 713 142 c 0
 645 142 607 180 600 188 c 1
 559 150 497 137 455 137 c 2
 402 137 l 2
 315 137 235 200 235 289 c 2
 235 405 l 2
 235 504 316 589 434 589 c 2
 485 589 l 2
 512 589 535 586 553 579 c 1
 553 589 l 1
 653 589 l 1
 653 317 l 2
 653 272 671 226 713 226 c 0
 743 226 764 242 774 275 c 0
 786 308 791 347 791 393 c 2
 791 500 l 2
 791 591 723 674 620 674 c 2
 393 674 l 2
 273 674 164 578 164 446 c 2
 164 231 l 2
 164 135 238 57 335 57 c 2
 564 57 l 2
EndSplineSet
EndChar

StartChar: A
Encoding: 65 65 34
Width: 850
VWidth: 1507
Flags: W
HStem: 0 21G<24 162.5 686.8 817> 200 83<273 565> 720 20G<355.784 395.5>
LayerCount: 2
Fore
SplineSet
365 740 m 1
 426 740 480 720 503 678 c 2
 817 0 l 1
 696 0 l 1
 604 200 l 1
 237 200 l 1
 228 180 180 81 145 0 c 1
 24 0 l 1
 365 740 l 1
273 283 m 1
 565 283 l 1
 421 598 l 1
 273 283 l 1
EndSplineSet
EndChar

StartChar: B
Encoding: 66 66 35
Width: 771
VWidth: 1507
Flags: W
HStem: 0 84<170 560.97> 344 83<170 496.936> 654 83<170 492.541>
VStem: 60 110<84 344 427 654> 538 115<487.827 605.473> 612 115<140.738 289.748>
LayerCount: 2
Fore
SplineSet
612 216 m 256xf4
 612 277 565 344 514 344 c 2
 170 344 l 1
 170 84 l 1
 514 84 l 2
 564 84 612 152 612 216 c 256xf4
538 538 m 0xf8
 538 599 489 654 440 654 c 2
 170 654 l 1
 170 427 l 1
 440 427 l 2
 499 427 538 485 538 538 c 0xf8
146 0 m 2
 100 0 60 37 60 77 c 2
 60 737 l 1
 440 737 l 2
 558 737 653 644 653 538 c 0xf8
 653 519 651 469 598 412 c 1
 673 375 727 294 727 216 c 0xf4
 727 106 628 -0 514 0 c 2
 146 0 l 2
EndSplineSet
EndChar

StartChar: C
Encoding: 67 67 36
Width: 762
VWidth: 1507
Flags: W
HStem: -15 84<241.756 480.185> 669 85<282.602 514.357>
VStem: 44 113<161.334 540.689> 598 112<184.014 277 500 584.375>
LayerCount: 2
Fore
SplineSet
44 442 m 2
 44 613 192 754 359 754 c 2
 445 754 l 2
 583 754 707 651 707 500 c 1
 595 500 l 1
 595 586 532 669 445 669 c 2
 359 669 l 2
 257 669 157 568 157 442 c 2
 157 244 l 2
 157 159 225 69 306 69 c 2
 395 69 l 2
 509 69 598 166 598 277 c 1
 710 277 l 1
 710 102 566 -15 395 -15 c 2
 306 -15 l 2
 165 -15 44 102 44 244 c 2
 44 442 l 2
EndSplineSet
EndChar

StartChar: D
Encoding: 68 68 37
Width: 794
VWidth: 1507
Flags: W
HStem: 0 84<170 494.422> 654 83<170 533.5>
VStem: 60 110<84 654> 615 112<204.076 297 297 571.501>
LayerCount: 2
Fore
SplineSet
727 297 m 2
 727 139 586 -0 410 0 c 2
 146 0 l 2
 100 0 60 37 60 77 c 2
 60 737 l 1
 461 737 l 2
 607 737 727 631 727 491 c 2
 727 297 l 2
615 491 m 2
 615 576 552 654 461 654 c 2
 170 654 l 1
 170 84 l 1
 410 84 l 2
 513 84 615 173 615 297 c 2
 615 491 l 2
EndSplineSet
EndChar

StartChar: E
Encoding: 69 69 38
Width: 762
VWidth: 1507
Flags: W
HStem: 0 84<170 693> 344 83<170 618> 654 83<170 693>
VStem: 60 110<84 344 427 654>
LayerCount: 2
Fore
SplineSet
146 0 m 2
 100 0 60 37 60 77 c 2
 60 737 l 1
 693 737 l 1
 693 654 l 1
 170 654 l 1
 170 427 l 1
 618 427 l 1
 618 344 l 1
 170 344 l 1
 170 84 l 1
 693 84 l 1
 693 0 l 1
 146 0 l 2
EndSplineSet
EndChar

StartChar: F
Encoding: 70 70 39
Width: 762
VWidth: 1507
Flags: W
HStem: 0 21G<60 170> 344 83<170 618> 654 83<170 693>
VStem: 60 110<0 344 427 654>
LayerCount: 2
Fore
SplineSet
170 344 m 1
 170 0 l 1
 60 0 l 1
 60 737 l 1
 693 737 l 1
 693 654 l 1
 170 654 l 1
 170 427 l 1
 618 427 l 1
 618 344 l 1
 170 344 l 1
EndSplineSet
EndChar

StartChar: G
Encoding: 71 71 40
Width: 762
VWidth: 1507
Flags: W
HStem: -15 84<241.756 487.197> 253 85<377 598> 669 85<282.602 514.357>
VStem: 44 113<161.334 244 244 540.689> 598 112<178.266 253 500 579.512>
LayerCount: 2
Fore
SplineSet
157 244 m 2
 157 159 225 69 306 69 c 2
 395 69 l 2
 501 69 590 144 598 253 c 1
 377 253 l 1
 377 338 l 1
 710 338 l 1
 710 265 l 2
 710 97 565 -15 395 -15 c 2
 306 -15 l 2
 165 -15 44 102 44 244 c 2
 44 442 l 2
 44 613 192 754 359 754 c 2
 445 754 l 2
 583 754 707 651 707 500 c 1
 595 500 l 1
 595 586 532 669 445 669 c 2
 359 669 l 2
 257 669 157 568 157 442 c 2
 157 244 l 2
EndSplineSet
EndChar

StartChar: H
Encoding: 72 72 41
Width: 762
VWidth: 1507
Flags: W
HStem: 0 21G<60 170 583 693> 344 83<170 583> 717 20G<60 170 583 693>
VStem: 60 110<0 344 427 737> 583 110<0 344 427 737>
LayerCount: 2
Fore
SplineSet
583 344 m 1
 170 344 l 1
 170 0 l 1
 60 0 l 1
 60 737 l 1
 170 737 l 1
 170 427 l 1
 583 427 l 1
 583 737 l 1
 693 737 l 1
 693 0 l 1
 583 0 l 1
 583 344 l 1
EndSplineSet
EndChar

StartChar: I
Encoding: 73 73 42
Width: 227
VWidth: 1507
Flags: W
HStem: 0 21G<57 167> 717 20G<57 167>
VStem: 57 110<0 737>
LayerCount: 2
Fore
SplineSet
57 737 m 1
 167 737 l 1
 167 0 l 1
 57 0 l 1
 57 737 l 1
EndSplineSet
EndChar

StartChar: J
Encoding: 74 74 43
Width: 666
VWidth: 1507
Flags: W
HStem: -15 92<216.02 375.677> 717 20G<488 600>
VStem: 21 112<169.781 256> 488 112<183.622 737>
LayerCount: 2
Fore
SplineSet
600 265 m 2
 600 97 456 -15 283 -15 c 0
 136 -15 21 117 21 256 c 1
 133 256 l 1
 133 172 194 77 283 77 c 0
 383 77 488 149 488 265 c 2
 488 737 l 1
 600 737 l 1
 600 265 l 2
EndSplineSet
EndChar

StartChar: K
Encoding: 75 75 44
Width: 731
VWidth: 1507
Flags: W
HStem: 0 21G<60 170 541.396 707> 717 20G<60 170 531.986 710>
VStem: 60 110<0 323 449 737>
LayerCount: 2
Fore
SplineSet
562 0 m 1
 289 265 l 2
 241 307 189 321 170 323 c 1
 170 0 l 1
 60 0 l 1
 60 737 l 1
 170 737 l 1
 170 449 l 1
 559 737 l 1
 710 737 l 1
 255 392 l 1
 287 385 316 371 340 351 c 2
 413 291 l 1
 707 0 l 1
 562 0 l 1
EndSplineSet
EndChar

StartChar: L
Encoding: 76 76 45
Width: 669
VWidth: 1507
Flags: W
HStem: 0 84<170 632> 717 20G<60 170>
VStem: 60 110<84 737>
LayerCount: 2
Fore
SplineSet
146 0 m 2
 100 0 60 37 60 77 c 2
 60 737 l 1
 170 737 l 1
 170 84 l 1
 632 84 l 1
 632 0 l 1
 146 0 l 2
EndSplineSet
EndChar

StartChar: M
Encoding: 77 77 46
Width: 948
VWidth: 1507
Flags: W
HStem: 0 21G<62 172 766 876> 720 20G<62 177.259 760.815 876>
VStem: 62 110<0 500> 766 110<0 497>
LayerCount: 2
Fore
SplineSet
470 -35 m 1
 172 500 l 1
 172 0 l 1
 62 0 l 1
 62 740 l 1
 166 740 l 1
 470 200 l 1
 772 740 l 1
 876 740 l 1
 876 0 l 1
 766 0 l 1
 766 497 l 1
 470 -35 l 1
EndSplineSet
EndChar

StartChar: N
Encoding: 78 78 47
Width: 794
VWidth: 1507
Flags: W
HStem: 0 21G<60 170 606.85 727> 720 20G<60 179.971 612 727>
VStem: 60 110<0 561> 612 115<179 740>
LayerCount: 2
Fore
SplineSet
612 179 m 1
 612 740 l 1
 727 740 l 1
 727 0 l 1
 623 0 l 1
 170 561 l 1
 170 0 l 1
 60 0 l 1
 60 740 l 1
 164 740 l 1
 612 179 l 1
EndSplineSet
EndChar

StartChar: O
Encoding: 79 79 48
Width: 764
VWidth: 1507
Flags: W
HStem: -15 84<244.291 474.4> 669 85<285.138 512.309>
VStem: 45 113<163.565 533.219> 600 111<200.733 491 491 575.255>
LayerCount: 2
Fore
SplineSet
448 754 m 2
 589 754 711 636 711 491 c 2
 711 297 l 2
 711 129 569 -15 396 -15 c 2
 309 -15 l 2
 167 -15 45 102 45 246 c 2
 45 440 l 2
 45 613 194 754 362 754 c 2
 448 754 l 2
396 69 m 2
 504 69 600 177 600 297 c 2
 600 491 l 2
 600 584 528 669 448 669 c 2
 362 669 l 2
 257 669 158 562 158 440 c 2
 158 246 l 2
 158 161 227 69 309 69 c 2
 396 69 l 2
EndSplineSet
EndChar

StartChar: P
Encoding: 80 80 49
Width: 732
VWidth: 1507
Flags: W
HStem: 0 21G<60 170> 344 83<170 540.319> 654 83<170 537.872>
VStem: 60 110<0 344 427 654> 583 110<471.186 606.556>
LayerCount: 2
Fore
SplineSet
693 538 m 256
 693 422 592 344 479 344 c 2
 170 344 l 1
 170 0 l 1
 60 0 l 1
 60 737 l 1
 479 737 l 2
 598 737 693 647 693 538 c 256
583 538 m 256
 583 596 540 654 479 654 c 2
 170 654 l 1
 170 427 l 1
 479 427 l 2
 539 427 583 478 583 538 c 256
EndSplineSet
EndChar

StartChar: Q
Encoding: 81 81 50
Width: 762
VWidth: 1507
Flags: W
HStem: -15 84<242.958 475.435> 669 85<279.448 512.377>
VStem: 44 113<163.565 534.704> 598 112<256.869 297 297 578.524>
LayerCount: 2
Fore
SplineSet
710 297 m 2
 710 225 681 162 650 116 c 1
 719 45 l 1
 645 -24 l 1
 579 45 l 1
 520 1 455 -15 395 -15 c 2
 308 -15 l 2
 165 -15 44 101 44 246 c 2
 44 440 l 2
 44 617 196 754 362 754 c 2
 446 754 l 2
 593 754 710 629 710 491 c 2
 710 297 l 2
157 246 m 2
 157 161 226 69 308 69 c 2
 395 69 l 2
 434 69 472 83 508 112 c 1
 398 222 l 1
 473 291 l 1
 574 191 l 1
 590 226 598 261 598 297 c 2
 598 491 l 2
 598 579 532 669 446 669 c 2
 362 669 l 2
 253 669 157 560 157 440 c 2
 157 246 l 2
EndSplineSet
EndChar

StartChar: R
Encoding: 82 82 51
Width: 746
VWidth: 1507
Flags: W
HStem: 0 21G<60 172 593.507 734> 344 83<172 383.33> 654 83<172 538.382>
VStem: 60 112<0 344 427 654> 583 112<470.758 606.756>
LayerCount: 2
Fore
SplineSet
695 538 m 256
 695 418 593 351 497 344 c 1
 508 333 518 319 528 304 c 2
 734 0 l 1
 607 0 l 1
 410 292 l 2
 408 295 371 344 348 344 c 2
 172 344 l 1
 172 0 l 1
 60 0 l 1
 60 737 l 1
 479 737 l 2
 599 737 695 648 695 538 c 256
583 538 m 256
 583 596 540 654 479 654 c 2
 172 654 l 1
 172 427 l 1
 479 427 l 2
 539 427 583 478 583 538 c 256
EndSplineSet
EndChar

StartChar: S
Encoding: 83 83 52
Width: 826
VWidth: 1507
Flags: W
HStem: -15 84<247.148 567.829> 672 83<263.156 563.098>
VStem: 45 112<164.521 247> 75 112<520.956 611.493> 629 111<525 603.014> 660 110<151.058 295.117>
LayerCount: 2
Fore
SplineSet
770 220 m 0xd4
 770 79 632 -15 476 -15 c 2
 320 -15 l 2
 175 -15 45 90 45 247 c 1
 157 247 l 1
 157 153 228 69 320 69 c 2
 476 69 l 2
 582 69 660 142 660 220 c 0xe4
 660 292 617 333 562 344 c 2
 252 380 l 2
 107 402 81 480 78 510 c 0
 76 526 75 542 75 555 c 0
 75 703 257 755 339 755 c 2
 497 755 l 2
 630 755 740 663 740 525 c 1
 629 525 l 1xd8
 629 592 581 672 497 672 c 2
 339 672 l 2
 290 672 187 632 187 555 c 0
 187 533 189 483 270 472 c 2
 576 433 l 2
 751 409 770 290 770 220 c 0xd4
EndSplineSet
EndChar

StartChar: T
Encoding: 84 84 53
Width: 637
VWidth: 1507
Flags: W
HStem: 0 21G<261 372> 654 83<29 261 372 601>
VStem: 261 111<0 654>
LayerCount: 2
Fore
SplineSet
261 654 m 1
 29 654 l 1
 29 737 l 1
 601 737 l 1
 601 654 l 1
 372 654 l 1
 372 0 l 1
 261 0 l 1
 261 654 l 1
EndSplineSet
EndChar

StartChar: U
Encoding: 85 85 54
Width: 779
VWidth: 1507
Flags: W
HStem: -15 84<248.489 481.133> 717 20G<51 164 607 718>
VStem: 51 113<165.442 737> 607 111<203.349 737>
LayerCount: 2
Fore
SplineSet
317 -15 m 2
 164 -15 51 110 51 246 c 2
 51 737 l 1
 164 737 l 1
 164 246 l 2
 164 159 234 69 317 69 c 2
 402 69 l 2
 517 69 607 183 607 297 c 2
 607 737 l 1
 718 737 l 1
 718 297 l 2
 718 133 577 -15 402 -15 c 2
 317 -15 l 2
EndSplineSet
EndChar

StartChar: V
Encoding: 86 86 55
Width: 768
VWidth: 1507
Flags: W
HStem: -8 21G<398 444.054> 717 20G<26 149.873 611.859 736>
LayerCount: 2
Fore
SplineSet
620 737 m 1
 736 737 l 1
 436 -8 l 1
 360 -8 314 13 286 75 c 2
 26 737 l 1
 142 737 l 1
 377 140 l 1
 620 737 l 1
EndSplineSet
EndChar

StartChar: W
Encoding: 87 87 56
Width: 1142
VWidth: 1507
Flags: W
HStem: -8 21G<371.5 417.526 713.581 760> 717 20<27 149.942 505.324 548.5 979.058 1103>
LayerCount: 2
Fore
SplineSet
412 -8 m 1
 331 -8 286 15 256 75 c 2
 27 737 l 1
 143 737 l 1
 345 155 l 1
 427 450 l 1
 511 746 l 1
 586 746 621 724 633 692 c 2
 784 155 l 1
 986 737 l 1
 1103 737 l 1
 873 75 l 2
 847 18 801 -8 719 -8 c 1
 567 553 l 1
 412 -8 l 1
EndSplineSet
EndChar

StartChar: X
Encoding: 88 88 57
Width: 753
VWidth: 1507
Flags: W
HStem: 0 21G<20 169.406 576.452 725> 717 20G<20 169.228 576.491 725>
LayerCount: 2
Fore
SplineSet
154 0 m 1
 20 0 l 1
 304 368 l 1
 20 737 l 1
 154 737 l 1
 371 452 l 1
 592 737 l 1
 725 737 l 1
 439 368 l 1
 725 0 l 1
 592 0 l 1
 372 283 l 1
 154 0 l 1
EndSplineSet
EndChar

StartChar: Y
Encoding: 89 89 58
Width: 734
VWidth: 1507
Flags: W
HStem: 0 21G<306 418> 717 20G<20 160.088 566.421 705>
VStem: 306 112<0 366>
LayerCount: 2
Fore
SplineSet
418 0 m 1
 306 0 l 1
 306 366 l 1
 20 737 l 1
 145 737 l 1
 360 452 l 1
 582 737 l 1
 705 737 l 1
 418 366 l 1
 418 0 l 1
EndSplineSet
EndChar

StartChar: Z
Encoding: 90 90 59
Width: 759
VWidth: 1507
Flags: W
HStem: 0 84<225 695> 654 83<54 529>
LayerCount: 2
Fore
SplineSet
54 654 m 1
 54 737 l 1
 731 737 l 1
 225 84 l 1
 695 84 l 1
 695 0 l 1
 20 0 l 1
 529 654 l 1
 54 654 l 1
EndSplineSet
EndChar

StartChar: bracketleft
Encoding: 91 91 60
Width: 325
VWidth: 1507
Flags: W
HStem: -213 80<192.316 280> 736 80<194.62 280>
VStem: 47 107<-121.272 721.893>
LayerCount: 2
Fore
SplineSet
47 692 m 2
 47 791 147 816 222 816 c 2
 280 816 l 1
 280 736 l 1
 222 736 l 2
 199 736 154 729 154 687 c 2
 154 -87 l 2
 154 -126 197 -133 222 -133 c 2
 280 -133 l 1
 280 -213 l 1
 222 -213 l 2
 148 -213 47 -189 47 -92 c 2
 47 692 l 2
EndSplineSet
EndChar

StartChar: bracketright
Encoding: 93 93 62
Width: 325
VWidth: 1507
Flags: W
HStem: -213 80<47 163.562> 736 80<47 133.572>
VStem: 173 107<-121.272 725.752>
LayerCount: 2
Fore
SplineSet
280 -92 m 2
 280 -189 178 -213 106 -213 c 2
 47 -213 l 1
 47 -133 l 1
 106 -133 l 2
 134 -133 173 -124 173 -87 c 2
 173 687 l 2
 173 729 130 736 106 736 c 2
 47 736 l 1
 47 816 l 1
 106 816 l 2
 179 816 280 791 280 692 c 2
 280 -92 l 2
EndSplineSet
EndChar

StartChar: asciicircum
Encoding: 94 94 63
Width: 737
VWidth: 1507
Flags: W
HStem: 369 450<184 359 359 359>
LayerCount: 2
Fore
SplineSet
359 636 m 1
 184 369 l 1
 71 369 l 1
 359 819 l 1
 651 369 l 1
 538 369 l 1
 359 636 l 1
EndSplineSet
EndChar

StartChar: underscore
Encoding: 95 95 64
Width: 586
VWidth: 1507
Flags: W
HStem: -136 83<-11 589>
LayerCount: 2
Fore
SplineSet
-11 -136 m 1
 -11 -53 l 1
 589 -53 l 1
 589 -136 l 1
 -11 -136 l 1
EndSplineSet
EndChar

StartChar: grave
Encoding: 96 96 65
Width: 360
VWidth: 1507
Flags: W
HStem: 570 190<130 235 130 130>
VStem: 75 213<618 711 711 711>
LayerCount: 2
Fore
SplineSet
288 618 m 1
 235 570 l 1
 75 711 l 1
 130 760 l 1
 288 618 l 1
EndSplineSet
EndChar

StartChar: a
Encoding: 97 97 66
Width: 577
VWidth: 1507
Flags: W
HStem: -8 83<177.939 342.898> 452 85<211.926 372.944>
VStem: 41 111<100.844 388.685> 413 112<-3 38 144.222 403.518 502 529>
LayerCount: 2
Fore
SplineSet
332 537 m 2
 370 537 379 524 413 502 c 1
 413 529 l 1
 525 529 l 1
 525 -3 l 1
 413 -3 l 1
 413 38 l 1
 385 19 333 -8 279 -8 c 2
 217 -8 l 2
 122 -8 41 66 41 176 c 2
 41 315 l 2
 41 431 141 537 270 537 c 2
 332 537 l 2
279 75 m 2
 342 75 410 140 413 208 c 2
 413 342 l 2
 411 377 376 452 332 452 c 2
 270 452 l 2
 202 452 152 385 152 315 c 2
 152 176 l 2
 152 145 165 75 217 75 c 2
 279 75 l 2
EndSplineSet
Substitution2: "Single Substitution lookup 22 subtable" uni0E38
Substitution2: "Single Substitution lookup 22 subtable" uni0E38
EndChar

StartChar: b
Encoding: 98 98 67
Width: 578
VWidth: 1507
Flags: W
HStem: -8 83<213.491 361.811> 452 85<242.612 386.949>
VStem: 47 111<0 18 115.112 392.399 494 730> 419 110<138.637 419.297>
LayerCount: 2
Fore
SplineSet
243 -8 m 2
 226 -8 203 -8 158 18 c 1
 158 0 l 1
 47 0 l 1
 47 730 l 1
 158 730 l 1
 158 494 l 1
 217 538 264 537 279 537 c 2
 342 537 l 2
 454 537 529 442 529 353 c 2
 529 213 l 2
 529 95 433 -8 304 -8 c 2
 243 -8 l 2
304 75 m 2
 374 75 419 151 419 216 c 2
 419 354 l 2
 419 404 384 452 342 452 c 2
 279 452 l 2
 217 452 168 395 158 339 c 1
 158 164 l 1
 165 125 200 75 243 75 c 2
 304 75 l 2
EndSplineSet
Substitution2: "Single Substitution lookup 22 subtable" uni0E39
Substitution2: "Single Substitution lookup 22 subtable" uni0E39
EndChar

StartChar: c
Encoding: 99 99 68
Width: 572
VWidth: 1507
Flags: W
HStem: -8 83<185.643 362.365> 452 85<211.926 378.036>
VStem: 41 111<110.024 388.685> 413 112<128.18 203 354 419.447>
LayerCount: 2
Fore
SplineSet
41 315 m 2
 41 431 141 537 270 537 c 2
 330 537 l 2
 436 537 523 464 523 354 c 1
 412 354 l 1
 412 407 377 452 330 452 c 2
 270 452 l 2
 202 452 152 385 152 315 c 2
 152 176 l 2
 152 133 183 75 234 75 c 2
 295 75 l 2
 358 75 413 123 413 203 c 1
 525 203 l 1
 525 68 409 -8 295 -8 c 2
 234 -8 l 2
 126 -8 41 78 41 176 c 2
 41 315 l 2
EndSplineSet
Substitution2: "Single Substitution lookup 22 subtable" uni0E3A
Substitution2: "Single Substitution lookup 22 subtable" uni0E3A
EndChar

StartChar: d
Encoding: 100 100 69
Width: 580
VWidth: 1507
Flags: W
HStem: -8 83<177.939 342.898> 452 85<211.926 360.474>
VStem: 41 111<100.844 388.685> 413 112<-3 38 144.222 413.944 520 730>
LayerCount: 2
Fore
SplineSet
332 537 m 2
 348 537 387 537 413 520 c 1
 413 730 l 1
 525 730 l 1
 525 -3 l 1
 413 -3 l 1
 413 38 l 1
 383 16 333 -8 279 -8 c 2
 217 -8 l 2
 122 -8 41 66 41 176 c 2
 41 315 l 2
 41 431 141 537 270 537 c 2
 332 537 l 2
279 75 m 2
 342 75 410 140 413 208 c 2
 413 357 l 2
 411 392 378 452 332 452 c 2
 270 452 l 2
 202 452 152 385 152 315 c 2
 152 176 l 2
 152 145 165 75 217 75 c 2
 279 75 l 2
EndSplineSet
EndChar

StartChar: e
Encoding: 101 101 70
Width: 574
VWidth: 1507
Flags: W
HStem: -8 83<185.643 356.188> 264 75<152 413> 452 85<206.415 376.649>
VStem: 41 111<110.024 264 339 393.679> 413 112<131.198 210 339 353 353 416.091>
LayerCount: 2
Fore
SplineSet
332 537 m 2
 442 537 525 444 525 353 c 2
 525 264 l 1
 152 264 l 1
 152 176 l 2
 152 133 183 75 234 75 c 2
 295 75 l 2
 360 75 413 131 413 210 c 1
 525 210 l 1
 525 80 417 -8 295 -8 c 2
 234 -8 l 2
 126 -8 41 78 41 176 c 2
 41 315 l 2
 41 431 141 537 270 537 c 2
 332 537 l 2
413 353 m 2
 413 406 372 452 332 452 c 2
 270 452 l 2
 208 452 160 401 152 339 c 1
 413 339 l 1
 413 353 l 2
EndSplineSet
EndChar

StartChar: f
Encoding: 102 102 71
Width: 354
VWidth: 1507
Flags: W
HStem: 0 21G<122 232> 452 77<21 122 232 329> 639 91<295.998 371>
VStem: 122 110<0 452 529 578.884>
LayerCount: 2
Fore
SplineSet
122 452 m 1
 21 452 l 1
 21 529 l 1
 122 529 l 1
 130 644 244 730 371 730 c 1
 371 639 l 1
 292 639 242 584 232 529 c 1
 329 529 l 1
 329 452 l 1
 232 452 l 1
 232 0 l 1
 122 0 l 1
 122 452 l 1
EndSplineSet
EndChar

StartChar: g
Encoding: 103 103 72
Width: 580
VWidth: 1507
Flags: W
HStem: -184 78<192.593 363.028> 29 84<187.17 357.846> 451 86<211.926 378.113>
VStem: 41 111<150.77 388.685> 413 112<-56.8691 66 172.669 413.921 514 529>
LayerCount: 2
Fore
SplineSet
297 -106 m 2
 355 -106 413 -60 413 3 c 2
 413 66 l 1
 374 39 336 29 295 29 c 2
 234 29 l 2
 117 29 41 123 41 214 c 2
 41 315 l 2
 41 431 141 537 270 537 c 2
 332 537 l 2
 367 537 391 528 413 514 c 1
 413 529 l 1
 525 529 l 1
 525 3 l 2
 525 -100 398 -184 292 -184 c 2
 229 -184 l 2
 140 -184 69 -125 42 -51 c 1
 164 -51 l 1
 175 -67 204 -106 235 -106 c 2
 297 -106 l 2
295 113 m 2
 366 113 409 182 413 244 c 2
 413 357 l 2
 409 402 374 451 332 451 c 2
 270 451 l 2
 210 451 152 393 152 315 c 2
 152 214 l 2
 152 171 183 113 234 113 c 2
 295 113 l 2
EndSplineSet
EndChar

StartChar: h
Encoding: 104 104 73
Width: 584
VWidth: 1507
Flags: W
HStem: 0 21G<47 158 419 529> 452 85<216.105 386.949>
VStem: 47 111<0 392.399 497 730> 419 110<0 419.297>
LayerCount: 2
Fore
SplineSet
342 537 m 2
 454 537 529 442 529 353 c 2
 529 0 l 1
 419 0 l 1
 419 354 l 2
 419 404 384 452 342 452 c 2
 279 452 l 2
 217 452 168 395 158 339 c 1
 158 0 l 1
 47 0 l 1
 47 730 l 1
 158 730 l 1
 158 497 l 1
 189 517 231 537 279 537 c 2
 342 537 l 2
EndSplineSet
EndChar

StartChar: i
Encoding: 105 105 74
Width: 278
VWidth: 1507
Flags: W
HStem: 0 21G<83 191> 509 20G<83 191> 592 127<82.3273 196.243>
VStem: 65 149<609.875 701.875> 83 108<0 529>
LayerCount: 2
Fore
SplineSet
83 529 m 1xe8
 191 529 l 1
 191 0 l 1
 83 0 l 1
 83 529 l 1xe8
139 592 m 256
 96 592 65 618 65 657 c 0
 65 694 96 719 139 719 c 256
 182 719 214 694 214 657 c 0xf0
 214 618 182 592 139 592 c 256
EndSplineSet
EndChar

StartChar: j
Encoding: 106 106 75
Width: 278
VWidth: 1507
Flags: W
HStem: -202 90<-121 27.7067> 509 20G<81 191> 592 127<82.3273 196.243>
VStem: 65 149<609.875 701.875> 81 110<-56.8332 529>
LayerCount: 2
Fore
SplineSet
-38 -112 m 2xe8
 21 -112 81 -61 81 12 c 2
 81 529 l 1
 191 529 l 1
 191 12 l 2
 191 -99 97 -202 -38 -202 c 2
 -121 -202 l 1
 -121 -112 l 1
 -38 -112 l 2xe8
139 592 m 256
 96 592 65 618 65 657 c 0
 65 694 96 719 139 719 c 256
 182 719 214 694 214 657 c 0xf0
 214 618 182 592 139 592 c 256
EndSplineSet
EndChar

StartChar: k
Encoding: 107 107 76
Width: 551
VWidth: 1507
Flags: W
HStem: 0 21G<47 158 404 565> 509 20G<352.761 534>
VStem: 47 111<0 249 366 730>
LayerCount: 2
Fore
SplineSet
241 314 m 1
 262 302 280 285 289 276 c 2
 565 0 l 1
 424 0 l 1
 207 217 l 2
 190 232 174 243 158 249 c 1
 158 0 l 1
 47 0 l 1
 47 730 l 1
 158 730 l 1
 158 366 l 1
 380 529 l 1
 534 529 l 1
 241 314 l 1
EndSplineSet
EndChar

StartChar: l
Encoding: 108 108 77
Width: 278
VWidth: 1507
Flags: W
HStem: 0 21G<83 191>
VStem: 83 108<0 730>
LayerCount: 2
Fore
SplineSet
83 730 m 1
 191 730 l 1
 191 0 l 1
 83 0 l 1
 83 730 l 1
EndSplineSet
EndChar

StartChar: m
Encoding: 109 109 78
Width: 850
VWidth: 1507
Flags: W
HStem: 0 21G<50 160 363 475 678 788> 452 85<213.983 329.283 523.78 643.062>
VStem: 50 110<0 399.809 497 529> 363 112<0 407.305> 678 110<0 416.503>
CounterMasks: 1 38
LayerCount: 2
Fore
SplineSet
597 452 m 0
 538 452 475 411 475 351 c 2
 475 0 l 1
 363 0 l 1
 363 353 l 2
 363 406 322 452 282 452 c 0
 220 452 160 400 160 341 c 2
 160 0 l 1
 50 0 l 1
 50 529 l 1
 160 529 l 1
 160 497 l 1
 191 518 233 537 282 537 c 0
 344 537 393 505 424 473 c 1
 461 504 528 537 597 537 c 0
 707 537 788 445 788 353 c 2
 788 0 l 1
 678 0 l 1
 678 354 l 2
 678 406 636 452 597 452 c 0
EndSplineSet
EndChar

StartChar: n
Encoding: 110 110 79
Width: 590
VWidth: 1507
Flags: W
HStem: 0 21G<47 158 424 534> 452 85<216.105 387.53>
VStem: 47 111<0 392.399 497 529> 424 110<0 414.854>
LayerCount: 2
Fore
SplineSet
342 537 m 2
 455 537 534 441 534 353 c 2
 534 0 l 1
 424 0 l 1
 424 354 l 2
 424 402 383 452 342 452 c 2
 279 452 l 2
 217 452 168 395 158 339 c 1
 158 0 l 1
 47 0 l 1
 47 529 l 1
 158 529 l 1
 158 497 l 1
 189 517 231 537 279 537 c 2
 342 537 l 2
EndSplineSet
EndChar

StartChar: o
Encoding: 111 111 80
Width: 574
VWidth: 1507
Flags: W
HStem: -8 83<185.643 356.112> 452 85<211.926 376.649>
VStem: 41 111<110.024 388.685> 413 112<137.836 353 353 416.091>
LayerCount: 2
Fore
SplineSet
332 537 m 2
 442 537 525 444 525 353 c 2
 525 213 l 2
 525 93 420 -8 295 -8 c 2
 234 -8 l 2
 126 -8 41 78 41 176 c 2
 41 315 l 2
 41 431 141 537 270 537 c 2
 332 537 l 2
295 75 m 2
 360 75 413 141 413 213 c 2
 413 353 l 2
 413 406 372 452 332 452 c 2
 270 452 l 2
 202 452 152 385 152 315 c 2
 152 176 l 2
 152 133 183 75 234 75 c 2
 295 75 l 2
EndSplineSet
EndChar

StartChar: p
Encoding: 112 112 81
Width: 580
VWidth: 1507
Flags: W
HStem: -185 21G<47 158> -8 83<192.221 359.807> 452 85<215.12 384.53>
VStem: 47 111<-185 15 111.575 393.201 499 529> 421 110<139.735 413.448>
LayerCount: 2
Fore
SplineSet
240 -8 m 2
 203 -8 180 -1 158 15 c 1
 158 -185 l 1
 47 -185 l 1
 47 529 l 1
 158 529 l 1
 158 499 l 1
 187 520 227 537 276 537 c 2
 339 537 l 2
 452 537 531 441 531 353 c 2
 531 213 l 2
 531 96 432 -8 301 -8 c 2
 240 -8 l 2
301 75 m 2
 373 75 421 152 421 213 c 2
 421 353 l 2
 421 397 382 452 339 452 c 2
 276 452 l 2
 211 452 158 385 158 321 c 2
 158 176 l 2
 158 129 194 75 240 75 c 2
 301 75 l 2
EndSplineSet
EndChar

StartChar: q
Encoding: 113 113 82
Width: 580
VWidth: 1507
Flags: W
HStem: -185 21G<413 525> -8 83<185.643 328.276> 451 86<211.926 378.113>
VStem: 41 111<110.024 388.685> 413 112<-185 32 138.727 413.921 516 529>
LayerCount: 2
Fore
SplineSet
332 537 m 2
 372 537 400 525 413 516 c 1
 413 529 l 1
 525 529 l 1
 525 -185 l 1
 413 -185 l 1
 413 32 l 1
 352 -8 307 -8 295 -8 c 2
 234 -8 l 2
 126 -8 41 78 41 176 c 2
 41 315 l 2
 41 431 141 537 270 537 c 2
 332 537 l 2
295 75 m 2
 357 75 410 140 413 208 c 2
 413 357 l 2
 409 402 374 451 332 451 c 2
 270 451 l 2
 210 451 152 393 152 315 c 2
 152 176 l 2
 152 133 183 75 234 75 c 2
 295 75 l 2
EndSplineSet
EndChar

StartChar: r
Encoding: 114 114 83
Width: 385
VWidth: 1507
Flags: W
HStem: 0 21G<47 158> 452 85<218.057 360>
VStem: 47 111<0 386.186 499 529>
LayerCount: 2
Fore
SplineSet
276 452 m 2
 207 452 158 372 158 315 c 2
 158 0 l 1
 47 0 l 1
 47 529 l 1
 158 529 l 1
 158 499 l 1
 185 517 233 537 276 537 c 2
 360 537 l 1
 360 452 l 1
 276 452 l 2
EndSplineSet
EndChar

StartChar: s
Encoding: 115 115 84
Width: 622
VWidth: 1507
Flags: W
HStem: -8 83<184.361 437.579> 452 85<209.83 426.036>
VStem: 42 110<107.029 173> 66 112<336.207 422.651> 461 110<354 416.15> 475 110<105.652 206.729>
LayerCount: 2
Fore
SplineSet
378 75 m 2xe4
 400 75 475 96 475 151 c 0xe4
 475 212 440 216 424 217 c 2
 205 243 l 2
 79 260 66 330 66 377 c 0
 66 471 167 537 273 537 c 2
 378 537 l 2
 484 537 571 464 571 354 c 1
 461 354 l 1
 461 406 424 452 378 452 c 2
 273 452 l 2
 237 452 178 426 178 378 c 0xd8
 178 336 215 328 228 326 c 2
 446 301 l 2
 487 296 585 271 585 152 c 0
 585 56 487 -8 378 -8 c 2
 234 -8 l 2
 123 -8 42 74 42 173 c 1
 152 173 l 1
 152 121 185 75 234 75 c 2
 378 75 l 2xe4
EndSplineSet
EndChar

StartChar: t
Encoding: 116 116 85
Width: 354
VWidth: 1507
Flags: W
HStem: 0 21G<121 232> 452 77<21 121 232 329>
VStem: 121 111<0 452 529 730>
LayerCount: 2
Fore
SplineSet
121 452 m 1
 21 452 l 1
 21 529 l 1
 121 529 l 1
 121 730 l 1
 232 730 l 1
 232 529 l 1
 329 529 l 1
 329 452 l 1
 232 452 l 1
 232 0 l 1
 121 0 l 1
 121 452 l 1
EndSplineSet
EndChar

StartChar: u
Encoding: 117 117 86
Width: 584
VWidth: 1507
Flags: W
HStem: -8 83<187.625 330.656> 509 20G<47 158 419 529>
VStem: 47 111<104.354 529> 419 110<0 32 135.045 188 188 529>
LayerCount: 2
Fore
SplineSet
235 -8 m 2
 130 -8 47 74 47 176 c 2
 47 529 l 1
 158 529 l 1
 158 173 l 2
 158 130 184 75 235 75 c 2
 297 75 l 2
 359 75 410 133 419 188 c 1
 419 529 l 1
 529 529 l 1
 529 0 l 1
 419 0 l 1
 419 32 l 1
 367 -2 321 -8 297 -8 c 2
 235 -8 l 2
EndSplineSet
EndChar

StartChar: v
Encoding: 118 118 87
Width: 572
VWidth: 1507
Flags: W
HStem: -8 21G<331 343.858> 509 20G<18 138.641 425.154 547>
LayerCount: 2
Fore
SplineSet
336 -8 m 1
 326 -8 228 -8 199 54 c 2
 18 529 l 1
 131 529 l 1
 280 139 l 1
 433 529 l 1
 547 529 l 1
 336 -8 l 1
EndSplineSet
EndChar

StartChar: w
Encoding: 119 119 88
Width: 911
VWidth: 1507
Flags: W
HStem: -8 21G<310 324.5 577.732 589.5> 509 20<20 143.09 397.075 429.5 755.891 876>
LayerCount: 2
Fore
SplineSet
448 369 m 1
 380 181 l 2
 357 118 335 55 314 -8 c 1
 306 -8 228 -7 207 41 c 2
 20 529 l 1
 136 529 l 1
 270 151 l 1
 404 538 l 1
 455 538 499 522 514 487 c 2
 629 152 l 1
 763 529 l 1
 876 529 l 1
 693 41 l 2
 673 -7 594 -8 585 -8 c 1
 448 369 l 1
EndSplineSet
EndChar

StartChar: x
Encoding: 120 120 89
Width: 610
VWidth: 1507
Flags: W
HStem: 0 21G<2 150.6 450.3 601> 509 20G<32 177.069 423.815 570>
LayerCount: 2
Fore
SplineSet
440 529 m 1
 570 529 l 1
 369 279 l 1
 601 0 l 1
 467 0 l 1
 300 200 l 1
 134 0 l 1
 2 0 l 1
 231 279 l 1
 32 529 l 1
 161 529 l 1
 300 356 l 1
 440 529 l 1
EndSplineSet
EndChar

StartChar: y
Encoding: 121 121 90
Width: 586
VWidth: 1507
Flags: W
HStem: -184 78<197.916 366.303> 29 86<189.685 361.903> 509 20G<47 158 419 529>
VStem: 47 111<145.438 529> 419 110<-58.0299 68 171.773 529>
LayerCount: 2
Fore
SplineSet
529 3 m 2
 529 -103 399 -184 297 -184 c 2
 235 -184 l 2
 144 -184 74 -125 47 -51 c 1
 169 -51 l 1
 180 -71 208 -106 240 -106 c 2
 301 -106 l 2
 362 -106 419 -59 419 3 c 2
 419 68 l 1
 388 48 346 29 297 29 c 2
 235 29 l 2
 122 29 47 120 47 214 c 2
 47 529 l 1
 158 529 l 1
 158 213 l 2
 158 169 184 115 235 115 c 2
 297 115 l 2
 357 115 410 167 419 226 c 1
 419 529 l 1
 529 529 l 1
 529 3 l 2
EndSplineSet
EndChar

StartChar: z
Encoding: 122 122 91
Width: 613
VWidth: 1507
Flags: W
HStem: 0 75<225 553> 452 77<57 378>
LayerCount: 2
Fore
SplineSet
553 0 m 1
 32 0 l 1
 378 452 l 1
 57 452 l 1
 57 529 l 1
 574 529 l 1
 225 75 l 1
 553 75 l 1
 553 0 l 1
EndSplineSet
EndChar

StartChar: braceleft
Encoding: 123 123 92
Width: 468
VWidth: 1507
Flags: W
HStem: -213 80<317.399 404> 265 24<39 91.2247> 736 80<318.821 404>
VStem: 172 107<-121.272 187.101 363.389 721.893>
LayerCount: 2
Fore
SplineSet
347 736 m 2
 319 736 279 727 279 687 c 2
 279 427 l 2
 279 388 269 356 250 330 c 0
 230 304 210 285 190 274 c 1
 209 260 229 240 249 216 c 0
 269 190 279 162 279 130 c 2
 279 -87 l 2
 279 -125 319 -133 347 -133 c 2
 404 -133 l 1
 404 -213 l 1
 347 -213 l 2
 273 -213 172 -189 172 -92 c 2
 172 130 l 2
 172 189 84 265 39 265 c 1
 39 289 l 1
 81 289 172 349 172 427 c 2
 172 692 l 2
 172 791 272 816 347 816 c 2
 404 816 l 1
 404 736 l 1
 347 736 l 2
EndSplineSet
EndChar

StartChar: bar
Encoding: 124 124 93
Width: 277
VWidth: 1507
Flags: W
VStem: 83 108<-149 879>
LayerCount: 2
Fore
SplineSet
83 879 m 1
 191 879 l 1
 191 -149 l 1
 83 -149 l 1
 83 879 l 1
EndSplineSet
EndChar

StartChar: braceright
Encoding: 125 125 94
Width: 468
VWidth: 1507
Flags: W
HStem: -213 80<56 171.297> 265 24<369.775 422> 736 80<56 141.521>
VStem: 182 107<-121.272 187.455 363.389 721.893>
LayerCount: 2
Fore
SplineSet
270 276 m 1
 251 287 182 336 182 427 c 2
 182 687 l 2
 182 729 138 736 113 736 c 2
 56 736 l 1
 56 816 l 1
 113 816 l 2
 187 816 289 791 289 692 c 2
 289 427 l 2
 289 349 380 289 422 289 c 1
 422 265 l 1
 377 265 289 189 289 130 c 2
 289 -92 l 2
 289 -189 186 -213 113 -213 c 2
 56 -213 l 1
 56 -133 l 1
 113 -133 l 2
 143 -133 182 -124 182 -87 c 2
 182 130 l 2
 182 201 240 252 270 276 c 1
EndSplineSet
EndChar

StartChar: asciitilde
Encoding: 126 126 95
Width: 639
VWidth: 1507
Flags: MW
HStem: 256 91<375.644 470.035> 381 91<166.117 249.273>
VStem: 36 95<267 337.534> 506 95<390.837 461>
LayerCount: 2
Fore
SplineSet
36 267 m 1
 36 406 143 472 205 472 c 0
 338 472 342 347 433 347 c 0
 462 347 496 388 506 461 c 1
 601 461 l 1
 601 323 500 256 433 256 c 0
 280 256 271 381 205 381 c 0
 165 381 138 323 131 267 c 1
 36 267 l 1
EndSplineSet
EndChar

StartChar: quotedbl
Encoding: 34 34 97
Width: 385
VWidth: 1507
Flags: W
HStem: 535 241<45 160 219 333>
VStem: 45 115<535 776> 219 114<535 776>
LayerCount: 2
Fore
SplineSet
45 776 m 1
 160 776 l 1
 160 535 l 1
 45 535 l 1
 45 776 l 1
219 776 m 1
 333 776 l 1
 333 535 l 1
 219 535 l 1
 219 776 l 1
EndSplineSet
EndChar

StartChar: exclam
Encoding: 33 33 98
Width: 304
VWidth: 1507
Flags: W
HStem: -2 118<105.373 204.934>
VStem: 92 127<12.4814 101.519> 99 111<163 733>
LayerCount: 2
Fore
SplineSet
99 733 m 1xa0
 210 733 l 1
 210 163 l 1
 99 163 l 1
 99 733 l 1xa0
155 116 m 256
 120 116 92 92 92 57 c 256
 92 22 120 -2 155 -2 c 256
 189 -2 219 22 219 57 c 256xc0
 219 92 190 116 155 116 c 256
EndSplineSet
EndChar

StartChar: cent
Encoding: 162 162 101
Width: 625
VWidth: 1507
Flags: W
HStem: 555 80<241.962 261 372 410.965>
VStem: 74 111<216.324 280 280 493.266> 261 111<-21 95 638 757> 448 110<229.192 306 457 518.996>
LayerCount: 2
Fore
SplineSet
185 280 m 2
 185 236 222 178 267 178 c 2
 348 178 l 2
 379 178 448 215 448 306 c 1
 558 306 l 1
 558 184 460 117 372 98 c 1
 372 -21 l 1
 261 -21 l 1
 261 95 l 1
 151 98 74 187 74 280 c 2
 74 418 l 2
 74 532 158 620 261 635 c 1
 261 757 l 1
 372 757 l 1
 372 638 l 1
 521 630 556 514 556 457 c 1
 446 457 l 1
 446 510 411 555 365 555 c 2
 283 555 l 1
 237 542 185 489 185 418 c 2
 185 280 l 2
EndSplineSet
EndChar

StartChar: sterling
Encoding: 163 163 102
Width: 625
VWidth: 1507
Flags: W
HStem: 0 83<62 138.57 276 580> 311 90<59 194 323 510> 648 91<352.895 448.168>
VStem: 188 109<429.493 589.645> 229 110<156.335 262.563>
LayerCount: 2
Fore
SplineSet
297 519 m 0xf0
 297 464 297 441 306 401 c 1
 510 401 l 1
 510 311 l 1
 323 311 l 1
 329 276 334 241 339 207 c 1
 339 157 302 107 276 83 c 1
 580 83 l 1
 580 0 l 1
 62 0 l 1
 62 83 l 1
 116 83 229 139 229 207 c 0xe8
 229 208 229 211 228 216 c 2
 211 311 l 1
 59 311 l 1
 59 401 l 1
 194 401 l 1
 189 448 188 472 188 519 c 0
 188 628 286 739 418 739 c 0
 473 739 523 711 555 683 c 1
 487 603 l 1
 458 636 432 648 418 648 c 0
 345 648 297 581 297 519 c 0xf0
EndSplineSet
EndChar

StartChar: currency
Encoding: 164 164 103
Width: 791
VWidth: 1507
Flags: W
HStem: 66 88<298.499 478.184> 556 88<300.33 473.272>
VStem: 80 111<263.981 440.129> 586 112<264.263 442.176>
LayerCount: 2
Fore
SplineSet
389 66 m 0
 337 66 266 77 213 119 c 1
 146 54 l 1
 77 121 l 1
 139 184 l 1
 96 237 80 303 80 354 c 0
 80 458 128 515 139 528 c 1
 77 589 l 1
 146 657 l 1
 214 592 l 1
 264 627 323 644 390 644 c 0
 455 644 514 626 567 591 c 1
 636 657 l 1
 704 589 l 1
 639 526 l 1
 653 510 698 457 698 354 c 256
 698 286 670 226 639 185 c 1
 704 121 l 1
 635 54 l 1
 568 119 l 1
 524 88 460 66 389 66 c 0
586 354 m 256
 586 465 492 556 389 556 c 0
 261 556 191 440 191 354 c 0
 191 255 269 154 389 154 c 256
 509 154 586 255 586 354 c 256
EndSplineSet
EndChar

StartChar: yen
Encoding: 165 165 104
Width: 625
VWidth: 1507
Flags: W
HStem: 0 21G<241 351> 259 88<72 241 351 523>
VStem: 241 110<0 259 347 362>
LayerCount: 2
Fore
SplineSet
241 259 m 1
 72 259 l 1
 72 347 l 1
 241 347 l 1
 241 362 l 1
 -12 730 l 1
 110 730 l 1
 295 452 l 1
 484 730 l 1
 604 730 l 1
 351 363 l 1
 351 347 l 1
 523 347 l 1
 523 259 l 1
 351 259 l 1
 351 0 l 1
 241 0 l 1
 241 259 l 1
EndSplineSet
EndChar

StartChar: brokenbar
Encoding: 166 166 105
Width: 266
VWidth: 1507
Flags: W
HStem: 440 439<83 191 83 191 83 83>
VStem: 83 108<-149 329 440 879>
LayerCount: 2
Fore
SplineSet
83 440 m 1
 83 879 l 1
 191 879 l 1
 191 440 l 1
 83 440 l 1
191 329 m 1
 191 -149 l 1
 83 -149 l 1
 83 329 l 1
 191 329 l 1
EndSplineSet
EndChar

StartChar: section
Encoding: 167 167 106
Width: 652
VWidth: 1507
Flags: W
HStem: -53 83<178.694 433.023> 677 83<235.606 449.453>
VStem: 36 109<64.9504 128> 60 110<344.403 425.123> 90 109<566.635 645.657> 469 110<63.08 155.272> 484 111<579 642.91> 499 110<286.02 375.96>
LayerCount: 2
Fore
SplineSet
142 505 m 1xd4
 118 521 90 541 90 600 c 0
 90 691 186 760 295 760 c 2
 402 760 l 2
 521 760 595 673 595 579 c 1
 484 579 l 1xca
 484 631 448 677 402 677 c 2
 295 677 l 2
 263 677 199 650 199 601 c 0
 199 580 223 561 253 549 c 2
 473 476 l 2
 597 439 609 369 609 327 c 0xc9
 609 275 584 235 535 207 c 1
 559 183 579 151 579 107 c 0
 579 11 482 -53 374 -53 c 2
 228 -53 l 2
 118 -53 36 26 36 128 c 1
 145 128 l 1xe4
 145 76 182 30 228 30 c 2
 374 30 l 2
 395 30 469 53 469 106 c 0
 469 146 448 160 416 172 c 2
 194 246 l 2
 133 265 60 298 60 380 c 0
 60 441 102 481 142 505 c 1xd4
434 258 m 1
 451 265 499 291 499 326 c 0
 499 366 477 382 445 393 c 2
 256 455 l 1
 224 447 170 429 170 381 c 0xd1
 170 348 202 336 225 329 c 2
 434 258 l 1
EndSplineSet
EndChar

StartChar: dieresis
Encoding: 168 168 107
Width: 384
VWidth: 1507
Flags: W
HStem: 598 129<20.094 133.906 241.768 353.999>
VStem: 2 150<615.875 709.25> 223 149<616.956 707.795>
LayerCount: 2
Fore
SplineSet
77 598 m 256
 34 598 2 624 2 663 c 0
 2 701 35 727 77 727 c 256
 119 727 152 701 152 663 c 0
 152 624 120 598 77 598 c 256
298 598 m 256
 258 598 223 624 223 663 c 0
 223 700 257 727 298 727 c 256
 339 727 372 701 372 663 c 0
 372 624 339 598 298 598 c 256
EndSplineSet
EndChar

StartChar: copyright
Encoding: 169 169 108
Width: 792
VWidth: 1507
Flags: W
HStem: 23 76<293.473 492.889> 175 74<325.877 446.274> 491 73<338.073 453.846> 630 77<291.506 492.638>
VStem: 38 95<257.698 466.694> 214 97<291.135 464.859> 469 98<269.893 332 430 479.956> 654 95<258.296 467.52>
LayerCount: 2
Fore
SplineSet
38 363 m 0
 38 539 188 707 393 707 c 0
 594 707 749 540 749 363 c 0
 749 186 599 23 393 23 c 0
 186 23 38 184 38 363 c 0
654 363 m 0
 654 510 534 630 393 630 c 0
 246 630 133 507 133 363 c 0
 133 212 257 99 393 99 c 256
 531 99 654 213 654 363 c 0
214 404 m 2
 214 489 287 564 380 564 c 2
 424 564 l 2
 507 564 564 506 564 430 c 1
 466 430 l 1
 466 461 448 491 422 491 c 2
 380 491 l 2
 340 491 311 446 311 401 c 2
 311 312 l 2
 311 292 324 249 356 249 c 2
 398 249 l 2
 427 249 469 267 469 332 c 1
 567 332 l 1
 567 227 486 175 398 175 c 2
 354 175 l 2
 277 175 214 236 214 308 c 2
 214 404 l 2
EndSplineSet
EndChar

StartChar: logicalnot
Encoding: 172 172 111
Width: 700
VWidth: 1507
Flags: MW
HStem: 366 91<36 540>
VStem: 540 111<139 366>
LayerCount: 2
Fore
SplineSet
540 139 m 1
 540 366 l 1
 36 366 l 1
 36 457 l 1
 651 457 l 1
 651 139 l 1
 540 139 l 1
EndSplineSet
EndChar

StartChar: registered
Encoding: 174 174 112
Width: 601
VWidth: 1507
Flags: W
HStem: 240 55<214.906 383.119> 579 47<262 346.527> 699 59<214.244 384.193>
VStem: 26 77<409.705 583.626> 193 74<377 481 531 579> 348 65<534.028 572.993> 497 74<406.981 587.65>
LayerCount: 2
Fore
SplineSet
26 497 m 0
 26 632 146 758 298 758 c 0
 444 758 571 643 571 497 c 256
 571 363 454 240 298 240 c 256
 148 240 26 360 26 497 c 0
497 497 m 256
 497 616 399 699 298 699 c 0
 177 699 103 588 103 497 c 0
 103 384 198 295 298 295 c 256
 400 295 497 382 497 497 c 256
413 550 m 0
 413 524 395 492 357 485 c 1
 357 484 358 483 359 482 c 2
 433 377 l 1
 351 377 l 1
 288 469 l 2
 282 477 277 481 274 481 c 2
 267 481 l 1
 267 377 l 1
 193 377 l 1
 193 626 l 1
 333 626 l 2
 383 626 413 588 413 550 c 0
348 552 m 0
 348 563 342 579 333 579 c 2
 262 579 l 1
 262 531 l 1
 333 531 l 2
 343 531 348 538 348 552 c 0
EndSplineSet
EndChar

StartChar: macron
Encoding: 175 175 113
Width: 393
VWidth: 1507
Flags: W
HStem: 629 82<33 353 33 353 33 33>
LayerCount: 2
Fore
SplineSet
33 629 m 1
 33 711 l 1
 353 711 l 1
 353 629 l 1
 33 629 l 1
EndSplineSet
EndChar

StartChar: degree
Encoding: 176 176 114
Width: 360
VWidth: 1507
Flags: W
HStem: 478 68<129.775 225.85> 695 69<129.965 225.754>
VStem: 21 88<567.503 675.542> 247 88<567.805 674.172>
LayerCount: 2
Fore
SplineSet
176 478 m 0
 89 478 21 541 21 621 c 0
 21 695 84 764 176 764 c 0
 277 764 335 686 335 621 c 0
 335 548 271 478 176 478 c 0
176 695 m 0
 139 695 109 664 109 621 c 0
 109 580 140 546 176 546 c 0
 214 546 247 579 247 621 c 0
 247 665 215 695 176 695 c 0
EndSplineSet
EndChar

StartChar: plusminus
Encoding: 177 177 115
Width: 700
VWidth: 1507
Flags: W
HStem: 6 83<86 603> 332 86<86 292 396 603>
VStem: 292 104<134 332 418 617>
LayerCount: 2
Fore
SplineSet
396 332 m 1
 396 134 l 1
 292 134 l 1
 292 332 l 1
 86 332 l 1
 86 418 l 1
 292 418 l 1
 292 617 l 1
 396 617 l 1
 396 418 l 1
 603 418 l 1
 603 332 l 1
 396 332 l 1
86 6 m 1
 86 89 l 1
 603 89 l 1
 603 6 l 1
 86 6 l 1
EndSplineSet
EndChar

StartChar: twosuperior
Encoding: 178 178 116
Width: 429
VWidth: 1507
Flags: W
HStem: 285 68<124 375> 684 67<149.434 270.933>
VStem: 285 83<584.929 669.495>
LayerCount: 2
Fore
SplineSet
42 669 m 1
 83 719 140 751 205 751 c 2
 219 751 l 2
 312 751 368 704 368 617 c 0
 368 568 352 543 304 508 c 2
 152 399 l 2
 142 393 126 382 124 353 c 1
 375 353 l 1
 375 285 l 1
 36 285 l 1
 36 342 l 2
 36 364 40 409 93 451 c 2
 268 576 l 2
 279 584 285 601 285 617 c 0
 285 647 272 684 220 684 c 2
 205 684 l 2
 165 684 128 649 106 623 c 1
 42 669 l 1
EndSplineSet
EndChar

StartChar: threesuperior
Encoding: 179 179 117
Width: 406
VWidth: 1507
Flags: W
HStem: 282 66<147.197 248.455> 513 66<124 245.356> 683 68<124.875 249.553>
VStem: 265 85<581.626 669.521> 288 84<387.538 496.64>
LayerCount: 2
Fore
SplineSet
288 448 m 0xe8
 288 477 264 513 228 513 c 2
 124 513 l 1
 124 579 l 1
 231 579 l 2
 244 580 265 586 265 615 c 0
 265 660 243 683 200 683 c 2
 184 683 l 2
 142 683 102 646 83 624 c 1
 23 669 l 1
 57 712 111 751 184 751 c 2
 200 751 l 2
 319 751 350 677 350 615 c 0xf0
 350 590 342 568 326 549 c 1
 352 525 372 488 372 448 c 0
 372 338 284 282 187 282 c 0
 137 282 77 292 11 372 c 1
 72 422 l 1
 127 357 165 348 188 348 c 0
 240 348 288 391 288 448 c 0xe8
EndSplineSet
EndChar

StartChar: acute
Encoding: 180 180 118
Width: 189
VWidth: 1507
Flags: W
HStem: 558 188<83 96 96 96>
LayerCount: 2
Fore
SplineSet
96 746 m 1
 211 746 l 1
 83 558 l 1
 -33 558 l 1
 96 746 l 1
EndSplineSet
EndChar

StartChar: mu
Encoding: 181 181 119
AltUni2: 0003bc.ffffffff.0
Width: 592
VWidth: 1507
Flags: W
HStem: -184 21G<47 158> -8 83<186.738 330.656> 509 20G<47 158 419 529>
VStem: 47 111<-184 9 104.354 529> 419 110<0 32 135.045 188 188 529>
LayerCount: 2
Fore
SplineSet
235 -8 m 2
 204 -8 172 3 158 9 c 1
 158 -184 l 1
 47 -184 l 1
 47 529 l 1
 158 529 l 1
 158 173 l 2
 158 130 184 75 235 75 c 2
 297 75 l 2
 359 75 410 133 419 188 c 1
 419 529 l 1
 529 529 l 1
 529 0 l 1
 419 0 l 1
 419 32 l 1
 367 -2 321 -8 297 -8 c 2
 235 -8 l 2
EndSplineSet
EndChar

StartChar: paragraph
Encoding: 182 182 120
Width: 672
VWidth: 1507
Flags: W
HStem: 642 91<472 544>
VStem: 39 433<407.697 600.381> 371 101<-59 280> 544 103<-59 642>
LayerCount: 2
Fore
SplineSet
39 503 m 256xd0
 39 626 138 730 252 730 c 2
 647 733 l 1
 647 -59 l 1
 544 -59 l 1
 544 642 l 1
 472 642 l 1
 472 -59 l 1
 371 -59 l 1
 371 280 l 1xb0
 252 280 l 2
 139 280 39 383 39 503 c 256xd0
EndSplineSet
EndChar

StartChar: periodcentered
Encoding: 183 183 121
Width: 382
VWidth: 1507
Flags: W
HStem: 268 174<120.966 255.431>
VStem: 90 196<297.841 411.388>
LayerCount: 2
Fore
SplineSet
188 268 m 256
 131 268 90 303 90 354 c 256
 90 406 131 442 188 442 c 256
 246 442 286 407 286 354 c 256
 286 303 246 268 188 268 c 256
EndSplineSet
EndChar

StartChar: cedilla
Encoding: 184 184 122
Width: 345
VWidth: 1507
Flags: W
HStem: -191 51<125.635 181.97>
VStem: 42 74<-131.562 -80> 107 98<-30.8628 29> 197 85<-138.119 -84.7625>
LayerCount: 2
Fore
SplineSet
163 -140 m 0xd0
 177 -140 197 -135 197 -116 c 0xd0
 197 -65 107 -86 107 -9 c 2
 107 29 l 1
 205 29 l 1
 205 -5 l 2xa0
 205 -34 282 -43 282 -107 c 0
 282 -139 270 -161 246 -173 c 0
 223 -185 195 -191 163 -191 c 2
 149 -191 l 2
 125 -191 91 -176 72 -160 c 0
 52 -142 42 -116 42 -80 c 1
 116 -80 l 1
 116 -120 138 -140 163 -140 c 0xd0
EndSplineSet
EndChar

StartChar: onesuperior
Encoding: 185 185 123
Width: 360
VWidth: 1507
Flags: MW
HStem: 571 67<50 112.332>
VStem: 149 82<285 586 674.389 730 285 730 285 285>
LayerCount: 2
Fore
SplineSet
50 638 m 1
 105 638 148 682 149 730 c 1
 231 730 l 1
 231 285 l 1
 149 285 l 1
 149 586 l 1
 125 576 92 571 50 571 c 1
 50 638 l 1
EndSplineSet
EndChar

StartChar: onequarter
Encoding: 188 188 126
Width: 889
VWidth: 1507
Flags: W
HStem: 574 67<27 88.4158> 734 20G<538.486 659>
VStem: 125 83<677.389 733>
LayerCount: 2
Fore
SplineSet
751 12 m 1
 751 96 l 1
 806 96 l 1
 806 163 l 1
 751 163 l 1
 751 457 l 1
 677 457 l 1
 461 154 l 1
 461 115 482 96 523 96 c 2
 669 96 l 1
 669 12 l 1
 751 12 l 1
669 163 m 1
 565 163 l 1
 669 308 l 1
 669 163 l 1
125 733 m 1
 124 685 82 641 27 641 c 1
 27 574 l 1
 68 574 101 579 125 589 c 1
 125 288 l 1
 208 288 l 1
 208 733 l 1
 125 733 l 1
140 -24 m 1
 549 754 l 1
 659 754 l 1
 253 -24 l 1
 140 -24 l 1
EndSplineSet
LCarets2: 2 0 0 
Ligature2: "'frac' Diagonal Fractions in Latin lookup 0 subtable" one fraction four
Ligature2: "'frac' Diagonal Fractions in Latin lookup 0 subtable" one slash four
EndChar

StartChar: onehalf
Encoding: 189 189 127
Width: 889
VWidth: 1507
Flags: W
HStem: 12 65<600 843> 393 65<656.379 742.397> 574 67<27 88.4158> 734 20G<524.512 645>
VStem: 125 83<677.389 733> 754 81<304.638 382.024>
LayerCount: 2
Fore
SplineSet
522 380 m 1
 554 418 609 458 678 458 c 2
 690 458 l 2
 806 458 835 388 835 329 c 0
 835 302 830 266 775 225 c 2
 627 119 l 2
 612 108 603 94 600 77 c 1
 843 77 l 1
 843 12 l 1
 516 12 l 1
 516 65 l 2
 516 114 541 148 570 170 c 2
 737 289 l 2
 749 297 754 317 754 329 c 0
 754 372 733 393 692 393 c 2
 678 393 l 2
 659 393 627 385 582 336 c 1
 522 380 l 1
125 733 m 1
 124 685 82 641 27 641 c 1
 27 574 l 1
 68 574 101 579 125 589 c 1
 125 288 l 1
 208 288 l 1
 208 733 l 1
 125 733 l 1
127 -24 m 1
 535 754 l 1
 645 754 l 1
 240 -24 l 1
 127 -24 l 1
EndSplineSet
LCarets2: 2 0 0 
Ligature2: "'frac' Diagonal Fractions in Latin lookup 0 subtable" one fraction two
Ligature2: "'frac' Diagonal Fractions in Latin lookup 0 subtable" one slash two
EndChar

StartChar: threequarters
Encoding: 190 190 128
Width: 889
VWidth: 1507
Flags: W
HStem: 96 67<639 743 825 880> 283 67<167.08 269.552> 514 68<145 282.486> 686 68<147.552 272.147>
VStem: 285 86<584.388 673.281> 309 84<389.149 488.154> 743 82<12 96 163 308>
LayerCount: 2
Fore
SplineSet
309 449 m 0xf6
 309 485 282 514 249 514 c 2
 145 514 l 1
 145 582 l 1
 252 582 l 2
 274 584 285 596 285 618 c 0
 285 663 263 686 220 686 c 2
 205 686 l 2
 161 686 122 647 103 626 c 1
 42 672 l 1
 76 715 132 754 205 754 c 2
 220 754 l 2
 313 754 371 705 371 618 c 0xfa
 371 592 363 569 347 550 c 1
 392 507 393 459 393 449 c 0
 393 339 305 283 208 283 c 0
 156 283 99 294 30 374 c 1
 92 424 l 1
 154 356 186 350 210 350 c 0
 261 350 309 394 309 449 c 0xf6
743 12 m 1
 743 96 l 1
 597 96 l 2
 556 96 535 115 535 154 c 1
 751 457 l 1
 825 457 l 1
 825 163 l 1
 880 163 l 1
 880 96 l 1
 825 96 l 1
 825 12 l 1
 743 12 l 1
743 308 m 1
 639 163 l 1
 743 163 l 1
 743 308 l 1
250 -24 m 1
 659 754 l 1
 769 754 l 1
 363 -24 l 1
 250 -24 l 1
EndSplineSet
LCarets2: 2 0 0 
Ligature2: "'frac' Diagonal Fractions in Latin lookup 0 subtable" three fraction four
Ligature2: "'frac' Diagonal Fractions in Latin lookup 0 subtable" three slash four
EndChar

StartChar: Aring
Encoding: 197 197 134
Width: 862
VWidth: 1507
Flags: W
HStem: 0 21G<24 162.5 686.8 817> 200 83<273 565> 847 76<389.081 452.433>
VStem: 289 94<765.441 842.501> 457 95<764.806 842.841>
LayerCount: 2
Fore
SplineSet
552 805 m 0
 552 753 518 720 484 701 c 1
 495 692 501 684 503 678 c 2
 817 0 l 1
 696 0 l 1
 604 200 l 1
 237 200 l 1
 228 180 180 81 145 0 c 1
 24 0 l 1
 350 704 l 1
 320 724 289 760 289 805 c 0
 289 868 344 923 422 923 c 0
 497 923 552 867 552 805 c 0
273 283 m 1
 565 283 l 1
 421 598 l 1
 273 283 l 1
422 847 m 0
 400 847 383 829 383 805 c 0
 383 780 399 761 422 761 c 0
 443 761 457 781 457 805 c 0
 457 828 442 847 422 847 c 0
EndSplineSet
EndChar

StartChar: AE
Encoding: 198 198 135
Width: 1028
VWidth: 1507
Flags: W
HStem: 0 84<615 993> 200 83<261 455> 344 83<555 916> 654 83<481 850>
LayerCount: 2
Fore
SplineSet
481 654 m 1
 501 563 515 518 535 427 c 1
 916 427 l 1
 916 344 l 1
 555 344 l 1
 615 84 l 1
 993 84 l 1
 993 0 l 1
 520 0 l 1
 473 200 l 1
 225 200 l 1
 134 0 l 1
 14 0 l 1
 354 740 l 1
 376 740 l 2
 398 740 396 737 401 737 c 2
 850 737 l 1
 850 654 l 1
 481 654 l 1
261 283 m 1
 455 283 l 1
 386 576 l 1
 261 283 l 1
EndSplineSet
EndChar

StartChar: Ccedilla
Encoding: 199 199 136
Width: 752
VWidth: 1507
Flags: W
HStem: -191 51<362.111 397.74> -15 84<241.756 323> 669 85<282.602 514.357>
VStem: 44 113<161.334 540.689> 258 74<-131.639 -80> 413 84<-138.119 -84.1077> 598 112<184.014 277 500 584.375>
LayerCount: 2
Fore
SplineSet
44 442 m 2
 44 613 192 754 359 754 c 2
 445 754 l 2
 583 754 707 651 707 500 c 1
 595 500 l 1
 595 586 532 669 445 669 c 2
 359 669 l 2
 257 669 157 568 157 442 c 2
 157 244 l 2
 157 159 225 69 306 69 c 2
 395 69 l 2
 509 69 598 166 598 277 c 1
 710 277 l 1
 710 100 565 -2 424 -14 c 1
 438 -39 441 -20 480 -63 c 0
 492 -75 497 -90 497 -107 c 0
 497 -139 485 -161 462 -173 c 0
 439 -185 411 -191 378 -191 c 2
 365 -191 l 2
 270 -179 258 -120 258 -80 c 1
 332 -80 l 1
 332 -134 367 -140 380 -140 c 0
 392 -140 413 -135 413 -116 c 0
 413 -68 326 -80 323 -15 c 1
 306 -15 l 2
 165 -15 44 102 44 244 c 2
 44 442 l 2
EndSplineSet
EndChar

StartChar: Eth
Encoding: 208 208 145
Width: 866
VWidth: 1507
Flags: W
HStem: 0 84<243 565.422> 333 88<60 130 243 505> 654 83<243 604.696>
VStem: 130 113<84 333 421 654> 686 110<208.692 297 297 570.34>
LayerCount: 2
Fore
SplineSet
796 297 m 2
 796 133 653 -0 481 0 c 2
 216 0 l 2
 169 0 130 36 130 77 c 2
 130 333 l 1
 60 333 l 1
 60 421 l 1
 130 421 l 1
 130 737 l 1
 532 737 l 2
 679 737 796 628 796 491 c 2
 796 297 l 2
686 491 m 2
 686 576 623 654 532 654 c 2
 243 654 l 1
 243 421 l 1
 505 421 l 1
 505 333 l 1
 243 333 l 1
 243 84 l 1
 481 84 l 2
 584 84 686 173 686 297 c 2
 686 491 l 2
EndSplineSet
EndChar

StartChar: multiply
Encoding: 215 215 152
Width: 700
VWidth: 1507
Flags: W
HStem: 118 447<510 511 511 511>
VStem: 113 467<181 499 499 499>
LayerCount: 2
Fore
SplineSet
416 339 m 1
 580 181 l 1
 510 118 l 1
 345 274 l 1
 184 118 l 1
 161 140 134 157 115 182 c 1
 276 341 l 1
 257 358 116 496 113 499 c 1
 184 564 l 1
 345 407 l 1
 511 565 l 1
 541 539 553 518 580 500 c 1
 416 339 l 1
EndSplineSet
EndChar

StartChar: Oslash
Encoding: 216 216 153
Width: 780
VWidth: 1507
Flags: W
HStem: -15 84<279.093 474.4> 669 85<285.138 474.297>
VStem: 45 113<215.053 533.219> 600 111<200.733 523.839>
LayerCount: 2
Fore
SplineSet
309 -15 m 2
 265 -15 218 -0 185 15 c 1
 174 1 165 -13 158 -26 c 1
 42 -26 l 1
 113 72 l 1
 79 112 45 176 45 246 c 2
 45 440 l 2
 45 613 194 754 362 754 c 2
 448 754 l 2
 498 754 535 742 573 721 c 1
 601 760 l 1
 713 760 l 1
 644 663 l 1
 689 613 711 556 711 491 c 2
 711 297 l 2
 711 129 569 -15 396 -15 c 2
 309 -15 l 2
362 669 m 2
 257 669 158 562 158 440 c 2
 158 246 l 2
 158 220 168 183 176 164 c 1
 520 644 l 1
 495 661 471 669 448 669 c 2
 362 669 l 2
396 69 m 2
 504 69 600 177 600 297 c 2
 600 491 l 2
 600 518 593 545 580 571 c 1
 238 90 l 1
 260 76 284 69 309 69 c 2
 396 69 l 2
EndSplineSet
EndChar

StartChar: Thorn
Encoding: 222 222 159
Width: 646
VWidth: 1507
Flags: W
HStem: 0 21G<84 196> 166 84<196 391.406> 526 84<196 407.777> 735 20G<84 196>
VStem: 84 112<0 166 250 526 610 755> 476 112<318.618 463.624>
LayerCount: 2
Fore
SplineSet
588 399 m 0
 588 224 437 166 273 166 c 2
 196 166 l 1
 196 0 l 1
 84 0 l 1
 84 755 l 1
 196 755 l 1
 196 610 l 1
 315 610 l 2
 448 610 588 548 588 399 c 0
476 399 m 0
 476 487 390 526 315 526 c 2
 196 526 l 1
 196 250 l 1
 273 250 l 2
 374 250 476 280 476 399 c 0
EndSplineSet
EndChar

StartChar: uni00DF
Encoding: 223 223 160
Width: 657
VWidth: 1507
Flags: W
HStem: -188 21G<60 170> -14 91<325.031 450.862> 660 83<231.26 396.721>
VStem: 60 110<-188 596.23> 320 110<347.917 436.629> 433 111<537 621.688> 484 111<109.832 209.554>
LayerCount: 2
Fore
SplineSet
289 660 m 2xfc
 226 660 170 591 170 523 c 2
 170 -188 l 1
 60 -188 l 1
 60 523 l 2
 60 639 161 743 289 743 c 2
 351 743 l 2
 465 743 544 652 544 558 c 2
 544 482 l 1xfc
 436 443 430 417 430 401 c 0
 430 302 595 294 595 166 c 0
 595 61 512 -14 383 -14 c 0
 330 -14 254 10 213 33 c 1
 255 118 l 1
 314 88 357 77 383 77 c 0
 457 77 484 130 484 163 c 0xfa
 484 243 320 277 320 401 c 256
 320 468 390 515 433 537 c 1
 433 558 l 2
 433 602 396 660 351 660 c 2
 289 660 l 2xfc
EndSplineSet
EndChar

StartChar: ae
Encoding: 230 230 167
Width: 975
VWidth: 1507
Flags: W
HStem: -6 83<185.877 352.555 569.91 742.352> 264 75<218.099 425 535 797> 454 84<190.796 387.766 593.082 761.272>
VStem: 53 111<96.0197 210.591> 425 110<149.559 176 176 264 339 359> 797 112<134.044 210 339 353 353 416.407>
LayerCount: 2
Fore
SplineSet
425 359 m 2
 421 390 393 454 344 454 c 2
 249 454 l 2
 223 454 194 439 161 409 c 1
 103 484 l 1
 142 513 191 538 249 538 c 2
 344 538 l 2
 404 538 459 502 490 469 c 1
 526 503 586 537 654 537 c 2
 716 537 l 2
 828 537 909 445 909 353 c 2
 909 264 l 1
 535 264 l 1
 535 176 l 2
 535 126 576 75 617 75 c 2
 680 75 l 2
 747 75 797 135 797 210 c 1
 909 210 l 1
 909 74 791 -8 680 -8 c 2
 617 -8 l 2
 525 -8 478 47 463 68 c 1
 425 28 364 -6 291 -6 c 2
 228 -6 l 2
 123 -6 53 70 53 152 c 0
 53 261 168 339 280 339 c 2
 425 339 l 1
 425 359 l 2
291 77 m 2
 354 77 416 136 425 211 c 2
 425 264 l 1
 280 264 l 2
 228 264 164 210 164 155 c 0
 164 115 189 77 228 77 c 2
 291 77 l 2
797 353 m 2
 797 395 765 452 716 452 c 2
 654 452 l 2
 592 452 543 401 535 339 c 1
 797 339 l 1
 797 353 l 2
EndSplineSet
EndChar

StartChar: ccedilla
Encoding: 231 231 168
Width: 572
VWidth: 1507
Flags: W
HStem: -191 51<270.111 305.74> -8 83<188.382 231 329 361.809> 452 85<211.926 378.036>
VStem: 41 111<112.983 388.685> 166 74<-131.639 -80> 321 84<-138.119 -83.5377> 413 112<127.972 203 354 419.447>
LayerCount: 2
Fore
SplineSet
41 315 m 2
 41 431 141 537 270 537 c 2
 330 537 l 2
 436 537 523 464 523 354 c 1
 412 354 l 1
 412 407 377 452 330 452 c 2
 270 452 l 2
 202 452 152 385 152 315 c 2
 152 176 l 2
 152 133 183 75 234 75 c 2
 295 75 l 2
 358 75 413 123 413 203 c 1
 525 203 l 1
 525 76 430 7 329 -5 c 1
 338 -33 352 -24 388 -63 c 0
 400 -75 405 -90 405 -107 c 0
 405 -139 393 -161 370 -173 c 0
 347 -185 319 -191 286 -191 c 2
 273 -191 l 2
 178 -179 166 -120 166 -80 c 1
 240 -80 l 1
 240 -134 275 -140 288 -140 c 0
 300 -140 321 -135 321 -116 c 0
 321 -65 226 -82 231 -8 c 1
 127 -8 41 75 41 176 c 2
 41 315 l 2
EndSplineSet
EndChar

StartChar: eth
Encoding: 240 240 177
Width: 679
VWidth: 1507
Flags: W
HStem: -14 80<240.049 415.645> 474 79<238.656 368.665>
VStem: 39 103<166.925 365.465> 516 108<172.703 380.221>
LayerCount: 2
Fore
SplineSet
425 672 m 1
 609 518 624 368 624 285 c 0
 624 81 476 -14 326 -14 c 0
 167 -14 39 97 39 262 c 0
 39 449 191 553 330 553 c 0
 364 553 399 548 434 537 c 1
 406 570 370 606 336 633 c 1
 278 601 212 576 151 547 c 1
 118 621 l 1
 255 683 l 1
 216 703 181 718 133 733 c 1
 172 812 l 1
 298 757 317 748 350 727 c 1
 403 747 459 777 506 800 c 1
 543 724 l 1
 425 672 l 1
324 66 m 0
 439 66 516 149 516 277 c 0
 512 389 471 433 410 456 c 0
 374 470 344 474 319 474 c 0
 213 474 142 373 142 264 c 0
 142 125 246 66 324 66 c 0
EndSplineSet
EndChar

StartChar: divide
Encoding: 247 247 184
Width: 700
VWidth: 1507
Flags: W
HStem: 122 128<259.861 372.766> 297 86<48 567> 421 126<258.669 372.766>
VStem: 241 149<140.681 231.044 439.681 529.091>
LayerCount: 2
Fore
SplineSet
48 297 m 1
 48 383 l 1
 567 383 l 1
 567 297 l 1
 48 297 l 1
317 421 m 256
 276 421 241 446 241 484 c 0
 241 523 275 547 317 547 c 256
 358 547 390 523 390 484 c 0
 390 447 359 421 317 421 c 256
317 122 m 256
 276 122 241 147 241 185 c 0
 241 224 275 250 317 250 c 256
 359 250 390 224 390 185 c 0
 390 148 359 122 317 122 c 256
EndSplineSet
EndChar

StartChar: oslash
Encoding: 248 248 185
Width: 589
VWidth: 1507
Flags: W
HStem: -8 83<221.438 359.807> 452 85<217.926 355.875>
VStem: 47 111<169.543 388.685> 421 110<139.735 365.166>
LayerCount: 2
Fore
SplineSet
161 8 m 1
 150 -4 147 -12 137 -24 c 1
 23 -24 l 1
 87 66 l 1
 63 96 47 132 47 176 c 2
 47 315 l 2
 47 431 147 537 276 537 c 2
 339 537 l 2
 369 537 395 531 416 520 c 1
 430 536 430 542 442 553 c 1
 555 553 l 1
 490 463 l 1
 515 433 531 397 531 353 c 2
 531 213 l 2
 531 96 432 -8 301 -8 c 2
 240 -8 l 2
 210 -8 182 -2 161 8 c 1
301 75 m 2
 373 75 421 152 421 213 c 2
 421 353 l 2
 421 359 420 363 419 366 c 1
 216 81 l 1
 223 77 231 75 240 75 c 2
 301 75 l 2
276 452 m 2
 208 452 158 385 158 315 c 2
 158 176 l 2
 158 170 156 168 154 170 c 1
 155 169 156 167 158 163 c 1
 363 446 l 1
 353 450 345 452 339 452 c 2
 276 452 l 2
EndSplineSet
EndChar

StartChar: thorn
Encoding: 254 254 191
Width: 719
VWidth: 1507
Flags: W
HStem: -8 83<267.916 436.074> 452 85<291.282 460.541>
VStem: 124 111<-225 9 110.867 392.331 503 730> 497 110<137.836 353 353 414.667>
LayerCount: 2
Fore
SplineSet
416 537 m 2
 526 537 607 445 607 353 c 2
 607 213 l 2
 607 93 507 -8 378 -8 c 2
 317 -8 l 2
 286 -8 258 0 235 9 c 1
 235 -225 l 1
 124 -225 l 1
 124 730 l 1
 235 730 l 1
 235 503 l 1
 270 526 310 537 354 537 c 2
 416 537 l 2
378 75 m 2
 438 75 497 135 497 213 c 2
 497 353 l 2
 497 400 458 452 416 452 c 2
 354 452 l 2
 286 452 235 383 235 321 c 2
 235 176 l 2
 235 132 268 75 317 75 c 2
 378 75 l 2
EndSplineSet
EndChar

StartChar: Lslash
Encoding: 321 321 193
Width: 716
VWidth: 1507
Flags: W
HStem: 0 84<205 665> 517 20G<291.412 318> 717 20G<92 205>
VStem: 92 113<84 259 452 737>
LayerCount: 2
Fore
SplineSet
8 315 m 1
 92 375 l 1
 92 737 l 1
 205 737 l 1
 205 452 l 1
 318 537 l 1
 318 421 l 1
 205 341 l 1
 205 84 l 1
 665 84 l 1
 665 0 l 1
 92 0 l 1
 92 259 l 1
 8 199 l 1
 8 315 l 1
EndSplineSet
EndChar

StartChar: lslash
Encoding: 322 322 194
Width: 324
VWidth: 1507
Flags: MW
HStem: 0 21G<106 216> 515 20G<269.238 294>
VStem: 106 110<0 259 472 730>
LayerCount: 2
Fore
SplineSet
23 314 m 1
 106 381 l 1
 106 730 l 1
 216 730 l 1
 216 472 l 1
 294 535 l 1
 294 412 l 1
 216 350 l 1
 216 0 l 1
 106 0 l 1
 106 259 l 1
 27 196 l 1
 23 314 l 1
EndSplineSet
EndChar

StartChar: OE
Encoding: 338 338 195
Width: 1214
VWidth: 1507
Flags: W
HStem: 0 92<238.557 495.523 648 1144> 338 90<648 1067> 647 90<279.397 480.625 648 1144>
VStem: 50 111<168.34 529.051> 537 111<143 338 428 621>
LayerCount: 2
Fore
SplineSet
50 440 m 2
 50 606 188 737 368 737 c 2
 1144 737 l 1
 1144 647 l 1
 648 647 l 1
 648 428 l 1
 1067 428 l 1
 1067 338 l 1
 648 338 l 1
 648 92 l 1
 1144 92 l 1
 1144 0 l 1
 315 0 l 2
 175 0 50 98 50 246 c 2
 50 440 l 2
161 246 m 2
 161 158 228 92 315 92 c 2
 401 92 l 2
 455 92 499 109 537 143 c 1
 537 621 l 1
 492 647 460 647 452 647 c 2
 368 647 l 2
 254 647 161 556 161 440 c 2
 161 246 l 2
EndSplineSet
EndChar

StartChar: oe
Encoding: 339 339 196
Width: 990
VWidth: 1507
Flags: W
HStem: -8 83<193.56 363.901 564.916 737.756> 264 75<532 794> 452 85<215.537 386.875 585.964 758.272>
VStem: 48 112<113.384 390.687> 422 110<139.735 176 176 264 339 397.413> 794 112<132.129 210 339 353 353 414.667>
CounterMasks: 1 1c
LayerCount: 2
Fore
SplineSet
713 537 m 2
 825 537 906 445 906 353 c 2
 906 264 l 1
 532 264 l 1
 532 176 l 2
 532 132 565 75 614 75 c 2
 677 75 l 2
 740 75 794 130 794 210 c 1
 906 210 l 1
 906 79 798 -8 677 -8 c 2
 614 -8 l 2
 525 -8 478 45 466 59 c 1
 424 20 368 -8 303 -8 c 2
 241 -8 l 2
 136 -8 48 76 48 176 c 2
 48 315 l 2
 48 436 154 537 277 537 c 2
 341 537 l 2
 406 537 456 503 487 467 c 1
 524 507 573 537 651 537 c 2
 713 537 l 2
303 75 m 2
 374 75 422 152 422 213 c 2
 422 353 l 2
 422 402 382 452 341 452 c 2
 277 452 l 2
 210 452 160 384 160 315 c 2
 160 176 l 2
 160 130 195 75 241 75 c 2
 303 75 l 2
794 353 m 2
 794 400 755 452 713 452 c 2
 651 452 l 2
 589 452 540 401 532 339 c 1
 794 339 l 1
 794 353 l 2
EndSplineSet
EndChar

StartChar: florin
Encoding: 402 402 202
Width: 791
VWidth: 1507
Flags: W
HStem: -220 90<44 166.865> 460 69<234 347 463 570> 724 90<608.535 730>
LayerCount: 2
Fore
SplineSet
422 74 m 2
 404 -114 229 -220 36 -220 c 1
 44 -130 l 1
 186 -130 301 -55 312 77 c 2
 347 460 l 1
 231 460 l 1
 234 529 l 1
 353 529 l 1
 379 725 565 814 737 814 c 1
 730 724 l 1
 587 724 482 652 463 529 c 1
 573 529 l 1
 570 460 l 1
 457 460 l 1
 422 74 l 2
EndSplineSet
EndChar

StartChar: circumflex
Encoding: 710 710 203
Width: 512
VWidth: 1507
Flags: W
HStem: 736 197<219 449 219 219>
VStem: 74 375<736 736 736 736>
LayerCount: 2
Fore
SplineSet
219 933 m 1
 304 933 l 1
 449 736 l 1
 338 736 l 1
 261 844 l 1
 185 736 l 1
 74 736 l 1
 219 933 l 1
EndSplineSet
EndChar

StartChar: caron
Encoding: 711 711 204
Width: 512
VWidth: 1507
Flags: W
HStem: 736 197<74 304 74 74>
VStem: 74 375<933 933 933 933>
LayerCount: 2
Fore
SplineSet
74 933 m 1
 185 933 l 1
 261 825 l 1
 338 933 l 1
 449 933 l 1
 304 736 l 1
 219 736 l 1
 74 933 l 1
EndSplineSet
EndChar

StartChar: breve
Encoding: 728 728 205
Width: 494
VWidth: 1507
Flags: W
HStem: 626 70<189.103 296.309>
VStem: 57 95<737.089 811> 335 95<737.375 811>
LayerCount: 2
Fore
SplineSet
244 696 m 0
 298 696 335 750 335 811 c 1
 430 811 l 1
 430 705 345 626 244 626 c 0
 132 626 57 714 57 811 c 1
 152 811 l 1
 152 750 188 696 244 696 c 0
EndSplineSet
EndChar

StartChar: dotaccent
Encoding: 729 729 206
Width: 266
VWidth: 1507
Flags: W
HStem: 638 128<75.8608 188.662>
VStem: 57 150<656.295 747.044>
LayerCount: 2
Fore
SplineSet
133 638 m 256
 92 638 57 663 57 701 c 0
 57 740 91 766 133 766 c 256
 174 766 207 740 207 701 c 0
 207 663 173 638 133 638 c 256
EndSplineSet
EndChar

StartChar: ring
Encoding: 730 730 207
Width: 459
VWidth: 1507
Flags: W
HStem: 595 73<192.826 259.739> 758 71<193.686 259.055>
VStem: 95 92<672.433 753.373> 265 91<672.645 752.639>
LayerCount: 2
Fore
SplineSet
226 595 m 0
 146 595 95 651 95 711 c 256
 95 774 147 829 226 829 c 0
 299 829 356 777 356 711 c 256
 356 646 299 595 226 595 c 0
226 758 m 256
 204 758 187 737 187 711 c 256
 187 680 209 668 226 668 c 256
 249 668 265 685 265 711 c 256
 265 737 249 758 226 758 c 256
EndSplineSet
EndChar

StartChar: tilde
Encoding: 732 732 209
Width: 318
VWidth: 1507
Flags: MW
HStem: 610 76<196.923 273.343> 710 74<34.4889 97.1203>
VStem: -72 83<618 675.5> 297 84<710.536 778>
LayerCount: 2
Fore
SplineSet
-72 618 m 1
 -72 733 13 784 63 784 c 0
 174 784 177 686 244 686 c 0
 265 686 290 720 297 778 c 1
 381 778 l 1
 381 661 295 610 244 610 c 0
 117 610 110 710 63 710 c 0
 42 710 20 677 11 618 c 1
 -72 618 l 1
EndSplineSet
EndChar

StartChar: uni0E01
Encoding: 3585 3585 212
Width: 645
VWidth: 1507
Flags: W
HStem: 0 21G<99 211 448 556> 531 83<212.307 418.396>
VStem: 99 112<0 368.305> 448 108<0 503.341>
LayerCount: 2
Fore
SplineSet
407 614 m 2
 466 614 556 550 556 452 c 2
 556 0 l 1
 448 0 l 1
 448 452 l 2
 446 476 430 531 357 531 c 2
 282 531 l 2
 198 531 153 456 142 431 c 1
 182 416 211 359 211 320 c 2
 211 0 l 1
 99 0 l 1
 99 320 l 2
 99 355 69 386 32 390 c 1
 43 518 163 614 286 614 c 2
 407 614 l 2
EndSplineSet
EndChar

StartChar: uni0E02
Encoding: 3586 3586 213
Width: 607
VWidth: 1507
Flags: W
HStem: 2 81<363 409.069> 323 52<100.898 186.494> 484 51<152 185.089> 547 67<159.639 243.021>
VStem: 20 69<386.188 472.16> 197 52<385.493 472.805> 250 113<83 348.572> 291 69<343.93 497.62> 436 95<108.877 152 152 614>
LayerCount: 2
Fore
SplineSet
188 614 m 0xfd80
 303 611 360 535 360 437 c 2xfd80
 363 83 l 1
 392 83 436 117 436 152 c 2
 436 614 l 1
 531 614 l 1
 531 163 l 2
 531 86 456 2 363 2 c 2
 338 2 l 2
 290 2 250 37 250 80 c 2
 250 258 l 2xfe80
 250 336 291 356 291 436 c 0
 291 491 241 547 188 547 c 0
 177 547 162 545 152 535 c 1
 217 535 249 475 249 430 c 0
 249 376 211 323 145 323 c 0
 68 323 20 385 20 449 c 0
 20 548 92 614 188 614 c 0xfd80
143 484 m 256
 112 484 89 458 89 430 c 256
 89 398 114 375 143 375 c 256
 173 375 197 397 197 430 c 256
 197 458 175 484 143 484 c 256
EndSplineSet
EndChar

StartChar: uni0E03
Encoding: 3587 3587 214
Width: 625
VWidth: 1507
Flags: W
HStem: 0 83<372 418.733> 308 46<81.9698 168.507> 463 45<107.225 168.154> 594 20G<448 543>
VStem: 6 65<364.944 449.748> 179 46<364.976 452.494> 261 111<83 319.718> 353 65<420.641 513.128> 448 95<110.168 152 152 614>
LayerCount: 2
Fore
SplineSet
348 0 m 2xfe80
 302 0 261 37 261 78 c 2
 261 271 l 2xfe80
 261 317 265 346 292 374 c 2
 320 404 l 2
 337 423 353 458 353 491 c 0
 353 508 348 523 339 534 c 1
 267 469 l 1
 176 546 l 1
 164 545 132 543 107 508 c 1
 127 508 l 2
 164 508 225 470 225 409 c 0
 225 344 181 308 125 308 c 0
 54 308 6 368 6 443 c 0
 6 545 105 617 191 617 c 1
 268 552 l 1
 338 617 l 1
 411 583 418 507 418 473 c 0xfd80
 418 411 372 354 372 286 c 2
 372 83 l 1
 407 86 448 117 448 152 c 2
 448 614 l 1
 543 614 l 1
 543 163 l 2
 543 81 463 0 374 0 c 2
 348 0 l 2xfe80
125 463 m 256
 94 463 71 437 71 409 c 256
 71 377 96 354 125 354 c 256
 155 354 179 376 179 409 c 256
 179 437 157 463 125 463 c 256
EndSplineSet
EndChar

StartChar: uni0E04
Encoding: 3588 3588 215
Width: 687
VWidth: 1507
Flags: W
HStem: 0 21G<75 209.477 494 606> 202 50<303.712 384.139> 360 53<296.13 383.536> 531 83<261.344 470.307>
VStem: 75 112<196 451.834> 395 63<263.431 349.008> 494 112<0 506.872>
LayerCount: 2
Fore
SplineSet
75 383 m 2
 75 497 196 614 318 614 c 2
 430 614 l 2
 529 614 606 549 606 452 c 2
 606 0 l 1
 494 0 l 1
 494 452 l 2
 494 492 464 531 430 531 c 2
 323 531 l 2
 260 531 187 456 187 383 c 2
 187 196 l 1
 226 339 l 2
 241 381 283 413 341 413 c 0
 416 413 458 357 458 306 c 0
 458 245 399 202 341 202 c 0
 317 202 298 206 282 214 c 1
 202 0 l 1
 75 0 l 1
 75 383 l 2
341 360 m 256
 308 360 286 336 286 306 c 256
 286 276 308 252 341 252 c 256
 369 252 395 274 395 306 c 256
 395 338 369 360 341 360 c 256
EndSplineSet
EndChar

StartChar: uni0E05
Encoding: 3589 3589 216
Width: 691
VWidth: 1507
Flags: W
HStem: 0 21G<494 606> 203 50<304.978 383.679> 362 53<297.802 383.14> 595 20G<239.5 307.14 440.391 487.5>
VStem: 75 112<197 458.799> 395 63<264.622 350.853> 494 112<0 515.318>
LayerCount: 2
Fore
SplineSet
341 203 m 0
 323 203 303 206 282 216 c 1
 202 2 l 1
 75 2 l 1
 75 384 l 2
 75 490 191 607 288 615 c 1
 377 522 l 1
 458 614 l 1
 517 608 606 534 606 454 c 2
 606 0 l 1
 494 0 l 1
 494 454 l 2
 494 480 483 513 460 526 c 1
 377 437 l 1
 288 526 l 1
 228 509 187 442 187 384 c 2
 187 197 l 1
 226 341 l 2
 241 383 283 415 341 415 c 0
 416 415 458 359 458 308 c 0
 458 245 398 203 341 203 c 0
341 362 m 256
 309 362 286 337 286 308 c 256
 286 275 312 253 341 253 c 256
 370 253 395 276 395 308 c 256
 395 339 369 362 341 362 c 256
EndSplineSet
EndChar

StartChar: uni0E06
Encoding: 3590 3590 217
Width: 771
VWidth: 1507
Flags: W
HStem: 0 21G<238.5 302.5 555.5 684> 146 101<401.031 508.407> 308 46<83.6503 170.046> 463 45<110.042 169.615> 594 20G<576 684>
VStem: 8 64<364.789 449.94> 143 71<68.5171 175.506> 181 45<365.724 451.938> 265 112<54 146 247 360.285> 354 65<419.724 513.128> 576 108<143 614>
LayerCount: 2
Fore
SplineSet
419 473 m 0xfd60
 419 412 374 357 374 286 c 2
 374 247 l 1
 435 232 504 203 576 143 c 1
 576 614 l 1
 684 614 l 1
 684 0 l 1
 583 0 l 1
 528 78 449 123 377 146 c 1
 377 54 l 1
 348 11 332 -2 273 -2 c 0
 204 -2 143 62 143 122 c 0xfea0
 143 179 202 241 262 241 c 1
 262 271 l 2
 262 322 267 345 293 374 c 2
 321 404 l 2
 338 423 354 458 354 491 c 0
 354 508 350 523 341 534 c 1
 268 469 l 1
 178 546 l 1
 147 543 124 531 109 508 c 1
 128 508 l 2
 166 508 226 469 226 409 c 0
 226 345 182 308 127 308 c 0
 56 308 8 368 8 443 c 0
 8 547 109 617 193 617 c 1
 270 552 l 1
 339 617 l 1
 411 584 419 509 419 473 c 0xfd60
127 463 m 256
 95 463 72 438 72 409 c 256
 72 376 98 354 127 354 c 256
 156 354 181 377 181 409 c 256xfd20
 181 440 155 463 127 463 c 256
265 191 m 1xfea0
 226 182 214 148 214 119 c 0
 214 75 254 51 265 45 c 1
 265 191 l 1xfea0
EndSplineSet
EndChar

StartChar: uni0E07
Encoding: 3591 3591 218
Width: 563
VWidth: 1507
Flags: W
HStem: 0 21G<356 481> 402 50<319.467 367.715> 561 49<319.557 404.825>
VStem: 250 58<462.812 550.554> 369 112<89 402> 416 65<463.264 549.332>
LayerCount: 2
Fore
SplineSet
366 610 m 0xf8
 434 610 481 556 481 510 c 2
 481 0 l 1xf4
 390 0 l 2
 322 0 274 36 244 78 c 2
 18 410 l 1
 143 410 l 1
 347 104 l 2
 351 99 354 95 358 94 c 2
 369 89 l 1
 369 402 l 1
 308 402 250 452 250 508 c 0
 250 565 307 610 366 610 c 0xf8
362 561 m 256
 332 561 308 539 308 506 c 256
 308 478 330 452 362 452 c 256
 393 452 416 478 416 506 c 256
 416 538 391 561 362 561 c 256
EndSplineSet
EndChar

StartChar: uni0E08
Encoding: 3592 3592 219
Width: 628
VWidth: 1507
Flags: W
HStem: 0 21G<274 417.5> 193 50<222.915 273.514> 351 50<223.833 310.432> 531 83<199.78 420.335>
VStem: 155 58<253.077 340.332> 274 112<101 193> 321 65<253.846 339.081> 445 98<120.669 506.637>
LayerCount: 2
Fore
SplineSet
543 157 m 2xfd
 543 79 460 0 375 0 c 2
 274 0 l 1
 274 193 l 1xfd
 221 193 155 236 155 298 c 0
 155 353 210 401 271 401 c 0
 334 401 386 350 386 300 c 2xfb
 386 101 l 1
 397 102 445 113 445 184 c 2
 445 451 l 2
 445 490 413 531 380 531 c 2
 270 531 l 2
 200 531 137 471 112 415 c 1
 26 443 l 1
 48 496 121 610 270 614 c 2
 369 614 l 2
 464 614 543 531 543 451 c 2
 543 157 l 2xfd
267 351 m 256
 235 351 213 327 213 297 c 256
 213 265 237 243 267 243 c 256
 295 243 321 265 321 297 c 256xfb
 321 329 295 351 267 351 c 256
EndSplineSet
EndChar

StartChar: uni0E09
Encoding: 3593 3593 220
Width: 661
VWidth: 1507
Flags: W
HStem: 0 60<485.475 570.188> 128 50<102.108 172.649> 286 50<100.1 188.074> 531 83<187.454 442.181>
VStem: 33 57<189.704 275.149> 199 65<189.264 274.524> 466 111<238 506.483> 582 68<70.955 157.699>
LayerCount: 2
Fore
SplineSet
145 286 m 256
 112 286 90 262 90 232 c 256
 90 203 113 178 145 178 c 256
 176 178 199 204 199 232 c 256
 199 264 173 286 145 286 c 256
522 0 m 0
 438 0 410 59 410 98 c 1
 349 62 323 36 262 0 c 1
 173 0 l 1
 173 131 l 1
 171 130 154 128 152 128 c 0
 98 128 33 170 33 234 c 0
 33 288 88 336 149 336 c 0
 217 336 264 281 264 235 c 2
 264 106 l 1
 347 156 382 191 466 238 c 1
 466 449 l 2
 466 488 439 531 399 531 c 2
 264 531 l 2
 169 531 119 451 106 410 c 1
 18 410 l 1
 31 504 116 614 264 614 c 2
 402 614 l 2
 488 614 577 542 577 449 c 2
 577 222 l 1
 618 206 650 169 650 118 c 0
 650 43 574 0 522 0 c 0
528 169 m 256
 496 169 473 144 473 115 c 256
 473 82 499 60 528 60 c 256
 557 60 582 83 582 115 c 256
 582 146 556 169 528 169 c 256
EndSplineSet
EndChar

StartChar: uni0E0A
Encoding: 3594 3594 221
Width: 621
VWidth: 1507
Flags: W
HStem: 0 83<360 410.558> 323 52<100.898 186.494> 484 51<152 185.089> 547 67<159.639 244.356>
VStem: 20 69<386.188 472.16> 197 52<385.493 472.805> 250 110<83 348.572> 291 69<343.93 413> 436 95<107.717 386> 484 113<563.854 699>
LayerCount: 2
Fore
SplineSet
360 83 m 1xfe
 386 83 436 109 436 154 c 2
 436 377 l 2
 436 384 405 413 360 413 c 1xfd80
 360 83 l 1xfe
20 449 m 0
 20 548 92 614 188 614 c 0
 326 610 352 506 357 473 c 1
 450 515 475 569 484 699 c 1
 597 699 l 1xfd40
 578 578 559 485 467 439 c 1
 490 426 518 406 531 386 c 1
 531 163 l 2
 531 83 457 0 365 0 c 2
 338 0 l 2
 291 0 250 36 250 78 c 2
 250 258 l 2xfe80
 250 336 291 356 291 436 c 0
 291 491 241 547 188 547 c 0
 177 547 162 545 152 535 c 1
 217 535 249 475 249 430 c 0
 249 376 211 323 145 323 c 0
 68 323 20 385 20 449 c 0
143 484 m 256
 112 484 89 458 89 430 c 256
 89 398 114 375 143 375 c 256
 173 375 197 397 197 430 c 256
 197 458 175 484 143 484 c 256
EndSplineSet
EndChar

StartChar: uni0E0B
Encoding: 3595 3595 222
Width: 622
VWidth: 1507
Flags: W
HStem: 0 83<369 418.046> 308 46<80.6503 167.046> 463 45<107.042 166.615> 597 20G<148 213.692 314.769 368>
VStem: 5 64<364.789 449.94> 178 45<365.724 451.938> 259 110<83 320.489> 445 96<109.569 154 154 378>
LayerCount: 2
Fore
SplineSet
347 0 m 2
 301 0 259 37 259 78 c 2
 259 271 l 2
 259 322 264 345 290 374 c 2
 318 404 l 2
 342 430 351 471 351 493 c 0
 351 511 347 525 338 534 c 1
 265 469 l 1
 175 546 l 1
 144 543 121 531 106 508 c 1
 125 508 l 2
 163 508 223 469 223 409 c 0
 223 345 179 308 124 308 c 0
 53 308 5 368 5 443 c 0
 5 547 106 617 190 617 c 1
 267 552 l 1
 336 617 l 1
 400 586 411 527 413 506 c 1
 479 547 486 603 494 704 c 1
 604 704 l 1
 598 660 l 2
 587 548 557 486 488 449 c 1
 523 428 541 410 541 393 c 2
 541 163 l 2
 541 70 454 0 372 0 c 2
 347 0 l 2
369 83 m 1
 395 83 445 109 445 154 c 2
 445 378 l 1
 443 384 428 407 402 407 c 1
 370 326 369 310 369 286 c 2
 369 83 l 1
124 463 m 256
 92 463 69 438 69 409 c 256
 69 376 95 354 124 354 c 256
 153 354 178 377 178 409 c 256
 178 440 152 463 124 463 c 256
EndSplineSet
EndChar

StartChar: uni0E0C
Encoding: 3596 3596 223
Width: 921
VWidth: 1507
Flags: W
HStem: 0 53<176.48 263.545> 161 52<211.274 263.562> 175 50<401.707 436.798> 531 83<217.828 420.906>
VStem: 99 67<63.5535 151.087> 99 112<213 344.111> 274 52<63.8193 150.543> 353 46<59.6615 152.793> 443 113<44 130 225 508.714> 718 110<124 614>
LayerCount: 2
Fore
SplineSet
443 175 m 1xb3c0
 419 172 399 140 399 110 c 0
 399 81 423 49 443 44 c 1
 443 175 l 1xb3c0
353 109 m 0
 353 136 358 210 443 225 c 1xb7c0
 443 452 l 2
 443 491 414 531 380 531 c 2
 282 531 l 2
 232 531 164 481 145 431 c 1
 198 406 211 342 211 318 c 2
 211 213 l 1xd7c0
 220 213 l 2
 284 213 326 154 326 107 c 0
 326 52 289 0 220 0 c 0
 160 0 108 40 99 87 c 1xdbc0
 99 320 l 2
 99 355 69 386 32 390 c 1
 43 518 163 614 286 614 c 2
 380 614 l 2
 459 614 556 544 556 452 c 2
 556 213 l 1xd7c0
 659 176 704 136 718 124 c 1
 718 614 l 1
 828 614 l 1
 828 0 l 1
 727 0 l 1
 650 77 612 110 556 130 c 1
 556 44 l 1
 511 4 478 2 464 2 c 0
 393 2 353 49 353 109 c 0
220 161 m 256xdbc0
 188 161 166 137 166 107 c 256
 166 75 190 53 220 53 c 256
 252 53 274 77 274 107 c 256
 274 139 250 161 220 161 c 256xdbc0
EndSplineSet
EndChar

StartChar: uni0E0D
Encoding: 3597 3597 224
Width: 927
VWidth: 1507
Flags: W
HStem: -261 73<618 691.125> -71 42<490.127 576.295> 0 53<183.82 271.433> 0 98<565 700.656> 161 52<219.018 271.505> 531 83<224.263 429.61>
VStem: 107 66<63.676 150.324> 107 112<213 343.99> 282 65<64.6181 149.842> 422 57<-167.956 -82.3342> 454 111<98 505.324> 588 60<-159.795 -82.3318> 728 112<121.938 614> 764 97<-136.282 -56>
LayerCount: 2
Fore
SplineSet
535 -29 m 0xccd4
 596 -29 648 -70 648 -131 c 0
 648 -149 642 -164 618 -188 c 1
 706 -188 751 -114 764 -56 c 1
 861 -56 l 1
 836 -171 729 -261 614 -261 c 0
 538 -261 422 -226 422 -131 c 0
 422 -85 464 -29 535 -29 c 0xccd4
39 390 m 1
 52 514 165 614 294 614 c 2
 387 614 l 2
 468 614 565 545 565 452 c 2
 565 98 l 1
 665 98 l 2
 698 102 728 138 728 179 c 2
 728 614 l 1
 840 614 l 1
 840 164 l 2
 840 81 763 0 665 0 c 2
 546 0 l 2
 489 0 457 43 454 77 c 2
 454 452 l 2
 454 493 422 531 387 531 c 2
 289 531 l 2
 234 531 172 475 152 431 c 1
 211 404 219 334 219 318 c 2
 219 213 l 1xddb8
 228 213 l 2
 281 213 347 163 347 107 c 0
 347 48 293 0 228 0 c 0
 167 0 115 39 107 87 c 1xee90
 107 320 l 2xed90
 107 348 84 385 39 390 c 1
228 161 m 256
 195 161 173 137 173 107 c 256
 173 77 195 53 228 53 c 256xee90
 256 53 282 75 282 107 c 256
 282 139 256 161 228 161 c 256
534 -71 m 256
 502 -71 479 -96 479 -125 c 256xccd0
 479 -155 501 -179 534 -179 c 256
 562 -179 588 -157 588 -125 c 256
 588 -94 562 -71 534 -71 c 256
EndSplineSet
Substitution2: "Single Substitution lookup 22 subtable" uni0E0D.alt1
Substitution2: "Single Substitution lookup 22 subtable" uni0E0D.alt1
EndChar

StartChar: uni0E0E
Encoding: 3598 3598 225
Width: 666
VWidth: 1507
Flags: W
HStem: -292 55<161.886 248.033> -128 48<162.364 247.983> 0 53<105.776 191.854> 161 52<105.562 155.913> 531 83<243.179 445.746>
VStem: 33 62<64.5171 149.859> 90 61<-226.757 -138.537> 157 111<213 352.874> 203 65<63.0512 150.912> 470 110<-112 507.868>
LayerCount: 2
Fore
SplineSet
54 393 m 1xfb40
 68 526 189 614 311 614 c 2
 404 614 l 2
 483 614 580 544 580 452 c 2
 580 -134 l 1
 518 -257 425 -292 401 -301 c 1
 303 -228 l 1
 293 -276 243 -292 210 -292 c 0
 159 -292 90 -250 90 -185 c 0
 90 -125 149 -80 210 -80 c 0
 245 -80 273 -93 294 -109 c 2
 410 -182 l 1
 431 -168 451 -145 470 -112 c 1
 470 452 l 2
 470 492 439 531 404 531 c 2
 306 531 l 2
 262 531 189 485 163 437 c 1
 228 429 268 354 268 320 c 2xfb40
 268 101 l 2
 268 43 204 0 149 0 c 0
 84 0 33 54 33 106 c 0xfcc0
 33 164 87 213 151 213 c 2
 157 213 l 1
 157 318 l 2
 157 348 93 391 54 393 c 1xfb40
149 161 m 256
 121 161 95 139 95 107 c 256
 95 75 121 53 149 53 c 256
 181 53 203 77 203 107 c 256xfcc0
 203 139 179 161 149 161 c 256
205 -128 m 256
 173 -128 151 -154 151 -182 c 256xfa40
 151 -215 175 -237 205 -237 c 256
 235 -237 259 -215 259 -182 c 256
 259 -154 237 -128 205 -128 c 256
EndSplineSet
Substitution2: "Single Substitution lookup 22 subtable" uni0E0E.alt1
Substitution2: "Single Substitution lookup 22 subtable" uni0E0E.alt1
EndChar

StartChar: uni0E0F
Encoding: 3599 3599 226
Width: 664
VWidth: 1507
Flags: W
HStem: -265 54<114.294 199.71> -103 53<113.707 200.071> 0 53<105.776 191.854> 161 52<105.562 155.913> 531 83<243.179 445.746>
VStem: 33 62<64.5171 149.859> 41 62<-199.686 -113.935> 157 111<213 352.874> 203 65<63.0512 150.912> 470 110<-148.393 507.868>
LayerCount: 2
Fore
SplineSet
54 393 m 1xfd40
 68 526 189 614 311 614 c 2
 404 614 l 2
 483 614 580 544 580 452 c 2
 580 -119 l 2
 580 -178 573 -224 458 -301 c 1
 374 -167 l 1
 368 -176 362 -188 355 -200 c 2
 315 -275 l 2
 309 -286 303 -296 298 -303 c 1
 249 -222 l 1
 234 -250 198 -265 161 -265 c 0
 102 -265 41 -221 41 -158 c 0
 41 -90 107 -50 161 -50 c 0
 203 -50 236 -73 265 -103 c 0
 281 -117 283 -133 298 -167 c 1
 369 -33 l 1
 455 -167 l 1
 467 -151 470 -147 470 -116 c 2
 470 452 l 2
 470 492 439 531 404 531 c 2
 306 531 l 2
 262 531 189 485 163 437 c 1
 228 429 268 354 268 320 c 2xfb40
 268 101 l 2xf8c0
 268 43 204 0 149 0 c 0
 84 0 33 54 33 106 c 0
 33 164 87 213 151 213 c 2
 157 213 l 1
 157 318 l 2
 157 348 93 391 54 393 c 1xfd40
149 161 m 256
 121 161 95 139 95 107 c 256
 95 75 121 53 149 53 c 256
 181 53 203 77 203 107 c 256xfcc0
 203 139 179 161 149 161 c 256
157 -103 m 256xfb40
 125 -103 103 -127 103 -157 c 256
 103 -185 125 -211 157 -211 c 256
 188 -211 211 -185 211 -157 c 256
 211 -125 185 -103 157 -103 c 256xfb40
EndSplineSet
Substitution2: "Single Substitution lookup 22 subtable" uni0E0F.alt1
Substitution2: "Single Substitution lookup 22 subtable" uni0E0F.alt1
EndChar

StartChar: uni0E10
Encoding: 3600 3600 227
Width: 584
VWidth: 1507
Flags: W
HStem: -252 59<36.3541 111.661> -164 36<381.318 415> -84 49<35.6415 121.782> -35 33<380.906 459.627> 0 21G<207 342> 119 56<156.112 206.311> 283 53<155.806 243.142> 481 84<333.943 465.055> 537 77<169.725 300.675>
VStem: -32 56<-181.485 -95.0693> 80 65<185.775 272.198> 253 65<185.471 272.297> 333 41<-120.545 -42.3045> 372 95<110.73 163 163 318> 467 30<-117.332 -42.9452>
LayerCount: 2
Fore
SplineSet
143 466 m 1xfef6
 266 445 368 408 467 354 c 1
 467 163 l 2
 467 73 386 -0 298 0 c 2
 207 0 l 1
 207 119 l 1
 200 119 l 2
 134 119 80 169 80 228 c 256
 80 285 135 336 200 336 c 256
 265 336 318 293 318 228 c 2
 318 90 l 1
 361 109 372 123 372 163 c 2
 372 318 l 1
 312 350 205 384 33 407 c 1
 33 573 149 614 216 614 c 0xfef6
 294 614 344 573 412 565 c 0
 437 565 472 586 538 645 c 1
 552 562 l 1
 487 495 445 481 418 481 c 0xff76
 352 481 282 537 216 537 c 0
 175 537 146 492 143 466 c 1xfef6
416 -2 m 256
 463 -2 497 -30 497 -75 c 2
 497 -93 l 2
 497 -200 463 -266 348 -300 c 1
 264 -182 l 1
 196 -300 l 1
 152 -211 l 1
 124 -247 94 -252 80 -252 c 0
 1 -252 -32 -193 -32 -143 c 256
 -32 -91 2 -35 77 -35 c 0
 117 -35 162 -53 170 -80 c 2
 203 -170 l 1
 264 -66 l 1
 368 -213 l 1
 392 -207 415 -191 415 -164 c 1
 378 -164 333 -139 333 -80 c 0xfe7a
 333 -37 368 -2 416 -2 c 256
199 283 m 256
 167 283 145 259 145 229 c 256
 145 201 167 175 199 175 c 256
 231 175 253 201 253 229 c 256
 253 261 229 283 199 283 c 256
78 -84 m 256
 49 -84 24 -107 24 -139 c 256
 24 -170 50 -193 78 -193 c 256
 110 -193 133 -168 133 -139 c 256
 133 -106 107 -84 78 -84 c 256
421 -35 m 256
 393 -35 374 -56 374 -81 c 256
 374 -109 395 -128 421 -128 c 256
 446 -128 467 -109 467 -81 c 256
 467 -54 446 -35 421 -35 c 256
EndSplineSet
Substitution2: "Single Substitution lookup 22 subtable" uni0E10.alt1
Substitution2: "Single Substitution lookup 22 subtable" uni0E10.alt1
EndChar

StartChar: uni0E11
Encoding: 3601 3601 228
Width: 842
VWidth: 1507
Flags: W
HStem: 0 21G<261 381.063 647 755> 308 46<81.9698 168.507> 463 45<107.225 168.154> 594 20G<148 214.692 316.462 374.5 558.209 619.5>
VStem: 6 65<364.944 449.748> 179 46<364.976 452.494> 261 111<167 319.718> 353 65<420.641 513.128> 647 108<0 468.156>
LayerCount: 2
Fore
SplineSet
568 614 m 1xfe80
 671 614 755 554 755 449 c 2
 755 0 l 1
 647 0 l 1
 647 418 l 2
 647 446 635 466 612 479 c 1
 371 0 l 1
 261 0 l 1
 261 271 l 2xfe80
 261 317 265 346 292 374 c 2
 320 404 l 2
 337 423 353 458 353 491 c 0
 353 508 348 523 339 534 c 1
 267 469 l 1
 176 546 l 1
 164 545 132 543 107 508 c 1
 127 508 l 2
 164 508 225 470 225 409 c 0
 225 344 181 308 125 308 c 0
 54 308 6 368 6 443 c 0
 6 545 105 617 191 617 c 1
 268 552 l 1
 338 617 l 1
 411 583 418 507 418 473 c 0xfd80
 418 411 372 354 372 286 c 2
 372 167 l 1
 376 206 378 206 381 232 c 1
 568 614 l 1xfe80
125 463 m 256
 94 463 71 437 71 409 c 256
 71 377 96 354 125 354 c 256
 155 354 179 376 179 409 c 256
 179 437 157 463 125 463 c 256
EndSplineSet
EndChar

StartChar: uni0E12
Encoding: 3602 3602 229
Width: 970
VWidth: 1507
Flags: W
HStem: 0 21G<733 880> 175 50<486.247 521.798> 294 53<284.262 369.583> 594 20G<221.5 284.791 430.353 497.5 769 880>
VStem: 75 104<96 456.703> 222 51<195.638 282.569> 381 44<196.53 282.569> 437 47<57.5526 152.793> 528 96<44 130 226 451 451 493.847> 769 111<124 614>
LayerCount: 2
Fore
SplineSet
452 614 m 1
 543 614 624 536 624 451 c 2
 624 226 l 1
 650 217 698 200 769 124 c 1
 769 614 l 1
 880 614 l 1
 880 0 l 1
 764 0 l 1
 702 96 657 118 624 130 c 1
 624 44 l 1
 586 12 580 2 549 2 c 0
 476 2 437 49 437 109 c 0
 437 136 442 210 528 225 c 1
 528 451 l 2
 528 477 493 517 469 517 c 1
 360 418 l 1
 247 519 l 1
 234 509 179 455 179 375 c 2
 179 96 l 1
 226 104 250 113 280 143 c 1
 257 155 222 182 222 240 c 0
 222 299 272 347 326 347 c 0
 376 347 425 299 425 240 c 0
 425 129 305 2 167 2 c 2
 75 2 l 1
 75 378 l 2
 75 489 181 615 262 615 c 1
 360 529 l 1
 452 614 l 1
327 294 m 256
 295 294 273 268 273 240 c 256
 273 207 297 185 327 185 c 256
 357 185 381 207 381 240 c 256
 381 268 359 294 327 294 c 256
528 175 m 1
 504 172 484 140 484 110 c 0
 484 81 505 49 528 44 c 1
 528 175 l 1
EndSplineSet
EndChar

StartChar: uni0E13
Encoding: 3603 3603 230
Width: 924
VWidth: 1507
Flags: W
HStem: 0 53<176.48 263.624 745.003 819.402> 161 52<211.274 263.935> 531 83<217.828 421.746>
VStem: 99 112<213 344.111> 99 67<63.5535 151.087> 274 65<62.9598 150.651> 448 108<125 504.937> 722 110<258 614> 837 67<71.2119 158.116>
LayerCount: 2
Fore
SplineSet
220 161 m 256xef80
 188 161 166 137 166 107 c 256
 166 75 190 53 220 53 c 256
 252 53 274 77 274 107 c 256
 274 139 250 161 220 161 c 256xef80
776 0 m 0
 696 0 662 64 662 103 c 1
 639 85 618 63 555 0 c 1
 448 0 l 1
 448 452 l 2
 448 493 414 531 380 531 c 2
 282 531 l 2
 232 531 164 481 145 431 c 1
 198 406 211 342 211 318 c 2
 211 213 l 1xf780
 220 213 l 2
 274 213 339 165 339 107 c 0
 339 48 285 0 220 0 c 0
 160 0 108 40 99 87 c 1xef80
 99 320 l 2xf780
 99 355 69 386 32 390 c 1
 43 518 163 614 286 614 c 2
 380 614 l 2
 459 614 556 544 556 452 c 2
 556 125 l 1
 587 154 651 212 722 258 c 1
 722 614 l 1
 832 614 l 1
 832 222 l 1
 891 198 904 149 904 118 c 0
 904 44 830 0 776 0 c 0
782 169 m 256
 751 169 728 143 728 115 c 256
 728 83 753 60 782 60 c 256
 815 60 837 86 837 115 c 256
 837 144 814 169 782 169 c 256
EndSplineSet
EndChar

StartChar: uni0E14
Encoding: 3604 3604 231
Width: 691
VWidth: 1507
Flags: W
HStem: 0 95<179 248.793> 294 50<299.964 384.522> 531 83<265.511 469.373>
VStem: 75 104<95 443.432> 222 66<196.157 282.792> 396 58<197.652 283.534> 493 113<0 507.388>
LayerCount: 2
Fore
SplineSet
329 531 m 2
 252 531 179 444 179 374 c 2
 179 95 l 1
 227 101 257 113 288 142 c 1
 263 153 222 180 222 238 c 0
 222 294 277 344 341 344 c 0
 395 344 454 301 454 238 c 256
 454 123 299 -0 167 0 c 2
 75 0 l 1
 75 377 l 2
 75 497 201 614 332 614 c 2
 430 614 l 2
 526 614 606 535 606 449 c 2
 606 0 l 1
 493 0 l 1
 493 454 l 2
 493 491 462 531 430 531 c 2
 329 531 l 2
342 294 m 256
 311 294 288 268 288 240 c 256
 288 208 313 185 342 185 c 256
 372 185 396 207 396 240 c 256
 396 268 374 294 342 294 c 256
EndSplineSet
EndChar

StartChar: uni0E15
Encoding: 3605 3605 232
Width: 690
VWidth: 1507
Flags: MW
HStem: 0 95<75 179> 295 50<299.622 385.203> 595 20G<221.5 284.791 430.353 500>
VStem: 75 104<95 456.703> 222 66<198.023 283.255> 396 58<199.517 284.708> 494 112<0 514.633>
LayerCount: 2
Fore
SplineSet
454 240 m 256
 454 123 301 0 167 0 c 2
 75 0 l 1
 75 378 l 2
 75 489 181 615 262 615 c 1
 360 529 l 1
 452 614 l 1
 548 614 606 533 606 451 c 2
 606 0 l 1
 494 0 l 1
 494 451 l 2
 494 508 484 517 469 517 c 1
 360 418 l 1
 247 519 l 1
 234 509 179 455 179 375 c 2
 179 95 l 1
 227 103 256 114 288 143 c 1
 262 154 222 182 222 240 c 0
 222 296 277 345 341 345 c 0
 396 345 454 301 454 240 c 256
342 295 m 256
 314 295 288 273 288 241 c 256
 288 210 314 187 342 187 c 256
 374 187 396 213 396 241 c 256
 396 273 372 295 342 295 c 256
EndSplineSet
EndChar

StartChar: uni0E16
Encoding: 3606 3606 233
Width: 643
VWidth: 1507
Flags: W
HStem: 0 53<176.48 263.624> 161 52<211.274 263.935> 531 83<217.828 421.746>
VStem: 99 67<63.5535 151.087> 99 112<213 344.111> 274 65<62.9598 150.651> 448 108<0 504.937>
LayerCount: 2
Fore
SplineSet
380 614 m 2xee
 459 614 556 544 556 452 c 2
 556 0 l 1
 448 0 l 1
 448 452 l 2
 448 493 414 531 380 531 c 2
 282 531 l 2
 232 531 164 481 145 431 c 1
 198 406 211 342 211 318 c 2
 211 213 l 1xee
 220 213 l 2
 274 213 339 165 339 107 c 0
 339 48 285 0 220 0 c 0
 160 0 108 40 99 87 c 1xf6
 99 320 l 2
 99 355 69 386 32 390 c 1
 43 518 163 614 286 614 c 2
 380 614 l 2xee
220 161 m 256
 188 161 166 137 166 107 c 256xf6
 166 75 190 53 220 53 c 256
 252 53 274 77 274 107 c 256
 274 139 250 161 220 161 c 256
EndSplineSet
EndChar

StartChar: uni0E17
Encoding: 3607 3607 234
Width: 729
VWidth: 1507
Flags: W
HStem: 0 21G<154 270.16 534 645> 402 50<103.665 153.311> 561 49<102.943 188.451>
VStem: 35 57<463.023 550.017> 154 111<179 402> 200 65<462.471 550.845> 534 111<0 481.298>
LayerCount: 2
Fore
SplineSet
151 610 m 0xfa
 214 610 265 560 265 510 c 2xf6
 265 179 l 1
 266 186 271 237 276 250 c 2
 440 614 l 1
 537 614 645 552 645 449 c 2
 645 0 l 1
 534 0 l 1
 534 439 l 2
 534 467 510 490 490 500 c 1
 261 0 l 1
 154 0 l 1
 154 402 l 1
 97 402 35 446 35 508 c 0
 35 565 92 610 151 610 c 0xfa
146 561 m 256
 117 561 92 538 92 506 c 256
 92 475 118 452 146 452 c 256
 178 452 200 478 200 506 c 256
 200 539 176 561 146 561 c 256
EndSplineSet
EndChar

StartChar: uni0E18
Encoding: 3608 3608 235
Width: 569
VWidth: 1507
Flags: W
HStem: 0 90<205 353.78> 479 79<346.43 463.597> 531 83<167.87 311.428>
VStem: 93 112<90 329> 378 112<116.394 317>
LayerCount: 2
Fore
SplineSet
38 407 m 1xb8
 38 496 77 614 234 614 c 0xb8
 315 614 360 558 409 558 c 0
 434 558 465 566 532 653 c 1
 550 574 l 1
 530 543 463 479 405 479 c 0xd8
 336 479 306 531 232 531 c 0
 194 531 141 504 139 469 c 1
 283 449 409 397 490 356 c 1
 490 163 l 2
 490 78 404 0 311 0 c 2
 185 0 l 2
 143 0 93 30 93 80 c 2
 93 351 l 1
 205 329 l 1
 205 90 l 1
 314 90 l 2
 348 90 378 133 378 172 c 2
 378 317 l 1
 317 349 220 378 38 407 c 1xb8
EndSplineSet
EndChar

StartChar: uni0E19
Encoding: 3609 3609 236
Width: 663
VWidth: 1507
Flags: W
HStem: 0 60<484.509 570.188> 402 50<105.467 153.715> 561 49<103.919 190.825>
VStem: 36 57<463.061 549.966> 155 112<127 402> 202 65<463.264 549.332> 407 66<71.1768 128.937> 464 113<246 614> 582 68<70.955 157.699>
LayerCount: 2
Fore
SplineSet
415 133 m 1xf280
 364 105 298 43 259 0 c 1
 155 0 l 1
 155 402 l 1xfa80
 94 402 36 452 36 508 c 0
 36 565 93 610 152 610 c 0
 220 610 267 556 267 510 c 2xf480
 267 127 l 1
 294 161 394 227 464 246 c 1
 464 614 l 1
 577 614 l 1
 577 222 l 1xf980
 618 206 650 169 650 118 c 0
 650 43 574 0 522 0 c 0
 442 0 407 63 407 112 c 0
 407 114 409 127 415 133 c 1xf280
148 561 m 256
 115 561 93 535 93 506 c 256
 93 477 116 452 148 452 c 256
 179 452 202 478 202 506 c 256xf480
 202 538 177 561 148 561 c 256
528 169 m 256
 496 169 473 144 473 115 c 256xf280
 473 82 499 60 528 60 c 256
 557 60 582 83 582 115 c 256
 582 146 556 169 528 169 c 256
EndSplineSet
EndChar

StartChar: uni0E1A
Encoding: 3610 3610 237
Width: 706
VWidth: 1507
Flags: W
HStem: 0 98<270 484.188> 402 50<108.467 156.715> 561 49<106.919 193.825>
VStem: 39 57<463.061 549.966> 158 112<98 402> 205 65<463.264 549.332> 508 110<119.468 614>
LayerCount: 2
Fore
SplineSet
244 0 m 2xfa
 198 0 158 37 158 77 c 2
 158 402 l 1xfa
 97 402 39 452 39 508 c 0
 39 565 96 610 155 610 c 0
 223 610 270 556 270 510 c 2xf6
 270 98 l 1
 443 98 l 2
 478 98 508 135 508 175 c 2
 508 614 l 1
 618 614 l 1
 618 155 l 2
 618 79 545 0 443 0 c 2
 244 0 l 2xfa
151 561 m 256
 118 561 96 535 96 506 c 256
 96 477 119 452 151 452 c 256
 182 452 205 478 205 506 c 256xf6
 205 538 180 561 151 561 c 256
EndSplineSet
EndChar

StartChar: uni0E1B
Encoding: 3611 3611 238
Width: 706
VWidth: 1507
Flags: W
HStem: 0 98<270 484.188> 402 50<108.467 156.715> 561 49<106.919 193.825>
VStem: 39 57<463.061 549.966> 158 112<98 402> 205 65<463.264 549.332> 508 110<119.468 907>
LayerCount: 2
Fore
SplineSet
244 0 m 2xfa
 198 0 158 37 158 77 c 2
 158 402 l 1xfa
 97 402 39 452 39 508 c 0
 39 565 96 610 155 610 c 0
 223 610 270 556 270 510 c 2xf6
 270 98 l 1
 443 98 l 2
 478 98 508 135 508 175 c 2
 508 907 l 1
 618 907 l 1
 618 155 l 2
 618 79 545 0 443 0 c 2
 244 0 l 2xfa
151 561 m 256
 118 561 96 535 96 506 c 256
 96 477 119 452 151 452 c 256
 182 452 205 478 205 506 c 256xf6
 205 538 180 561 151 561 c 256
EndSplineSet
EndChar

StartChar: uni0E1C
Encoding: 3612 3612 239
Width: 688
VWidth: 1507
Flags: W
HStem: -2 21G<144 196.368 474.792 546.5> 401 53<188.066 242.912> 562 52<155.23 241.913>
VStem: 77 68<464.088 550.033> 77 111<146 401> 253 62<464.208 551.104> 493 111<143 614>
LayerCount: 2
Fore
SplineSet
315 506 m 256xf6
 315 452 257 401 196 401 c 2
 188 401 l 1
 188 146 l 1
 338 324 l 1
 356 324 364 310 387 277 c 2
 493 143 l 1
 493 614 l 1
 604 614 l 1
 604 122 l 2
 604 86 603 11 490 -2 c 1
 344 190 l 1
 179 0 l 1
 109 0 77 53 77 87 c 2xee
 77 510 l 2
 77 561 131 614 196 614 c 256
 246 614 315 571 315 506 c 256xf6
199 562 m 256
 167 562 145 538 145 508 c 256xf6
 145 476 169 454 199 454 c 256
 231 454 253 478 253 508 c 256
 253 540 229 562 199 562 c 256
EndSplineSet
EndChar

StartChar: uni0E1D
Encoding: 3613 3613 240
Width: 691
VWidth: 1507
Flags: W
HStem: -2 21G<144 196.368 474.792 546.5> 401 53<188.066 242.912> 562 52<155.23 241.913>
VStem: 77 68<464.088 550.033> 77 111<146 401> 253 62<464.208 551.104> 493 111<143 907>
LayerCount: 2
Fore
SplineSet
315 506 m 256xf6
 315 452 257 401 196 401 c 2
 188 401 l 1
 188 146 l 1
 338 324 l 1
 356 324 364 310 387 277 c 2
 493 143 l 1
 493 907 l 1
 604 907 l 1
 604 122 l 2
 604 86 603 11 490 -2 c 1
 344 190 l 1
 179 0 l 1
 109 0 77 53 77 87 c 2xee
 77 510 l 2
 77 561 131 614 196 614 c 256
 246 614 315 571 315 506 c 256xf6
199 562 m 256
 167 562 145 538 145 508 c 256xf6
 145 476 169 454 199 454 c 256
 231 454 253 478 253 508 c 256
 253 540 229 562 199 562 c 256
EndSplineSet
EndChar

StartChar: uni0E1E
Encoding: 3614 3614 241
Width: 762
VWidth: 1507
Flags: W
HStem: -6 21G<250.5 291.5 532.231 580.5> 405 50<97.6654 156.124> 564 50<97.4369 183.337>
VStem: 29 57<466.06 552.657> 157 102<136 407> 194 65<465.155 552.828> 580 98<136.403 614>
LayerCount: 2
Fore
SplineSet
277 -6 m 1xfa
 224 -6 157 23 157 77 c 2
 157 407 l 1xfa
 148 405 l 1
 91 405 29 449 29 511 c 0
 29 566 82 614 145 614 c 0
 200 614 259 570 259 513 c 2xf6
 259 136 l 1
 260 150 265 194 270 207 c 2
 401 612 l 1
 451 607 465 573 467 562 c 2
 570 207 l 2
 575 194 579 158 580 136 c 1
 580 614 l 1
 678 614 l 1
 678 161 l 2
 678 86 623 9 538 -6 c 1
 418 410 l 1
 368 253 l 2
 342 172 306 68 277 -6 c 1xfa
140 564 m 256
 109 564 86 538 86 510 c 256
 86 478 111 455 140 455 c 256
 170 455 194 477 194 510 c 256xf6
 194 538 172 564 140 564 c 256
EndSplineSet
EndChar

StartChar: uni0E1F
Encoding: 3615 3615 242
Width: 762
VWidth: 1507
Flags: W
HStem: -6 21G<250.5 291.5 532.231 580.5> 405 50<97.6654 156.124> 564 50<97.4369 183.337>
VStem: 29 57<466.06 552.657> 157 102<136 407> 194 65<465.155 552.828> 580 98<139.906 907>
LayerCount: 2
Fore
SplineSet
145 614 m 0xfa
 200 614 259 570 259 513 c 2xf6
 259 136 l 1
 260 150 265 194 270 207 c 2
 401 612 l 1
 451 607 465 573 467 562 c 2
 570 207 l 2
 575 193 579 161 580 139 c 1
 580 907 l 1
 678 907 l 1
 678 161 l 2
 678 86 623 9 538 -6 c 1
 418 410 l 1
 368 253 l 2
 342 172 306 68 277 -6 c 1
 224 -6 157 23 157 77 c 2
 157 407 l 1
 148 405 l 1
 91 405 29 449 29 511 c 0
 29 566 82 614 145 614 c 0xfa
140 564 m 256
 109 564 86 538 86 510 c 256
 86 478 111 455 140 455 c 256
 170 455 194 477 194 510 c 256
 194 538 172 564 140 564 c 256
EndSplineSet
EndChar

StartChar: uni0E20
Encoding: 3616 3616 243
Width: 664
VWidth: 1507
Flags: W
HStem: 0 53<106.912 194.296> 161 52<107.562 157.514> 531 83<243.643 447.885>
VStem: 35 61<64.4323 149.944> 158 112<213 353.759> 205 65<64.6998 150.154> 472 110<0 508.231>
LayerCount: 2
Fore
SplineSet
35 106 m 0xf6
 35 164 90 213 152 213 c 2
 158 213 l 1
 158 318 l 2
 158 350 93 391 56 393 c 1
 67 521 189 614 312 614 c 2
 405 614 l 2
 487 614 582 543 582 452 c 2
 582 0 l 1
 472 0 l 1
 472 452 l 2
 472 493 440 531 405 531 c 2
 308 531 l 2
 258 531 185 477 164 437 c 1
 230 429 270 355 270 320 c 2xfa
 270 101 l 2
 270 47 209 0 151 0 c 0
 85 0 35 54 35 106 c 0xf6
151 161 m 256
 118 161 96 137 96 107 c 256
 96 77 118 53 151 53 c 256
 179 53 205 75 205 107 c 256xf6
 205 139 179 161 151 161 c 256
EndSplineSet
EndChar

StartChar: uni0E21
Encoding: 3617 3617 244
Width: 676
VWidth: 1507
Flags: W
HStem: 0 21G<143.5 209 465 594> 148 101<308.644 421.05> 193 56<129.885 167.271> 402 50<121.665 171.329> 561 49<120.943 207.941>
VStem: 50 71<69.2707 177.516> 53 57<463.023 550.017> 172 111<56 148 249 402> 219 64<462.97 548.907> 482 112<145 614>
LayerCount: 2
Fore
SplineSet
172 193 m 1xbd40
 133 184 121 150 121 121 c 0
 121 77 158 54 172 47 c 1
 172 193 l 1xbd40
169 610 m 0
 232 610 283 560 283 510 c 2xbac0
 283 249 l 1xb940
 363 228 426 191 482 145 c 1
 482 614 l 1
 594 614 l 1
 594 0 l 1
 490 0 l 1
 440 68 368 122 283 148 c 1
 283 56 l 1
 256 13 239 0 179 0 c 0
 108 0 50 66 50 124 c 0xdd40
 50 186 113 244 172 249 c 1
 172 402 l 1
 115 402 53 446 53 508 c 0xbb40
 53 565 110 610 169 610 c 0
164 561 m 256
 135 561 110 538 110 506 c 256
 110 475 136 452 164 452 c 256
 196 452 219 477 219 506 c 256
 219 539 193 561 164 561 c 256
EndSplineSet
EndChar

StartChar: uni0E22
Encoding: 3618 3618 245
Width: 687
VWidth: 1507
Flags: W
HStem: 0 83<205 474.696> 240 86<253.255 368> 401 54<210.373 297.204> 564 50<210.59 295.624>
VStem: 78 88<380.719 441.262> 95 110<83 199.561> 308 64<466.15 552.718> 493 111<103.08 614>
LayerCount: 2
Fore
SplineSet
433 83 m 2xf7
 465 83 493 118 493 154 c 2
 493 614 l 1
 604 614 l 1
 604 154 l 2
 604 65 521 0 428 0 c 2
 193 0 l 2
 141 0 99 31 95 77 c 2
 95 149 l 2xf7
 95 206 129 276 197 282 c 1
 112 297 84 360 78 433 c 0
 78 521 145 614 241 614 c 2
 252 614 l 2
 299 614 372 574 372 508 c 0
 372 448 315 401 252 401 c 0
 216 401 184 415 166 443 c 1xfb
 166 344 280 326 368 326 c 1
 368 240 l 1
 290 240 205 220 205 149 c 2
 205 83 l 1
 433 83 l 2xf7
253 564 m 256
 222 564 199 538 199 510 c 256
 199 478 224 455 253 455 c 256
 286 455 308 481 308 510 c 256
 308 539 285 564 253 564 c 256
EndSplineSet
EndChar

StartChar: uni0E23
Encoding: 3619 3619 246
Width: 584
VWidth: 1507
Flags: W
HStem: 0 50<307.711 394.552> 158 50<308.344 368.388> 482 82<341.798 463.593> 527 85<169.756 310.57>
VStem: 240 57<61.2817 146.936> 369 97<208 304> 405 61<60.846 147.912>
LayerCount: 2
Fore
SplineSet
240 104 m 0xda
 240 156 291 208 351 208 c 2
 369 208 l 1
 369 304 l 1
 309 337 204 370 32 398 c 1
 32 439 44 518 95 564 c 0xec
 133 596 178 612 229 612 c 0xdc
 299 612 383 564 410 564 c 0
 434 564 468 581 540 650 c 1
 559 567 l 1
 525 519 460 482 416 482 c 0xec
 318 492 276 527 225 527 c 0
 190 527 152 502 140 460 c 1
 267 442 372 399 466 350 c 1
 466 104 l 2
 466 51 417 0 351 0 c 256
 284 0 240 53 240 104 c 0xda
351 158 m 256
 323 158 297 136 297 104 c 256
 297 72 323 50 351 50 c 256
 383 50 405 74 405 104 c 256xca
 405 136 381 158 351 158 c 256
EndSplineSet
EndChar

StartChar: uni0E24
Encoding: 3620 3620 247
Width: 643
VWidth: 1507
Flags: W
HStem: 0 53<179.699 266.624> 161 52<214.274 266.935> 531 83<220.828 423.885>
VStem: 103 66<63.5535 151.087> 103 111<213 344.111> 277 65<62.9598 150.651> 449 109<-246 504.55>
LayerCount: 2
Fore
SplineSet
35 390 m 1xee
 46 518 166 614 289 614 c 2
 381 614 l 2
 463 614 558 543 558 452 c 2
 558 -246 l 1
 449 -246 l 1
 449 452 l 2
 449 493 416 531 381 531 c 2
 285 531 l 2
 235 531 167 481 148 431 c 1
 201 406 214 342 214 318 c 2
 214 213 l 1xee
 223 213 l 2
 277 213 342 165 342 107 c 0
 342 48 288 0 223 0 c 0
 164 0 111 40 103 87 c 1xf6
 103 320 l 2
 103 355 72 386 35 390 c 1xee
223 161 m 256
 191 161 169 137 169 107 c 256xf6
 169 75 193 53 223 53 c 256
 255 53 277 77 277 107 c 256
 277 139 253 161 223 161 c 256
EndSplineSet
EndChar

StartChar: uni0E25
Encoding: 3621 3621 248
Width: 652
VWidth: 1507
Flags: W
HStem: 0 53<152.46 239.344> 161 53<187.274 238.391> 318 91<249.934 387.394> 531 83<228.013 436.85>
VStem: 39 101<387 446.506> 75 67<65.4078 151.087> 250 58<62.8726 150.183> 455 112<0 250.273> 464 103<344 502.062>
LayerCount: 2
Fore
SplineSet
392 614 m 2xfa80
 480 614 567 548 567 451 c 2xfa80
 567 0 l 1
 455 0 l 1
 455 187 l 2
 452 255 383 318 323 318 c 0
 266 318 198 275 187 214 c 1
 196 214 l 2
 255 214 308 168 308 107 c 0
 308 53 262 0 196 0 c 0
 145 0 75 37 75 125 c 2
 75 146 l 2xf7
 75 280 186 409 324 409 c 0
 371 409 438 388 464 344 c 1
 464 451 l 2
 464 485 431 531 392 531 c 2
 292 531 l 2
 222 531 140 446 140 387 c 1
 39 387 l 1
 39 478 150 614 292 614 c 2
 392 614 l 2xfa80
196 161 m 256
 164 161 142 137 142 107 c 256xf6
 142 75 166 53 196 53 c 256
 228 53 250 77 250 107 c 256
 250 139 226 161 196 161 c 256
EndSplineSet
EndChar

StartChar: uni0E26
Encoding: 3622 3622 249
Width: 670
VWidth: 1507
Flags: W
HStem: 0 53<111.776 199.605> 161 52<111.562 162.528> 531 83<249.179 450.746>
VStem: 39 62<64.5171 149.859> 163 111<213 352.874> 210 64<63.676 150.324> 475 110<-246 508.231>
LayerCount: 2
Fore
SplineSet
60 393 m 1xfa
 74 526 195 614 317 614 c 2
 409 614 l 2
 488 614 585 544 585 452 c 2
 585 -246 l 1
 475 -246 l 1
 475 452 l 2
 475 493 443 531 409 531 c 2
 312 531 l 2
 268 531 195 485 169 437 c 1
 234 429 274 354 274 320 c 2xfa
 274 101 l 2xf6
 274 43 210 0 155 0 c 0
 90 0 39 54 39 106 c 0
 39 164 93 213 157 213 c 2
 163 213 l 1
 163 318 l 2
 163 348 99 391 60 393 c 1xfa
155 161 m 256
 127 161 101 139 101 107 c 256
 101 75 127 53 155 53 c 256
 188 53 210 77 210 107 c 256xf6
 210 137 188 161 155 161 c 256
EndSplineSet
EndChar

StartChar: uni0E27
Encoding: 3623 3623 250
Width: 569
VWidth: 1507
Flags: W
HStem: 0 50<326.444 413.719> 158 55<327.178 376.528> 531 81<187.081 356.901>
VStem: 252 63<61.2171 147.171> 377 110<213 512.859> 424 63<62.1804 147.324>
LayerCount: 2
Fore
SplineSet
252 106 m 0xf4
 252 164 307 213 369 213 c 2
 377 213 l 1
 377 460 l 2
 377 489 354 531 327 531 c 2
 250 531 l 2
 195 531 149 492 112 416 c 1
 26 443 l 1
 53 511 130 612 250 612 c 2
 329 612 l 2
 416 603 487 532 487 460 c 2xf8
 487 106 l 2
 487 47 431 0 369 0 c 0
 301 0 252 51 252 106 c 0xf4
369 158 m 256
 341 158 315 136 315 104 c 256
 315 72 341 50 369 50 c 256
 402 50 424 74 424 104 c 256xf4
 424 134 402 158 369 158 c 256
EndSplineSet
EndChar

StartChar: uni0E28
Encoding: 3624 3624 251
Width: 687
VWidth: 1507
Flags: W
HStem: 0 21G<75 209.477 493 604> 202 50<303.712 384.139> 360 53<296.13 383.536> 531 83<261.344 454.917>
VStem: 75 112<196 383 383 451.834> 395 63<263.431 349.008> 493 111<0 508.814>
LayerCount: 2
Fore
SplineSet
341 360 m 256
 308 360 286 336 286 306 c 256
 286 276 308 252 341 252 c 256
 369 252 395 274 395 306 c 256
 395 338 369 360 341 360 c 256
493 452 m 2
 493 492 463 531 428 531 c 2
 323 531 l 2
 260 531 187 456 187 383 c 2
 187 196 l 1
 226 339 l 2
 241 381 283 413 341 413 c 0
 416 413 458 357 458 306 c 0
 458 245 399 202 341 202 c 0
 317 202 298 206 282 214 c 1
 202 0 l 1
 75 0 l 1
 75 383 l 2
 75 497 196 614 318 614 c 2
 430 614 l 2
 442 614 455 612 469 609 c 1
 481 634 492 665 503 701 c 1
 615 701 l 1
 590 641 582 614 553 567 c 1
 587 537 604 495 604 452 c 2
 604 0 l 1
 493 0 l 1
 493 452 l 2
EndSplineSet
EndChar

StartChar: uni0E29
Encoding: 3625 3625 252
Width: 722
VWidth: 1507
Flags: W
HStem: 2 97<268 481.631> 223 69<350.744 429.459> 223 60<460 506> 389 51<348.467 429.047> 402 50<106.665 156.311> 561 49<105.943 191.451>
VStem: 38 57<463.023 550.017> 157 111<99 402> 203 65<462.471 550.845> 288 53<300.569 382.031> 437 47<309.089 381.446> 506 111<120.133 223 326 615>
LayerCount: 2
Fore
SplineSet
243 2 m 2xaf70
 196 2 157 37 157 78 c 2
 157 402 l 1xaf70
 100 402 38 446 38 508 c 0
 38 565 95 610 154 610 c 0
 217 610 268 560 268 510 c 2xaef0
 268 99 l 1
 442 99 l 2
 473 99 506 132 506 176 c 2
 506 223 l 1
 437 223 l 2
 348 223 288 270 288 342 c 0
 288 391 326 440 389 440 c 256xb770
 458 440 484 383 484 342 c 0
 484 328 477 292 460 283 c 1
 506 283 l 1
 506 615 l 1
 617 615 l 1
 617 326 l 1
 641 345 651 379 654 402 c 1
 728 402 l 1
 717 295 657 251 617 234 c 1
 617 157 l 2
 617 77 539 2 442 2 c 2
 243 2 l 2xaf70
149 561 m 256
 120 561 95 538 95 506 c 256
 95 475 121 452 149 452 c 256
 181 452 203 478 203 506 c 256x8ef0
 203 539 179 561 149 561 c 256
389 389 m 256xd670
 360 389 341 369 341 341 c 256
 341 314 360 292 389 292 c 256
 418 292 437 314 437 341 c 256
 437 370 417 389 389 389 c 256xd670
EndSplineSet
EndChar

StartChar: uni0E2A
Encoding: 3626 3626 253
Width: 652
VWidth: 1507
Flags: W
HStem: 0 53<152.46 239.344> 161 53<187.274 238.391> 318 91<249.934 387.394> 531 83<228.013 420.049>
VStem: 39 101<387 446.506> 75 67<65.4078 151.087> 250 58<62.8726 150.183> 455 112<0 250.273> 464 103<344 503.75>
LayerCount: 2
Fore
SplineSet
196 161 m 256xf6
 164 161 142 137 142 107 c 256
 142 75 166 53 196 53 c 256
 228 53 250 77 250 107 c 256
 250 139 226 161 196 161 c 256xf6
464 451 m 2xf680
 464 485 431 531 392 531 c 2
 292 531 l 2
 222 531 140 446 140 387 c 1
 39 387 l 1
 39 478 150 614 292 614 c 2
 392 614 l 2
 404 614 417 613 427 610 c 1
 439 640 444 660 457 702 c 1
 571 702 l 1
 550 640 539 606 517 564 c 1
 550 534 567 496 567 451 c 2xfa80
 567 0 l 1
 455 0 l 1
 455 187 l 2xf3
 452 255 383 318 323 318 c 0
 266 318 198 275 187 214 c 1
 196 214 l 2
 255 214 308 168 308 107 c 0
 308 53 262 0 196 0 c 0
 145 0 75 37 75 125 c 2
 75 146 l 2
 75 280 186 409 324 409 c 0
 371 409 438 388 464 344 c 1
 464 451 l 2xf680
EndSplineSet
EndChar

StartChar: uni0E2B
Encoding: 3627 3627 254
Width: 729
VWidth: 1507
Flags: W
HStem: 0 21G<154 293 534 644> 402 50<103.665 153.311> 561 49<102.943 188.451 504.132 590.339>
VStem: 35 57<463.023 550.017> 154 111<151 402> 200 65<462.471 550.845> 428 65<463.007 549.401> 534 110<0 345> 601 62<462.861 549.812>
LayerCount: 2
Fore
SplineSet
534 345 m 1xf3
 450 268 325 130 261 0 c 1
 154 0 l 1
 154 402 l 1xfb
 97 402 35 446 35 508 c 0
 35 565 92 610 151 610 c 0
 214 610 265 560 265 510 c 2xf6
 265 151 l 1
 267 172 272 209 277 222 c 1
 380 364 427 397 473 427 c 1
 450 444 428 471 428 510 c 0
 428 564 478 614 546 614 c 0
 596 614 663 569 663 510 c 0xfa80
 663 476 647 448 615 424 c 1
 629 410 639 391 644 372 c 1
 644 0 l 1
 534 0 l 1
 534 345 l 1xf3
146 561 m 256
 117 561 92 538 92 506 c 256
 92 475 118 452 146 452 c 256
 178 452 200 478 200 506 c 256xf6
 200 539 176 561 146 561 c 256
547 561 m 256
 518 561 493 538 493 506 c 256
 493 475 519 452 547 452 c 256
 579 452 601 478 601 506 c 256xf280
 601 539 577 561 547 561 c 256
EndSplineSet
EndChar

StartChar: uni0E2C
Encoding: 3628 3628 255
Width: 771
VWidth: 1507
Flags: W
HStem: -6 21G<259.5 303 541.231 589.5> 405 50<106.665 165.124> 564 50<106.867 192.337> 633 53<508.229 588.775> 794 50<507.913 595.137>
VStem: 38 57<466.06 552.657> 166 102<136 407> 203 65<465.155 552.828> 434 63<697.047 783.084> 589 98<139.906 635>
LayerCount: 2
Fore
SplineSet
778 825 m 1xfec0
 738 733 699 695 687 683 c 1
 687 161 l 2
 687 86 632 9 547 -6 c 1
 427 410 l 1
 347 159 320 75 286 -6 c 1
 233 -6 166 23 166 77 c 2
 166 407 l 1xfec0
 157 405 l 1
 100 405 38 449 38 511 c 0
 38 566 93 614 154 614 c 0
 209 614 268 570 268 513 c 2xfdc0
 268 136 l 1
 269 150 274 194 279 207 c 2
 410 612 l 1
 460 607 474 573 476 562 c 2
 579 207 l 2
 584 193 588 161 589 139 c 1
 589 635 l 1
 586 634 581 633 572 633 c 2
 555 633 l 2
 488 633 434 679 434 739 c 0
 434 788 487 844 558 844 c 0
 602 844 659 810 672 770 c 1
 683 787 694 802 704 825 c 1
 778 825 l 1xfec0
149 564 m 256
 118 564 95 538 95 510 c 256
 95 478 120 455 149 455 c 256
 179 455 203 477 203 510 c 256xfdc0
 203 538 181 564 149 564 c 256
552 794 m 256
 519 794 497 770 497 740 c 256
 497 711 520 686 552 686 c 256
 583 686 606 712 606 740 c 256
 606 772 580 794 552 794 c 256
EndSplineSet
Substitution2: "Single Substitution lookup 22 subtable" uni0E2C.alt1
Substitution2: "Single Substitution lookup 22 subtable" uni0E2C.alt1
EndChar

StartChar: uni0E2D
Encoding: 3629 3629 256
Width: 642
VWidth: 1507
Flags: W
HStem: 0 83<203 428.656> 197 53<203.731 263.795> 359 51<177.885 265.038> 531 83<203.836 425.52>
VStem: 99 68<260.97 347.669> 99 104<83 197> 276 62<261.405 347.812> 448 108<103.149 154 154 506.277>
LayerCount: 2
Fore
SplineSet
338 303 m 256xfb
 338 244 275 197 219 197 c 2
 203 197 l 1
 203 83 l 1
 389 83 l 2
 422 83 448 121 448 154 c 2
 448 457 l 2
 448 495 415 531 381 531 c 2
 285 531 l 2
 220 531 172 495 143 455 c 1
 35 455 l 1
 75 544 183 614 285 614 c 2
 381 614 l 2
 480 614 556 537 556 460 c 2
 556 155 l 2
 556 73 475 -0 389 0 c 2
 185 0 l 2
 128 0 99 44 99 78 c 2xf7
 99 306 l 2
 99 356 153 410 219 410 c 256
 272 410 338 364 338 303 c 256xfb
222 359 m 256
 189 359 167 333 167 304 c 256xfb
 167 275 190 250 222 250 c 256
 253 250 276 276 276 304 c 256
 276 336 251 359 222 359 c 256
EndSplineSet
EndChar

StartChar: uni0E2E
Encoding: 3630 3630 257
Width: 631
VWidth: 1507
Flags: W
HStem: 0 83<196 417.439> 127 52<196.612 256.594> 288 51<170.818 257.1> 369 74<157.359 308.067> 535 77<191.735 383.922>
VStem: 56 90<457.149 522.148> 92 68<189.155 277.31> 268 62<189.614 276.413> 433 99<613.277 672> 437 112<100.548 436>
LayerCount: 2
Fore
SplineSet
405 519 m 1xfd
 395 529 378 534 371 535 c 1
 214 535 l 2
 193 534 146 525 146 487 c 0
 146 469 170 443 219 443 c 0
 342 443 386 491 405 519 c 1xfd
330 232 m 256
 330 177 275 127 211 127 c 2
 196 127 l 1
 196 83 l 1
 381 83 l 2
 417 83 437 122 437 161 c 2
 437 436 l 1xfb40
 384 377 271 369 214 369 c 256
 139 369 56 409 56 473 c 0
 56 562 145 612 223 612 c 2
 371 612 l 2
 391 612 408 611 424 607 c 1
 427 620 429 633 433 672 c 1
 532 672 l 1xfd80
 528 632 520 586 508 553 c 1
 538 526 549 475 549 449 c 2
 549 157 l 2
 549 73 471 -0 380 0 c 2
 181 0 l 2
 134 0 92 34 92 75 c 2
 92 235 l 2xfb40
 92 281 140 339 211 339 c 256
 264 339 330 295 330 232 c 256
214 288 m 256
 182 288 160 262 160 234 c 256
 160 201 184 179 214 179 c 256
 244 179 268 201 268 234 c 256
 268 262 246 288 214 288 c 256
EndSplineSet
EndChar

StartChar: uni0E2F
Encoding: 3631 3631 258
Width: 624
VWidth: 1507
Flags: W
HStem: 0 101<339 391.556> 333 91<241 324.004> 556 51<112.681 199.882>
VStem: 35 66<458.961 545.021> 210 63<458.724 544.659> 425 115<133.951 402 529.794 615>
LayerCount: 2
Fore
SplineSet
425 402 m 1
 382 366 312 333 238 333 c 0
 117 333 35 412 35 499 c 0
 35 562 100 607 157 607 c 0
 222 607 273 559 273 500 c 0
 273 462 262 437 241 424 c 1
 261 425 l 2
 333 425 425 513 425 615 c 1
 540 615 l 1
 540 188 l 2
 540 63 473 -0 339 0 c 1
 339 101 l 1
 390 104 425 142 425 197 c 2
 425 402 l 1
155 556 m 256
 127 556 101 534 101 502 c 256
 101 470 127 448 155 448 c 256
 188 448 210 472 210 502 c 256
 210 532 188 556 155 556 c 256
EndSplineSet
EndChar

StartChar: uni0E30
Encoding: 3632 3632 259
Width: 584
VWidth: 1507
Flags: W
HStem: 32 83<246 329.427> 241 53<116.873 203.106> 318 83<250 337.624> 528 52<121.814 207.47>
VStem: 39 67<142.52 232.435 431.676 517.097> 214 63<147.851 225.273 430.303 516.392> 433 96<223.906 301 502.822 588>
LayerCount: 2
Fore
SplineSet
258 401 m 2
 344 401 437 479 437 588 c 1
 534 588 l 1
 534 458 412 318 253 318 c 0
 156 318 44 372 44 473 c 0
 44 533 102 580 166 580 c 0
 227 580 282 529 282 473 c 0
 282 437 272 414 250 401 c 1
 258 401 l 2
253 115 m 2
 344 115 433 197 433 301 c 1
 529 301 l 1
 529 159 396 32 249 32 c 0
 141 32 39 94 39 187 c 0
 39 247 97 294 161 294 c 0
 223 294 277 242 277 187 c 0
 277 152 268 129 246 115 c 1
 253 115 l 2
164 528 m 256
 135 528 110 505 110 473 c 256
 110 442 136 419 164 419 c 256
 196 419 219 444 219 473 c 256
 219 506 193 528 164 528 c 256
160 241 m 256
 128 241 106 217 106 187 c 256
 106 155 130 133 160 133 c 256
 188 133 214 155 214 187 c 256
 214 219 188 241 160 241 c 256
EndSplineSet
EndChar

StartChar: uni0E31
Encoding: 3633 3633 260
Width: 0
VWidth: 1507
Flags: W
HStem: 687 83<-191 -108.688> 897 53<-319.85 -234.29>
VStem: -398 66<800.158 885.32> -223 63<798.927 885.56> -5 97<872.77 957>
LayerCount: 2
Fore
SplineSet
-184 770 m 2
 -94 770 -5 852 -5 957 c 1
 92 957 l 1
 92 814 -44 687 -188 687 c 0
 -297 687 -398 749 -398 843 c 0
 -398 902 -339 950 -276 950 c 0
 -214 950 -160 898 -160 843 c 0
 -160 808 -169 784 -191 770 c 1
 -184 770 l 2
-277 897 m 256
 -309 897 -332 872 -332 843 c 256
 -332 810 -306 788 -277 788 c 256
 -248 788 -223 811 -223 843 c 256
 -223 874 -249 897 -277 897 c 256
EndSplineSet
Substitution2: "Single Substitution lookup 22 subtable" uni0E31.alt1
Substitution2: "Single Substitution lookup 22 subtable" uni0E31.alt1
EndChar

StartChar: uni0E32
Encoding: 3634 3634 261
Width: 572
VWidth: 1507
Flags: W
HStem: 0 21G<375 487> 523 91<197.498 353.523>
VStem: 375 112<0 501.454>
LayerCount: 2
Fore
SplineSet
314 614 m 2
 411 614 487 535 487 452 c 2
 487 0 l 1
 375 0 l 1
 375 452 l 2
 375 495 343 519 314 523 c 2
 262 523 l 2
 231 519 155 499 119 412 c 1
 24 445 l 1
 50 504 120 614 265 614 c 2
 314 614 l 2
EndSplineSet
EndChar

StartChar: uni0E34
Encoding: 3636 3636 263
Width: 0
VWidth: 1507
Flags: MW
HStem: 731 62<-493 -410.183> 874 64<-426.742 -258.564>
LayerCount: 2
Fore
SplineSet
-594 731 m 1
 -565 851 -468 938 -332 938 c 0
 -179 938 -107 798 -77 671 c 1
 -290 723 -394 731 -594 731 c 1
-179 754 m 1
 -209 828 -268 874 -327 874 c 0
 -399 874 -467 843 -493 793 c 1
 -430 793 -268 782 -179 754 c 1
EndSplineSet
Substitution2: "Single Substitution lookup 22 subtable" uni0E34.alt1
Substitution2: "Single Substitution lookup 22 subtable" uni0E34.alt1
EndChar

StartChar: uni0E35
Encoding: 3637 3637 264
Width: 0
VWidth: 1507
Flags: W
HStem: 731 62<-493 -410.183> 874 64<-426.742 -257.234>
VStem: -163 82<835 942>
LayerCount: 2
Fore
SplineSet
-332 938 m 0
 -276 938 -163 905 -163 835 c 1
 -163 942 l 1
 -81 942 l 1
 -81 690 l 1
 -77 671 l 1
 -290 723 -394 731 -594 731 c 1
 -565 851 -468 938 -332 938 c 0
-179 754 m 1
 -209 828 -268 874 -327 874 c 0
 -399 874 -467 843 -493 793 c 1
 -430 793 -268 782 -179 754 c 1
EndSplineSet
Substitution2: "Single Substitution lookup 22 subtable" uni0E35.alt1
Substitution2: "Single Substitution lookup 22 subtable" uni0E35.alt1
EndChar

StartChar: uni0E36
Encoding: 3638 3638 265
Width: 0
VWidth: 1507
Flags: MW
HStem: 716 62<-493 -410.183> 859 64<-426.742 -275.638> 923 46<-182.878 -96.7519>
VStem: -86 51<826.007 911.162>
LayerCount: 2
Fore
SplineSet
-35 867 m 0
 -35 806 -88 775 -113 766 c 1
 -97 732 -85 695 -77 656 c 1
 -278 705 -387 716 -594 716 c 1
 -565 836 -468 923 -332 923 c 0
 -305 923 -278 918 -253 907 c 1
 -241 935 -211 969 -148 969 c 0
 -91 969 -35 927 -35 867 c 0
-140 923 m 256
 -170 923 -194 901 -194 868 c 256
 -194 840 -172 814 -140 814 c 256
 -109 814 -86 840 -86 868 c 256
 -86 900 -111 923 -140 923 c 256
-179 739 m 1
 -209 813 -268 859 -327 859 c 0
 -399 859 -467 828 -493 778 c 1
 -430 778 -268 767 -179 739 c 1
EndSplineSet
Substitution2: "Single Substitution lookup 22 subtable" uni0E36.alt1
Substitution2: "Single Substitution lookup 22 subtable" uni0E36.alt1
EndChar

StartChar: uni0E37
Encoding: 3639 3639 266
Width: 0
VWidth: 1507
Flags: MW
HStem: 731 62<-493 -410.183> 874 64<-426.742 -292.965>
VStem: -163 82<847 969>
LayerCount: 2
Fore
SplineSet
-594 731 m 1
 -565 851 -468 938 -332 938 c 0
 -320 938 -305 936 -288 933 c 1
 -288 969 l 1
 -207 969 l 1
 -207 901 l 1
 -173 881 -163 858 -163 847 c 1
 -163 969 l 1
 -81 969 l 1
 -81 690 l 1
 -77 671 l 1
 -290 723 -394 731 -594 731 c 1
-179 754 m 1
 -209 828 -268 874 -327 874 c 0
 -399 874 -467 843 -493 793 c 1
 -430 793 -268 782 -179 754 c 1
EndSplineSet
Substitution2: "Single Substitution lookup 22 subtable" uni0E37.alt1
Substitution2: "Single Substitution lookup 22 subtable" uni0E37.alt1
EndChar

StartChar: uni0E38
Encoding: 3640 3640 267
Width: 0
VWidth: 1507
Flags: W
HStem: -244 44<-285.078 -238.433> -92 42<-285.053 -199.724>
VStem: -353 56<-188.511 -102.968> -238 110<-339 -244> -188 60<-189.324 -104.066>
LayerCount: 2
Fore
SplineSet
-243 -50 m 0xf0
 -178 -50 -128 -97 -128 -146 c 2xe8
 -128 -339 l 1
 -238 -339 l 1
 -238 -244 l 1
 -244 -244 l 2
 -301 -244 -353 -197 -353 -148 c 0
 -353 -97 -306 -50 -243 -50 c 0xf0
-243 -92 m 256
 -274 -92 -297 -118 -297 -146 c 256
 -297 -178 -271 -200 -243 -200 c 256
 -210 -200 -188 -176 -188 -146 c 256
 -188 -117 -211 -92 -243 -92 c 256
EndSplineSet
Substitution2: "Single Substitution lookup 21 subtable" a
Substitution2: "Single Substitution lookup 22 subtable" uni0E38.alt1
Substitution2: "Single Substitution lookup 21 subtable" a
Substitution2: "Single Substitution lookup 22 subtable" uni0E38.alt1
EndChar

StartChar: uni0E39
Encoding: 3641 3641 268
Width: 0
VWidth: 1507
Flags: W
HStem: -347 85<-261 -208> -244 44<-420.308 -371.12> -92 42<-419.728 -334.339>
VStem: -485 54<-188.511 -103.189> -323 62<-190.087 -104.388> -208 104<-262 -51>
LayerCount: 2
Fore
SplineSet
-375 -50 m 0
 -316 -50 -261 -93 -261 -146 c 2
 -261 -262 l 1
 -208 -262 l 1
 -208 -51 l 1
 -104 -51 l 1
 -104 -262 l 2
 -106 -315 -131 -347 -202 -347 c 2
 -371 -347 l 1
 -371 -244 l 1
 -377 -244 l 2
 -434 -244 -485 -197 -485 -148 c 0
 -485 -98 -440 -50 -375 -50 c 0
-377 -92 m 256
 -408 -92 -431 -118 -431 -146 c 256
 -431 -178 -405 -200 -377 -200 c 256
 -345 -200 -323 -176 -323 -146 c 256
 -323 -118 -345 -92 -377 -92 c 256
EndSplineSet
Substitution2: "Single Substitution lookup 21 subtable" b
Substitution2: "Single Substitution lookup 22 subtable" uni0E39.alt1
Substitution2: "Single Substitution lookup 21 subtable" b
Substitution2: "Single Substitution lookup 22 subtable" uni0E39.alt1
EndChar

StartChar: uni0E3A
Encoding: 3642 3642 269
Width: 0
VWidth: 1507
Flags: W
HStem: -250 141<-207.481 -102.519>
VStem: -226 142<-230.625 -128.25>
LayerCount: 2
Fore
SplineSet
-155 -250 m 256
 -194 -250 -226 -222 -226 -179 c 256
 -226 -137 -194 -109 -155 -109 c 256
 -116 -109 -84 -137 -84 -179 c 256
 -84 -222 -116 -250 -155 -250 c 256
EndSplineSet
Substitution2: "Single Substitution lookup 21 subtable" c
Substitution2: "Single Substitution lookup 22 subtable" uni0E3A.alt1
Substitution2: "Single Substitution lookup 21 subtable" c
Substitution2: "Single Substitution lookup 22 subtable" uni0E3A.alt1
EndChar

StartChar: uni0E3F
Encoding: 3647 3647 270
Width: 646
VWidth: 1507
Flags: W
HStem: 0 83<176 268 374 430.551> 341 81<176 268 374 424.933> 648 82<176 268 374 421.753>
VStem: 65 111<83 341 422 648> 268 106<-78 0 83 341 427 644 730 805> 463 98<465.72 604.198> 481 114<138.3 287.607>
LayerCount: 2
Fore
SplineSet
595 213 m 0xfa
 595 105 497 -0 384 0 c 2
 374 0 l 1
 374 -78 l 1
 268 -78 l 1
 268 0 l 1
 65 0 l 1
 65 730 l 1
 268 730 l 1
 268 805 l 1
 374 805 l 1
 374 730 l 1
 495 714 561 621 561 534 c 0xfc
 561 471 516 407 485 393 c 1
 541 371 595 282 595 213 c 0xfa
481 213 m 256xfa
 481 273 435 341 384 341 c 2
 374 341 l 1
 374 83 l 1
 384 83 l 2
 436 83 481 153 481 213 c 256xfa
176 83 m 1
 268 83 l 1
 268 341 l 1
 176 341 l 1
 176 83 l 1
176 422 m 1
 268 422 l 1
 268 648 l 1
 176 648 l 1
 176 422 l 1
374 427 m 1
 424 427 463 480 463 534 c 256xfc
 463 583 433 644 374 644 c 1
 374 427 l 1
EndSplineSet
EndChar

StartChar: uni0E40
Encoding: 3648 3648 271
Width: 360
VWidth: 1507
Flags: W
HStem: -2 53<149.346 235.5> 160 53<184.274 235.851> 594 20G<74 184>
VStem: 74 110<213 614> 74 65<61.203 149.529> 247 65<62.0508 149.117>
LayerCount: 2
Fore
SplineSet
191 -2 m 0xf4
 122 -2 74 51 74 106 c 2xec
 74 614 l 1
 184 614 l 1
 184 213 l 1
 191 213 l 2
 259 213 312 162 312 106 c 0
 312 55 263 -2 191 -2 c 0xf4
193 160 m 256
 161 160 139 134 139 106 c 256
 139 73 163 51 193 51 c 256
 223 51 247 73 247 106 c 256
 247 134 225 160 193 160 c 256
EndSplineSet
EndChar

StartChar: uni0E42
Encoding: 3650 3650 273
Width: 345
VWidth: 1507
Flags: W
HStem: -2 53<174.586 259.538> 160 53<208.274 259.476> 945 83<128.103 269.325> 981 85<17.5952 122.982>
VStem: 98 110<213 784> 98 65<61.1551 149.529> 271 65<61.8328 149.546>
LayerCount: 2
Fore
SplineSet
216 -2 m 0xda
 151 -2 98 45 98 106 c 2xd6
 98 784 l 1
 66 813 0 836 -128 858 c 1
 -128 933 -99 1066 54 1066 c 0xda
 124 1059 167 1028 220 1028 c 0
 244 1028 289 1060 338 1106 c 1
 366 1027 l 1
 330 979 265 945 220 945 c 0xea
 120 945 91 981 51 981 c 0
 35 981 -13 968 -15 920 c 1
 81 899 148 870 208 814 c 1
 208 213 l 1
 216 213 l 2
 281 213 336 164 336 106 c 0
 336 54 286 -2 216 -2 c 0xda
217 160 m 256
 185 160 163 134 163 106 c 256
 163 73 187 51 217 51 c 256
 247 51 271 73 271 106 c 256
 271 134 249 160 217 160 c 256
EndSplineSet
EndChar

StartChar: uni0E43
Encoding: 3651 3651 274
Width: 346
VWidth: 1507
Flags: W
HStem: -2 53<175.674 261.353> 160 53<210.249 260.615> 790 53<-50.0972 37.6998> 951 53<-25.6015 37.6343> 1019 62<-13.5312 94.165>
VStem: -130 70<853.594 941.093> 48 51<853.526 939.95> 98 112<213 811.398> 98 66<63.3824 149.03> 142 99<815.267 970.273> 273 65<62.5879 148.017>
LayerCount: 2
Fore
SplineSet
217 -2 m 0xfd20
 144 -2 98 56 98 106 c 2xfca0
 98 725 l 2xfd20
 98 792 142 836 142 903 c 0
 142 975 85 1019 30 1019 c 0
 5 1019 -12 1015 -26 1001 c 1
 -21 1003 -14 1004 -5 1004 c 0
 51 1004 99 946 99 897 c 0
 99 846 63 790 -5 790 c 0
 -87 790 -130 860 -130 916 c 0
 -130 1007 -66 1081 53 1081 c 0
 153 1081 241 994 241 903 c 0xfe60
 241 805 210 774 210 725 c 2
 210 213 l 1
 217 213 l 2
 282 213 338 164 338 106 c 0
 338 55 289 -2 217 -2 c 0xfd20
219 160 m 256
 187 160 164 135 164 106 c 256
 164 73 190 51 219 51 c 256
 248 51 273 74 273 106 c 256
 273 137 247 160 219 160 c 256
-6 951 m 256
 -38 951 -60 927 -60 897 c 256
 -60 865 -36 843 -6 843 c 256
 26 843 48 867 48 897 c 256xfe20
 48 929 24 951 -6 951 c 256
EndSplineSet
EndChar

StartChar: uni0E44
Encoding: 3652 3652 275
Width: 349
VWidth: 1507
Flags: W
HStem: -2 53<175.674 261.353> 160 53<210.249 260.615>
VStem: 98 66<63.3824 149.03> 98 112<213 906> 273 65<62.5879 148.017>
LayerCount: 2
Fore
SplineSet
103 1076 m 1xd8
 158 1076 210 1044 210 996 c 2
 210 213 l 1xd8
 217 213 l 2
 282 213 338 164 338 106 c 0
 338 55 289 -2 217 -2 c 0
 144 -2 98 56 98 106 c 2xe8
 98 906 l 1
 12 757 l 1
 -18 757 -43 764 -56 784 c 2
 -220 1066 l 1
 -121 1066 l 1
 -11 870 l 1
 103 1076 l 1xd8
219 160 m 256
 187 160 164 135 164 106 c 256xe8
 164 73 190 51 219 51 c 256
 248 51 273 74 273 106 c 256
 273 137 247 160 219 160 c 256
EndSplineSet
EndChar

StartChar: uni0E45
Encoding: 3653 3653 276
Width: 553
VWidth: 1507
Flags: W
HStem: 523 91<197.498 353.523>
VStem: 375 112<-252 501.454>
LayerCount: 2
Fore
SplineSet
314 614 m 2
 411 614 487 535 487 452 c 2
 487 -252 l 1
 375 -252 l 1
 375 452 l 2
 375 495 343 519 314 523 c 2
 262 523 l 2
 231 519 155 499 119 412 c 1
 24 445 l 1
 50 504 120 614 265 614 c 2
 314 614 l 2
EndSplineSet
EndChar

StartChar: uni0E46
Encoding: 3654 3654 277
Width: 584
VWidth: 1507
Flags: MW
HStem: -253 90<301 364.665> 262 47<100.117 185.79> 418 45<137.615 186.324> 511 86<196 196>
VStem: 24 65<320.862 406.498> 197 44<320.478 407.025> 390 110<-138.218 499.172>
LayerCount: 2
Fore
SplineSet
353 600 m 1
 437 591 500 510 500 454 c 2
 500 -90 l 2
 500 -152 471 -253 301 -253 c 1
 301 -163 l 1
 359 -163 390 -130 390 -90 c 2
 390 399 l 2
 390 478 385 496 359 506 c 1
 291 402 l 1
 196 511 l 1
 153 507 140 477 137 463 c 1
 145 463 l 2
 184 463 241 423 241 363 c 0
 241 302 202 262 143 262 c 0
 72 262 24 322 24 398 c 0
 24 485 98 597 222 597 c 1
 291 508 l 1
 353 600 l 1
143 418 m 256
 114 418 89 395 89 363 c 256
 89 332 115 309 143 309 c 256
 175 309 197 335 197 363 c 256
 197 396 173 418 143 418 c 256
EndSplineSet
EndChar

StartChar: uni0E47
Encoding: 3655 3655 278
Width: 0
VWidth: 1507
Flags: W
HStem: 675 44<-278.692 -230.452> 832 38<-226.364 -153.359> 907 61<-339.171 -176.425>
VStem: -510 70<784.028 863.747> -277 45<753.196 826.297> -148 47<753.498 827.035> -146 72<995.863 1048>
LayerCount: 2
Fore
SplineSet
-277 793 m 0xfa
 -277 842 -232 870 -187 870 c 0
 -135 870 -101 840 -101 785 c 0xfc
 -101 741 -137 675 -235 675 c 0
 -295 675 -339 721 -348 745 c 1
 -387 677 l 1
 -457 677 -510 750 -510 816 c 0
 -510 926 -393 968 -300 968 c 2
 -245 968 l 2
 -178 968 -146 1007 -146 1048 c 1
 -74 1048 l 1
 -74 961 -153 907 -216 907 c 2
 -301 907 l 2
 -331 907 -430 900 -440 814 c 0
 -440 805 -427 760 -401 760 c 1
 -351 834 l 1
 -324 780 -277 719 -226 719 c 1
 -240 725 -277 749 -277 793 c 0xfa
-190 832 m 256
 -215 832 -232 813 -232 790 c 256
 -232 765 -213 748 -190 748 c 256
 -165 748 -148 767 -148 790 c 256
 -148 815 -167 832 -190 832 c 256
EndSplineSet
Substitution2: "Single Substitution lookup 22 subtable" uni0E47.alt1
Substitution2: "Single Substitution lookup 22 subtable" uni0E47.alt1
EndChar

StartChar: uni0E48
Encoding: 3656 3656 279
Width: 0
VWidth: 1507
Flags: W
VStem: -166 89<1010 1204 1010 1204 1010 1010>
LayerCount: 2
Fore
SplineSet
-166 1204 m 1
 -77 1204 l 1
 -77 1010 l 1
 -166 1010 l 1
 -166 1204 l 1
EndSplineSet
Substitution2: "Single Substitution lookup 22 subtable" uni0E48.alt2
Substitution2: "Single Substitution lookup 22 subtable" uni0E48.alt2
EndChar

StartChar: uni0E49
Encoding: 3657 3657 280
Width: 0
VWidth: 1507
Flags: MW
HStem: 978 41<-216.493 -157.479 -103 -64.4528> 1054 36<-167.397 -134.047> 1162 42<-166.82 -100.602>
VStem: -217 47<1092.73 1150.42> -98 45<1093.18 1159.22> 27 66<1131.38 1197>
LayerCount: 2
Fore
SplineSet
93 1197 m 1
 93 1088 -8 978 -121 978 c 0
 -166 978 -198 984 -246 1019 c 1
 -164 1019 -152 1044 -148 1055 c 1
 -150 1054 -153 1054 -155 1054 c 0
 -182 1054 -217 1087 -217 1125 c 0
 -217 1163 -184 1204 -134 1204 c 256
 -85 1204 -53 1164 -53 1125 c 0
 -53 1102 -70 1045 -103 1024 c 1
 -46 1024 25 1142 27 1197 c 1
 93 1197 l 1
-134 1162 m 256
 -163 1162 -170 1139 -170 1126 c 0
 -170 1097 -150 1090 -134 1090 c 256
 -120 1090 -98 1097 -98 1126 c 0
 -98 1146 -112 1162 -134 1162 c 256
EndSplineSet
Substitution2: "Single Substitution lookup 22 subtable" uni0E49.alt2
Substitution2: "Single Substitution lookup 22 subtable" uni0E49.alt2
EndChar

StartChar: uni0E4A
Encoding: 3658 3658 281
Width: 0
VWidth: 1507
Flags: W
HStem: 983 33<-274.31 -206.045> 1090 33<-242.343 -206.695> 1156 47<-237.115 -194>
VStem: -312 35<1035.2 1069.83> -203 33<1024.36 1086.63> -59 48<1052.79 1138.28> 21 47<1077.89 1206>
LayerCount: 2
Fore
SplineSet
-81 986 m 1
 -73 1006 -59 1051 -59 1094 c 0
 -59 1115 -62 1134 -69 1149 c 1
 -131 1052 l 1
 -194 1156 l 1
 -220 1156 -241 1134 -243 1123 c 1
 -192 1123 -170 1078 -170 1049 c 0
 -170 1035 -175 1020 -185 1006 c 0
 -195 990 -215 983 -244 983 c 0
 -270 983 -312 1012 -312 1051 c 2
 -312 1094 l 2
 -312 1181 -216 1203 -166 1203 c 1
 -133 1137 l 1
 -129 1147 -124 1158 -116 1172 c 2
 -99 1203 l 1
 -29 1203 -11 1150 -11 1111 c 0
 -11 1073 -11 1065 -17 1057 c 1
 -23 1043 l 1
 -2 1057 21 1111 21 1206 c 1
 68 1206 l 1
 68 1021 -21 986 -81 986 c 1
-241 1090 m 256
 -270 1090 -277 1067 -277 1052 c 256
 -277 1038 -270 1016 -241 1016 c 256
 -220 1016 -203 1030 -203 1052 c 256
 -203 1075 -220 1090 -241 1090 c 256
EndSplineSet
Substitution2: "Single Substitution lookup 22 subtable" uni0E4A.alt2
Substitution2: "Single Substitution lookup 22 subtable" uni0E4A.alt2
EndChar

StartChar: uni0E4B
Encoding: 3659 3659 282
Width: 0
VWidth: 1507
Flags: W
HStem: 1067 67<-255 -164 -80 17 -255 17 -255 -255>
VStem: -164 84<984 1067 1134 1204>
LayerCount: 2
Fore
SplineSet
17 1134 m 1
 17 1067 l 1
 -80 1067 l 1
 -80 984 l 1
 -164 984 l 1
 -164 1067 l 1
 -255 1067 l 1
 -255 1134 l 1
 -164 1134 l 1
 -164 1204 l 1
 -80 1204 l 1
 -80 1134 l 1
 17 1134 l 1
EndSplineSet
Substitution2: "Single Substitution lookup 22 subtable" uni0E4B.alt2
Substitution2: "Single Substitution lookup 22 subtable" uni0E4B.alt2
EndChar

StartChar: uni0E4C
Encoding: 3660 3660 283
Width: 0
VWidth: 1507
Flags: W
HStem: 915 48<-141.662 -59.6651> 1042 69<8 75.2902> 1064 47<-142.261 -59.0295>
VStem: -211 60<971.668 1054.78> -51 62<973.182 1041.77> 118 89<1143.79 1206>
LayerCount: 2
Fore
SplineSet
20 1111 m 2xdc
 59 1111 110 1147 118 1206 c 1
 207 1206 l 1
 202 1159 181 1125 149 1094 c 0
 117 1059 74 1042 20 1042 c 2
 8 1042 l 1xdc
 10 1037 11 1032 11 1028 c 2
 11 1013 l 2
 11 965 -32 915 -101 915 c 0
 -161 915 -211 961 -211 1013 c 256
 -211 1064 -164 1111 -101 1111 c 2xbc
 20 1111 l 2xdc
-101 1064 m 256xbc
 -128 1064 -151 1044 -151 1014 c 256
 -151 984 -128 963 -101 963 c 256
 -74 963 -51 984 -51 1014 c 256
 -51 1044 -74 1064 -101 1064 c 256xbc
EndSplineSet
Substitution2: "Single Substitution lookup 22 subtable" uni0E4C.alt2
Substitution2: "Single Substitution lookup 22 subtable" uni0E4C.alt2
EndChar

StartChar: uni0E4D
Encoding: 3661 3661 284
Width: 0
VWidth: 1507
Flags: W
HStem: 696 56<-271.632 -187.226> 861 49<-272.1 -185.909>
VStem: -350 67<762.564 850.945> -175 66<763.25 849.277>
LayerCount: 2
Fore
SplineSet
-229 910 m 256
 -158 910 -109 859 -109 805 c 256
 -109 752 -157 696 -229 696 c 0
 -284 696 -350 745 -350 805 c 0
 -350 859 -299 910 -229 910 c 256
-229 861 m 256
 -259 861 -283 839 -283 806 c 256
 -283 778 -261 752 -229 752 c 256
 -198 752 -175 778 -175 806 c 256
 -175 838 -200 861 -229 861 c 256
EndSplineSet
Substitution2: "Single Substitution lookup 22 subtable" uni0E4D.alt1
Substitution2: "Single Substitution lookup 22 subtable" uni0E4D.alt1
EndChar

StartChar: uni0E4E
Encoding: 3662 3662 285
Width: 0
VWidth: 1507
Flags: W
HStem: 745 71<-198.252 -127.542> 892 59<-122.129 -47> 1036 63<-120.488 65>
VStem: -298 87<819.654 888.408> -216 89<966.147 1030.1>
LayerCount: 2
Fore
SplineSet
-127 993 m 256xe8
 -127 972 -112 951 -93 951 c 2
 -47 951 l 1
 -47 892 l 1
 -176 892 l 2
 -195 892 -211 873 -211 852 c 256
 -211 823 -186 816 -175 816 c 0
 -157 816 -147 820 -137 829 c 1
 -83 782 l 1
 -110 757 -141 745 -176 745 c 0
 -242 745 -298 793 -298 852 c 0xf0
 -298 887 -273 949 -200 954 c 1
 -211 971 -216 985 -216 993 c 0
 -216 1051 -160 1099 -93 1099 c 2
 65 1099 l 1
 65 1036 l 1
 -86 1036 l 2
 -110 1036 -127 1015 -127 993 c 256xe8
EndSplineSet
Substitution2: "Single Substitution lookup 22 subtable" uni0E4E.alt1
Substitution2: "Single Substitution lookup 22 subtable" uni0E4E.alt1
EndChar

StartChar: uni0E4F
Encoding: 3663 3663 286
Width: 688
VWidth: 1507
Flags: W
HStem: -12 83<252.022 428.715> 131 71<289.312 392.683> 369 71<287.877 394.903> 503 85<250.533 425.828>
VStem: 27 103<192.411 379.355> 184 78<229.288 342.399> 421 76<229.499 343.648> 552 101<192.387 379.542>
LayerCount: 2
Fore
SplineSet
27 286 m 0
 27 429 150 588 341 588 c 0
 512 588 653 445 653 286 c 256
 653 128 516 -12 341 -12 c 0
 163 -12 27 127 27 286 c 0
552 286 m 0
 552 415 442 503 341 503 c 0
 220 503 130 402 130 286 c 0
 130 166 227 71 341 71 c 256
 452 71 552 165 552 286 c 0
341 131 m 256
 244 131 184 209 184 286 c 256
 184 367 247 440 341 440 c 256
 434 440 497 367 497 286 c 256
 497 210 437 131 341 131 c 256
341 369 m 256
 294 369 262 330 262 286 c 256
 262 239 298 202 341 202 c 256
 384 202 421 239 421 286 c 256
 421 335 385 369 341 369 c 256
EndSplineSet
EndChar

StartChar: uni0E50
Encoding: 3664 3664 287
Width: 679
VWidth: 1507
Flags: W
HStem: -12 92<262.503 435.22> 452 94<259.302 436.066>
VStem: 48 113<180.724 353.571> 532 113<179.519 351.58>
LayerCount: 2
Fore
SplineSet
347 546 m 256
 513 546 645 409 645 267 c 0
 645 118 512 -12 347 -12 c 256
 174 -12 48 122 48 267 c 256
 48 417 188 546 347 546 c 256
347 452 m 256
 235 452 161 364 161 265 c 256
 161 162 245 80 347 80 c 256
 457 80 532 169 532 265 c 256
 532 362 460 452 347 452 c 256
EndSplineSet
EndChar

StartChar: uni0E51
Encoding: 3665 3665 288
Width: 648
VWidth: 1507
Flags: W
HStem: -60 84<291.201 380.26> 104 75<201.338 349.537> 288 62<263.931 348.614> 458 91<242.922 412.102>
VStem: 45 113<239.393 380.995> 188 64<229.433 236 232.717 276.438> 360 67<190.242 277.018> 506 111<186.76 362.216>
LayerCount: 2
Fore
SplineSet
332 549 m 256
 478 549 617 418 617 280 c 0
 617 123 481 -26 308 -60 c 1
 276 24 l 1
 424 59 506 178 506 280 c 0
 506 364 437 458 333 458 c 256
 238 458 158 397 158 306 c 0
 158 275 168 249 188 229 c 1
 188 235 187 237 187 243 c 0
 187 297 233 350 306 350 c 0
 374 350 427 300 427 243 c 0
 427 172 370 104 267 104 c 0
 140 104 45 203 45 306 c 0
 45 446 181 549 332 549 c 256
306 288 m 256
 274 288 252 262 252 234 c 256
 252 201 276 179 306 179 c 256
 336 179 360 201 360 234 c 256
 360 262 338 288 306 288 c 256
EndSplineSet
EndChar

StartChar: uni0E52
Encoding: 3666 3666 289
Width: 824
VWidth: 1507
Flags: W
HStem: 0 90<216.192 593.755> 185 53<283.155 368.679> 347 52<317.018 368.1> 451 90<333.33 437.805>
VStem: 54 110<141.827 695.245> 203 68<248.919 321.641 307.614 335.669> 380 65<249.355 336.063> 645 112<141.159 423.262>
LayerCount: 2
Fore
SplineSet
54 494 m 2
 54 643 53 719 -48 790 c 1
 9 870 l 1
 160 765 164 692 164 494 c 2
 164 194 l 2
 164 139 228 90 274 90 c 2
 532 90 l 2
 586 90 645 143 645 191 c 2
 645 375 l 2
 645 401 622 432 600 442 c 1
 503 348 l 1
 478 383 l 2
 471 393 429 451 396 451 c 0
 349 451 323 434 317 399 c 1
 326 399 l 2
 388 399 445 350 445 294 c 0
 445 240 389 185 326 185 c 256
 259 185 203 244 203 294 c 0
 203 312 205 316 205 338 c 2
 205 375 l 2
 205 459 267 541 396 541 c 0
 461 541 472 490 510 452 c 1
 591 538 l 1
 657 538 757 466 757 375 c 2
 757 190 l 2
 757 81 641 0 534 0 c 2
 274 0 l 2
 173 0 54 83 54 190 c 2
 54 494 l 2
326 347 m 256
 293 347 271 321 271 292 c 256
 271 263 294 238 326 238 c 256
 357 238 380 264 380 292 c 256
 380 324 355 347 326 347 c 256
EndSplineSet
EndChar

StartChar: uni0E53
Encoding: 3667 3667 290
Width: 752
VWidth: 1507
Flags: W
HStem: -4 58<175.255 260.097> 163 53<173.756 260.031>
VStem: 29 111<206.693 355.458> 271 64<64.4878 151.687> 576 108<0 428.884>
LayerCount: 2
Fore
SplineSet
224 -4 m 0
 121 -4 29 112 29 261 c 0
 29 458 180 541 304 541 c 1
 377 386 l 1
 449 541 l 1
 526 541 l 2
 620 541 684 453 684 372 c 2
 684 0 l 1
 576 0 l 1
 576 377 l 2
 576 412 547 449 517 449 c 1
 378 166 l 1
 237 440 l 1
 174 424 140 320 140 250 c 0
 140 230 143 211 148 194 c 1
 164 206 189 216 217 216 c 0
 288 216 335 163 335 109 c 256
 335 52 286 -4 224 -4 c 0
217 163 m 256
 185 163 163 137 163 109 c 256
 163 76 187 54 217 54 c 256
 247 54 271 76 271 109 c 256
 271 137 249 163 217 163 c 256
EndSplineSet
EndChar

StartChar: uni0E54
Encoding: 3668 3668 291
Width: 764
VWidth: 1507
Flags: W
HStem: -6 90<237.077 452.855> 9 86<329.889 455> 300 51<389.104 474.943> 443 89<231.296 434.5 434.5 434.5 434.5 559.407>
VStem: 26 111<180.579 347.394> 315 63<202.557 288.849> 487 66<202.302 288.154> 686 107<687.18 808>
LayerCount: 2
Fore
SplineSet
476 534 m 0xbf
 602 534 677 637 686 809 c 1
 793 808 l 1
 793 618 689 442 476 442 c 0
 443 442 426 443 393 443 c 2
 317 443 l 2
 200 443 137 350 137 259 c 0
 137 162 226 84 326 84 c 0xbf
 383 84 392 95 455 95 c 1
 324 155 315 213 315 243 c 0
 315 300 366 351 433 351 c 0
 499 351 553 299 553 247 c 0
 553 216 541 189 516 167 c 1
 535 154 577 133 620 114 c 2
 683 88 l 2
 704 79 723 73 739 69 c 1
 713 -20 l 1
 670 -9 582 9 494 9 c 0x7f
 427 9 410 -6 326 -6 c 0
 159 -6 26 100 26 259 c 256
 26 423 152 532 317 532 c 2
 393 532 l 2
 426 532 443 534 476 534 c 0xbf
433 300 m 256
 401 300 378 275 378 246 c 256
 378 213 404 191 433 191 c 256
 462 191 487 214 487 246 c 256
 487 277 461 300 433 300 c 256
EndSplineSet
EndChar

StartChar: uni0E55
Encoding: 3669 3669 292
Width: 764
VWidth: 1507
Flags: W
HStem: -6 90<236.435 417.162> 300 51<390 475.476> 442 81<452.668 536.071> 443 89<233.977 372.862 372.862 392> 632 55<453.662 538.308>
VStem: 26 110<180.579 347.258> 314 64<202.673 288.631> 377 65<547.663 621.305> 487 65<202.427 288.961> 686 105<686.617 808>
LayerCount: 2
Fore
SplineSet
377 582 m 0xddc0
 377 635 428 687 497 687 c 0
 569 687 613 629 615 591 c 1
 643 622 680 682 686 809 c 1
 791 808 l 1
 791 617 689 442 476 442 c 0xedc0
 443 442 426 443 393 443 c 2
 315 443 l 2
 208 443 136 358 136 259 c 0
 136 162 225 84 324 84 c 0
 371 84 402 92 410 92 c 1
 424 94 l 2
 431 95 442 95 457 95 c 1
 326 156 314 213 314 243 c 0xdec0
 314 299 364 351 433 351 c 0
 483 351 552 314 552 247 c 0
 552 218 540 191 516 167 c 1
 535 154 577 133 620 114 c 2
 683 88 l 2
 704 79 723 73 739 69 c 1
 713 -20 l 1
 649 -4 566 9 494 9 c 0
 430 9 408 -6 324 -6 c 0
 162 -6 26 100 26 259 c 256
 26 423 150 532 315 532 c 2
 354 532 l 2
 370 532 370 534 392 534 c 1
 386 545 377 566 377 582 c 0xddc0
433 300 m 256
 401 300 378 275 378 246 c 256xcec0
 378 213 404 191 433 191 c 256
 462 191 487 214 487 246 c 256
 487 277 461 300 433 300 c 256
496 632 m 256
 466 632 442 610 442 577 c 256
 442 549 464 523 496 523 c 256xedc0
 528 523 550 549 550 577 c 256
 550 610 526 632 496 632 c 256
EndSplineSet
EndChar

StartChar: uni0E56
Encoding: 3670 3670 293
Width: 700
VWidth: 1507
Flags: W
HStem: -9 89<287.689 428.589> 232 56<161.005 246.073> 463 89<185.278 413.433>
VStem: 80 69<135.826 220.196> 258 65<134.892 221.187> 534 108<187.709 356.709>
LayerCount: 2
Fore
SplineSet
56 390 m 1
 40 560 -29 692 -127 776 c 1
 -54 837 l 1
 44 748 109 662 148 525 c 1
 191 540 238 552 298 552 c 0
 500 552 642 437 642 264 c 0
 642 128 512 -9 348 -9 c 0
 123 -9 80 103 80 178 c 0
 80 236 132 288 202 288 c 0
 260 288 323 240 323 178 c 0
 323 137 297 107 271 90 c 1
 295 84 320 80 351 80 c 0
 438 80 534 169 534 264 c 0
 534 393 436 463 298 463 c 0
 234 463 107 419 56 390 c 1
203 232 m 256
 172 232 149 206 149 178 c 256
 149 146 175 124 203 124 c 256
 236 124 258 148 258 178 c 256
 258 207 235 232 203 232 c 256
EndSplineSet
EndChar

StartChar: uni0E57
Encoding: 3671 3671 294
Width: 936
VWidth: 1507
Flags: W
HStem: -4 58<174.825 260.181> 163 53<173.83 259.959>
VStem: 27 112<203.627 356.841> 271 73<64.2729 151.569> 573 110<169 430.697> 761 110<302.415 778>
LayerCount: 2
Fore
SplineSet
220 -4 m 0
 112 -4 27 125 27 261 c 0
 27 450 171 541 303 541 c 1
 375 386 l 1
 446 541 l 1
 525 541 l 2
 613 541 683 458 683 372 c 2
 683 169 l 1
 735 255 761 353 761 463 c 2
 761 778 l 1
 871 778 l 1
 871 463 l 2
 871 275 801 107 657 -8 c 1
 573 -8 l 1
 573 377 l 2
 573 411 545 449 516 449 c 1
 377 166 l 1
 235 440 l 1
 198 423 139 360 139 261 c 0
 139 248 140 215 145 196 c 1
 164 207 188 216 216 216 c 0
 279 216 344 168 344 109 c 0
 344 51 282 -4 220 -4 c 0
217 163 m 256
 185 163 163 137 163 109 c 256
 163 76 187 54 217 54 c 256
 247 54 271 76 271 109 c 256
 271 137 249 163 217 163 c 256
EndSplineSet
EndChar

StartChar: uni0E58
Encoding: 3672 3672 295
Width: 795
VWidth: 1507
Flags: W
HStem: -9 90<469.811 581.46> 298 53<586.376 673.731> 445 89<251.409 436.523 436.523 550.831>
VStem: 44 108<170.926 347.114> 511 65<200.868 287.198> 684 67<200.722 287.463> 715 104<714.034 811>
LayerCount: 2
Fore
SplineSet
353 326 m 1xfa
 390 249 433 81 522 81 c 0
 575 81 603 124 610 136 c 1
 555 145 511 186 511 243 c 0
 511 300 565 351 630 351 c 0
 688 351 751 309 751 247 c 0xfc
 751 125 672 -9 522 -9 c 0
 412 -9 354 102 339 136 c 1
 241 -15 l 1
 86 33 44 148 44 261 c 0
 44 425 168 534 332 534 c 2
 416 534 l 2
 430 534 444 534 457 535 c 0
 576 535 702 631 715 811 c 1
 819 811 l 1
 819 618 667 445 457 445 c 2
 332 445 l 2
 235 445 152 368 152 261 c 0
 152 175 201 127 214 118 c 1
 228 144 260 195 294 244 c 2
 353 326 l 1xfa
630 298 m 256
 598 298 576 274 576 244 c 256
 576 216 598 190 630 190 c 256
 662 190 684 216 684 244 c 256
 684 276 660 298 630 298 c 256
EndSplineSet
EndChar

StartChar: uni0E59
Encoding: 3673 3673 296
Width: 868
VWidth: 1507
Flags: W
HStem: -8 59<250.738 334.961> 160 53<249.153 335.407> 318 105<626.849 674.351> 418 88<200.131 293.294> 451 90<445.333 510.529>
VStem: 42 107<193.794 355.41> 347 68<62.2036 148.509> 715 108<486.931 797>
LayerCount: 2
Fore
SplineSet
823 629 m 2xef
 823 515 787 318 642 318 c 0
 539 318 522 451 484 451 c 0xef
 462 451 444 441 430 422 c 1
 457 301 516 214 609 161 c 1
 556 86 l 1
 434 157 363 248 327 398 c 1
 291 417 273 418 256 418 c 0
 173 418 149 315 149 258 c 0
 149 236 156 187 178 149 c 1
 193 181 234 213 291 213 c 0
 363 213 415 155 415 106 c 0
 415 50 360 -8 291 -8 c 0
 151 -8 42 119 42 258 c 0
 42 395 137 506 246 506 c 0xd7
 298 506 323 501 357 488 c 1
 412 540 455 541 484 541 c 0
 607 541 617 423 649 423 c 0
 682 423 715 529 715 629 c 2
 715 797 l 1
 823 797 l 1
 823 629 l 2xef
292 160 m 256
 261 160 238 134 238 106 c 256
 238 74 263 51 292 51 c 256
 325 51 347 77 347 106 c 256
 347 135 324 160 292 160 c 256
EndSplineSet
EndChar

StartChar: uni0E5A
Encoding: 3674 3674 297
Width: 892
VWidth: 1507
Flags: W
HStem: 0 21G<460 574 693 808> 360 79<163.841 306.392 288 379.442 574 612.461> 553 54<148.183 235.227>
VStem: 69 68<457.118 541.249> 246 63<464.17 541.967> 460 114<0 365 520.951 615> 693 115<0 415 523.552 615>
LayerCount: 2
Fore
SplineSet
693 415 m 1
 683 408 648 381 574 365 c 1
 574 0 l 1
 460 0 l 1
 460 416 l 1
 404 371 329 360 274 360 c 0
 171 360 69 415 69 499 c 0
 69 557 130 607 191 607 c 0
 257 607 309 559 309 500 c 0
 309 476 302 456 288 439 c 1
 298 439 l 2
 397 440 460 511 460 615 c 1
 574 615 l 1
 574 443 l 1
 648 463 693 533 693 615 c 1
 808 615 l 1
 808 0 l 1
 693 0 l 1
 693 415 l 1
191 553 m 256
 163 553 137 531 137 499 c 256
 137 467 163 445 191 445 c 256
 224 445 246 469 246 499 c 256
 246 529 224 553 191 553 c 256
EndSplineSet
EndChar

StartChar: uni0E5B
Encoding: 3675 3675 298
Width: 1129
VWidth: 1507
Flags: W
HStem: -30 77<242.941 438.023> 104 80<277.999 416.577> 241 21<1020.21 1081.6> 292 53<277.639 364.497> 457 86<229.823 396.96>
VStem: 24 106<169.385 358.349> 203 64<195.68 281.864> 375 64<219.815 281.919> 467 94<247.312 386.891>
LayerCount: 2
Fore
SplineSet
323 -30 m 0
 144 -30 24 104 24 277 c 0
 24 416 163 543 311 543 c 0
 464 543 561 449 561 304 c 0
 561 182 469 104 362 104 c 0
 256 104 203 174 203 240 c 0
 203 284 243 345 321 345 c 0
 392 345 439 295 439 240 c 0
 439 236 438 229 436 219 c 1
 460 227 467 279 467 306 c 0
 466 405 396 457 309 457 c 0
 216 457 130 373 130 277 c 0
 130 153 205 47 332 47 c 0
 482 47 604 168 604 301 c 256
 604 405 592 422 574 442 c 1
 617 413 685 339 718 241 c 1
 726 273 730 303 730 332 c 0
 730 353 728 374 721 401 c 1
 749 382 781 352 829 256 c 1
 834 278 837 299 837 318 c 0
 837 329 836 352 831 374 c 1
 879 348 916 297 930 273 c 1
 930 280 932 282 932 291 c 0
 932 315 929 321 923 351 c 1
 1003 279 1044 270 1120 262 c 0
 1125 262 1123 261 1128 261 c 1
 1101 248 1076 241 1051 241 c 0
 1043 241 1011 240 966 265 c 1
 966 260 969 244 939 188 c 1
 929 203 918 217 885 259 c 1
 878 211 850 162 834 145 c 1
 775 256 l 1
 767 206 739 151 711 128 c 1
 701 161 683 215 662 255 c 1
 646 71 476 -30 323 -30 c 0
321 292 m 256
 289 292 267 268 267 238 c 256
 267 210 289 184 321 184 c 256
 353 184 375 210 375 238 c 256
 375 270 351 292 321 292 c 256
EndSplineSet
EndChar

StartChar: zerowidthnonjoiner
Encoding: 8204 8204 299
Width: 0
VWidth: 1507
Flags: W
LayerCount: 2
Back
SplineSet
48 -458 m 1
 -47 -458 l 1
 -47 381 l 1
 48 381 l 1
 48 -458 l 1
EndSplineSet
EndChar

StartChar: zerowidthjoiner
Encoding: 8205 8205 300
Width: 0
VWidth: 1507
Flags: W
LayerCount: 2
Back
SplineSet
48 164 m 1
 48 -458 l 1
 -47 -458 l 1
 -47 164 l 1
 -83 130 l 1
 -163 200 l 1
 -74 286 l 1
 -163 371 l 1
 -86 446 l 1
 0 360 l 1
 87 446 l 1
 164 371 l 1
 76 286 l 1
 164 200 l 1
 85 130 l 1
 48 164 l 1
EndSplineSet
EndChar

StartChar: lefttorightmark
Encoding: 8206 8206 301
Width: 0
VWidth: 1507
Flags: W
LayerCount: 2
Back
SplineSet
48 -458 m 1
 -47 -458 l 1
 -47 327 l 1
 146 327 l 1
 131 342 l 1
 178 393 l 1
 285 289 l 1
 178 185 l 1
 133 237 l 1
 148 250 l 1
 48 250 l 1
 48 -458 l 1
EndSplineSet
EndChar

StartChar: righttoleftmark
Encoding: 8207 8207 302
Width: 0
VWidth: 1507
Flags: W
LayerCount: 2
Back
SplineSet
48 -458 m 1
 -47 -458 l 1
 -47 250 l 1
 -145 250 l 1
 -130 238 l 1
 -176 185 l 1
 -283 289 l 1
 -176 393 l 1
 -130 342 l 1
 -145 327 l 1
 48 327 l 1
 48 -458 l 1
EndSplineSet
EndChar

StartChar: endash
Encoding: 8211 8211 303
Width: 590
VWidth: 1507
Flags: W
HStem: 246 83<24 555>
LayerCount: 2
Fore
SplineSet
24 246 m 1
 24 329 l 1
 555 329 l 1
 555 246 l 1
 24 246 l 1
EndSplineSet
EndChar

StartChar: emdash
Encoding: 8212 8212 304
Width: 1165
VWidth: 1507
Flags: W
HStem: 246 83<30 1114>
LayerCount: 2
Fore
SplineSet
30 246 m 1
 30 329 l 1
 1114 329 l 1
 1114 246 l 1
 30 246 l 1
EndSplineSet
EndChar

StartChar: quoteleft
Encoding: 8216 8216 305
Width: 197
VWidth: 1507
Flags: W
HStem: 549 245<109 137 137 137>
VStem: 5 104<549 668.661>
LayerCount: 2
Fore
SplineSet
109 549 m 1
 5 549 l 1
 5 601 l 2
 5 691 53 736 75 752 c 2
 137 794 l 1
 190 725 l 1
 169 705 l 2
 121 668 109 644 109 601 c 2
 109 549 l 1
EndSplineSet
EndChar

StartChar: quoteright
Encoding: 8217 8217 306
Width: 197
VWidth: 1507
Flags: W
HStem: 535 249<57 84 84 84>
VStem: 84 104<662.12 784>
LayerCount: 2
Fore
SplineSet
84 784 m 1
 188 784 l 1
 188 733 l 2
 188 612 110 582 78 554 c 2
 57 535 l 1
 3 610 l 1
 32 635 l 2
 74 664 84 691 84 733 c 2
 84 784 l 1
EndSplineSet
EndChar

StartChar: quotesinglbase
Encoding: 8218 8218 307
Width: 206
VWidth: 1507
Flags: W
HStem: -130 246<62 92 92 92>
VStem: 92 104<-6.72194 116>
LayerCount: 2
Fore
SplineSet
92 116 m 1
 196 116 l 1
 196 65 l 2
 196 4 174 -48 128 -82 c 2
 62 -130 l 1
 11 -59 l 1
 39 -35 l 2
 82 -5 92 23 92 65 c 2
 92 116 l 1
EndSplineSet
EndChar

StartChar: quotedblleft
Encoding: 8220 8220 308
Width: 435
VWidth: 1507
Flags: W
HStem: 549 245<288 317 317 317>
VStem: 6 104<549 669.677> 182 106<549 668.141>
LayerCount: 2
Fore
SplineSet
288 549 m 1
 182 549 l 1
 182 601 l 2
 182 707 235 741 290 776 c 2
 317 794 l 1
 369 725 l 1
 348 705 l 2
 300 668 288 644 288 601 c 2
 288 549 l 1
110 549 m 1
 6 549 l 1
 6 601 l 2
 6 691 54 736 77 752 c 2
 139 794 l 1
 191 725 l 1
 169 705 l 2
 121 669 110 644 110 601 c 2
 110 549 l 1
EndSplineSet
EndChar

StartChar: quotedblright
Encoding: 8221 8221 309
Width: 435
VWidth: 1507
Flags: W
HStem: 535 249<59 86 86 86>
VStem: 86 104<664.54 784> 264 104<665.165 784>
LayerCount: 2
Fore
SplineSet
86 784 m 1
 190 784 l 1
 190 733 l 2
 190 611 102 575 79 554 c 2
 59 535 l 1
 5 610 l 1
 33 635 l 1
 77 663 86 692 86 733 c 2
 86 784 l 1
264 784 m 1
 368 784 l 1
 368 733 l 2
 368 612 282 577 257 554 c 2
 237 535 l 1
 181 610 l 1
 211 633 l 2
 254 666 264 691 264 733 c 2
 264 784 l 1
EndSplineSet
EndChar

StartChar: quotedblbase
Encoding: 8222 8222 310
Width: 401
VWidth: 1507
Flags: W
HStem: -130 246<62 92 92 92>
VStem: 92 104<-6.72194 116> 287 104<-6.72194 116>
LayerCount: 2
Fore
SplineSet
92 116 m 1
 196 116 l 1
 196 65 l 2
 196 4 174 -48 128 -82 c 2
 62 -130 l 1
 11 -59 l 1
 39 -35 l 2
 82 -5 92 23 92 65 c 2
 92 116 l 1
287 116 m 1
 391 116 l 1
 391 65 l 2
 391 4 369 -48 323 -82 c 2
 257 -130 l 1
 206 -59 l 1
 234 -35 l 2
 277 -5 287 23 287 65 c 2
 287 116 l 1
EndSplineSet
EndChar

StartChar: dagger
Encoding: 8224 8224 311
Width: 646
VWidth: 1507
Flags: W
HStem: 401 83<59 268 378 582>
VStem: 268 110<-110 401 484 730>
LayerCount: 2
Fore
SplineSet
268 401 m 1
 59 401 l 1
 59 484 l 1
 268 484 l 1
 268 730 l 1
 378 730 l 1
 378 484 l 1
 582 484 l 1
 582 401 l 1
 378 401 l 1
 378 -110 l 1
 324 -181 l 1
 268 -110 l 1
 268 401 l 1
EndSplineSet
EndChar

StartChar: daggerdbl
Encoding: 8225 8225 312
Width: 645
VWidth: 1507
Flags: W
HStem: 122 83<59 268 378 582> 401 83<59 268 378 582>
VStem: 268 110<-110 122 205 401 484 730>
LayerCount: 2
Fore
SplineSet
268 401 m 1
 59 401 l 1
 59 484 l 1
 268 484 l 1
 268 730 l 1
 378 730 l 1
 378 484 l 1
 582 484 l 1
 582 401 l 1
 378 401 l 1
 378 205 l 1
 582 205 l 1
 582 122 l 1
 378 122 l 1
 378 -110 l 1
 324 -181 l 1
 268 -110 l 1
 268 122 l 1
 59 122 l 1
 59 205 l 1
 268 205 l 1
 268 401 l 1
EndSplineSet
EndChar

StartChar: bullet
Encoding: 8226 8226 313
Width: 572
VWidth: 1507
Flags: W
HStem: 149 430<89 89 89 89>
VStem: 89 417<149 363 149 149>
LayerCount: 2
Fore
SplineSet
89 149 m 1
 89 579 l 1
 506 363 l 1
 89 149 l 1
EndSplineSet
EndChar

StartChar: ellipsis
Encoding: 8230 8230 314
Width: 1214
VWidth: 1507
Flags: W
HStem: -8 127<151.001 264.243 540.094 654.243 927.768 1041.48>
VStem: 133 149<9.875 101.875> 522 150<9.875 101.875> 909 151<10.9556 100.842>
LayerCount: 2
Fore
SplineSet
207 -8 m 0
 166 -8 133 18 133 57 c 0
 133 94 166 119 207 119 c 0
 250 119 282 94 282 57 c 0
 282 18 250 -8 207 -8 c 0
597 -8 m 0
 555 -8 522 18 522 57 c 0
 522 94 555 119 597 119 c 0
 640 119 672 94 672 57 c 0
 672 18 640 -8 597 -8 c 0
984 -8 m 0
 944 -8 909 18 909 57 c 0
 909 94 944 119 984 119 c 0
 1026 119 1060 94 1060 57 c 0
 1060 18 1026 -8 984 -8 c 0
EndSplineSet
EndChar

StartChar: perthousand
Encoding: 8240 8240 315
Width: 1214
VWidth: 1507
Flags: W
HStem: 6 84<627.611 645 678 703.773 977.611 995 1028 1053.48> 288 84<635.739 654 690 710.235 985.739 1004 1040 1060.06> 734 20G<596.46 716>
VStem: 65 104<413.274 436 561 597.093> 262 103<421.168 454 583 605.344> 520 103<93.5614 115 241 277.506> 716 103<101.325 134 264 284.435> 870 102<93.5614 115 241 274.998> 1066 102<100.971 134 264 283.767>
LayerCount: 2
Fore
SplineSet
262 466 m 2
 262 436 239 410 211 410 c 2
 205 410 l 2
 181 410 169 424 169 451 c 2
 169 549 l 2
 169 580 190 608 218 608 c 2
 224 608 l 2
 249 608 262 595 262 570 c 2
 262 466 l 2
197 -24 m 1
 607 754 l 1
 716 754 l 1
 309 -24 l 1
 197 -24 l 1
365 583 m 2
 365 622 350 692 237 692 c 2
 200 692 l 2
 134 692 65 634 65 561 c 2
 65 436 l 2
 65 363 113 324 191 324 c 2
 226 324 l 2
 305 324 365 390 365 454 c 2
 365 583 l 2
819 264 m 2
 819 304 804 372 690 372 c 2
 654 372 l 2
 574 372 520 300 520 241 c 2
 520 115 l 2
 520 65 548 6 645 6 c 2
 678 6 l 2
 759 6 819 70 819 134 c 2
 819 264 l 2
716 146 m 2
 716 116 693 90 665 90 c 2
 659 90 l 2
 635 90 623 104 623 131 c 2
 623 229 l 2
 623 260 644 288 672 288 c 2
 678 288 l 2
 703 288 716 275 716 250 c 2
 716 146 l 2
1168 264 m 2
 1168 302 1153 372 1040 372 c 2
 1004 372 l 2
 924 372 870 300 870 241 c 2
 870 115 l 2
 870 65 898 6 995 6 c 2
 1028 6 l 2
 1108 6 1168 69 1168 134 c 2
 1168 264 l 2
1066 146 m 2
 1066 115 1043 90 1014 90 c 2
 1008 90 l 2
 984 90 972 104 972 131 c 2
 972 229 l 2
 972 260 994 288 1022 288 c 2
 1028 288 l 2
 1053 288 1066 275 1066 250 c 2
 1066 146 l 2
EndSplineSet
EndChar

StartChar: guilsinglleft
Encoding: 8249 8249 318
Width: 363
VWidth: 1507
Flags: W
VStem: 18 321<283 586 283 283>
LayerCount: 2
Fore
SplineSet
339 586 m 1
 339 458 l 1
 155 283 l 1
 339 107 l 1
 339 -23 l 1
 18 283 l 1
 339 586 l 1
EndSplineSet
EndChar

StartChar: guilsinglright
Encoding: 8250 8250 319
Width: 363
VWidth: 1507
Flags: W
VStem: 21 321<-23 283 -23 -23>
LayerCount: 2
Fore
SplineSet
342 283 m 1
 21 -23 l 1
 21 107 l 1
 205 283 l 1
 21 458 l 1
 21 588 l 1
 342 283 l 1
EndSplineSet
EndChar

StartChar: fraction
Encoding: 8260 8260 320
Width: 183
VWidth: 1507
Flags: W
HStem: 734 20G<236.434 336>
LayerCount: 2
Fore
SplineSet
-164 -24 m 1
 247 754 l 1
 336 754 l 1
 -71 -24 l 1
 -164 -24 l 1
EndSplineSet
EndChar

StartChar: Euro
Encoding: 8364 8364 321
Width: 578
VWidth: 1507
Flags: W
HStem: 0 90<269.814 547> 244 92<17 80 191 467> 395 92<17 80 197 467> 641 89<305.771 546>
VStem: 80 111<167.51 244 336 395 487 531.32>
LayerCount: 2
Fore
SplineSet
84 487 m 1
 110 605 226 730 395 730 c 2
 546 730 l 1
 546 641 l 1
 395 641 l 2
 296 641 219 575 197 487 c 1
 467 487 l 1
 467 395 l 1
 191 395 l 1
 191 336 l 1
 467 336 l 1
 467 244 l 1
 191 244 l 1
 191 243 l 2
 191 160 260 90 342 90 c 2
 547 90 l 1
 547 0 l 1
 342 0 l 2
 196 0 80 110 80 243 c 2
 80 244 l 1
 17 244 l 1
 17 336 l 1
 80 336 l 1
 80 395 l 1
 17 395 l 1
 17 487 l 1
 84 487 l 1
EndSplineSet
EndChar

StartChar: uni2113
Encoding: 8467 8467 322
Width: 355
VWidth: 1507
Flags: MW
HStem: -9 89<188.109 254.192> 662 62<206.981 263.006>
VStem: 106 88<416 611.314> 106 108<81.0916 267> 271 73<506.581 657.614>
LayerCount: 2
Fore
SplineSet
219 80 m 0
 241 80 270 98 330 146 c 1
 330 36 l 1
 263 -8 225 -9 199 -9 c 0
 162 -9 106 6 106 113 c 2
 106 267 l 1
 51 237 l 1
 5 314 l 1
 106 377 l 1
 106 580 l 2
 106 655 128 724 216 724 c 0
 292 724 344 705 344 627 c 0
 344 480 291 404 214 329 c 1
 214 112 l 2
 214 99 215 80 219 80 c 0
235 662 m 0
 202 662 194 608 194 574 c 2
 194 416 l 1
 255 493 271 557 271 592 c 0
 271 629 264 662 235 662 c 0
EndSplineSet
EndChar

StartChar: trademark
Encoding: 8482 8482 323
Width: 1002
VWidth: 1507
Flags: MW
HStem: 674 75<23 160 241 375>
VStem: 160 81<300 674> 442 81<300 568> 853 83<300 567>
LayerCount: 2
Fore
SplineSet
689 271 m 1
 523 568 l 1
 523 300 l 1
 442 300 l 1
 442 752 l 1
 516 752 l 1
 689 445 l 1
 861 752 l 1
 936 752 l 1
 936 300 l 1
 853 300 l 1
 853 567 l 1
 689 271 l 1
160 674 m 1
 23 674 l 1
 23 749 l 1
 375 749 l 1
 375 674 l 1
 241 674 l 1
 241 300 l 1
 160 300 l 1
 160 674 l 1
EndSplineSet
EndChar

StartChar: Ohm
Encoding: 8486 8486 324
Width: 797
VWidth: 1507
Flags: W
HStem: 0 83<33 243 544 755> 620 82<241.728 570.96>
VStem: 69 112<273.725 557.5> 243 99<83 154> 443 101<83 160> 609 110<301.468 577.736>
LayerCount: 2
Fore
SplineSet
719 375 m 2
 719 282 645 185 544 160 c 1
 544 83 l 1
 755 83 l 1
 755 0 l 1
 443 0 l 1
 443 237 l 1
 488 237 l 2
 556 237 609 304 609 375 c 2
 609 517 l 2
 609 561 570 620 526 620 c 2
 301 620 l 2
 239 620 181 555 181 481 c 2
 181 339 l 2
 181 291 218 237 264 237 c 2
 342 237 l 1
 342 0 l 1
 33 0 l 1
 33 83 l 1
 243 83 l 1
 243 154 l 1
 147 163 69 228 69 324 c 2
 69 481 l 2
 69 593 169 702 301 702 c 2
 526 702 l 2
 637 702 719 612 719 517 c 2
 719 375 l 2
EndSplineSet
EndChar

StartChar: estimated
Encoding: 8494 8494 325
Width: 524
VWidth: 1507
Flags: W
HStem: -8 83<195.932 310.085> 292 76<160 359> 523 83<217.802 319.834>
VStem: 48 112<114.986 292 368 452.558> 359 111<132.129 210 368 380 380 475.665>
LayerCount: 2
Fore
SplineSet
277 606 m 0
 393 606 470 511 470 380 c 2
 470 292 l 1
 160 292 l 1
 160 176 l 2
 160 121 204 75 246 75 c 0
 309 75 363 130 363 210 c 1
 475 210 l 1
 475 74 360 -8 246 -8 c 0
 137 -8 48 80 48 176 c 2
 48 344 l 2
 48 519 162 606 277 606 c 0
359 380 m 2
 359 465 322 523 277 523 c 0
 207 523 164 451 160 368 c 1
 359 368 l 1
 359 380 l 2
EndSplineSet
EndChar

StartChar: partialdiff
Encoding: 8706 8706 326
Width: 530
VWidth: 1507
Flags: W
HStem: -8 91<185.238 287.403> 380 83<217.591 359> 630 88<248.702 335.096>
VStem: 48 110<107.172 316.362> 359 111<166.846 380 463 552.723>
LayerCount: 2
Fore
SplineSet
291 718 m 0
 434 718 470 634 470 487 c 2
 470 258 l 2
 470 96 348 -8 234 -8 c 2
 225 -8 l 2
 113 -8 48 81 48 176 c 2
 48 243 l 2
 48 353 144 463 277 463 c 2
 359 463 l 1
 359 487 l 2
 359 547 357 630 291 630 c 0
 236 630 208 542 200 519 c 1
 101 562 l 1
 133 640 173 718 291 718 c 0
158 176 m 2
 158 147 172 83 228 83 c 0
 269 83 349 119 359 255 c 2
 359 380 l 1
 277 380 l 2
 206 380 158 305 158 243 c 2
 158 176 l 2
EndSplineSet
EndChar

StartChar: Delta
Encoding: 8710 8710 327
Width: 649
VWidth: 1507
Flags: W
HStem: 0 87<142 550>
LayerCount: 2
Fore
SplineSet
721 0 m 1
 -21 0 l 1
 353 665 l 1
 721 0 l 1
550 87 m 1
 353 461 l 1
 268 312 162 125 142 87 c 1
 550 87 l 1
EndSplineSet
EndChar

StartChar: product
Encoding: 8719 8719 328
Width: 862
VWidth: 1507
Flags: W
HStem: 612 86<42 131 244 607 721 809>
VStem: 131 113<-155 612> 607 114<-155 612>
LayerCount: 2
Fore
SplineSet
42 698 m 1
 809 698 l 1
 809 612 l 1
 721 612 l 1
 721 -155 l 1
 607 -155 l 1
 607 612 l 1
 244 612 l 1
 244 -155 l 1
 131 -155 l 1
 131 612 l 1
 42 612 l 1
 42 698 l 1
EndSplineSet
EndChar

StartChar: summation
Encoding: 8721 8721 329
Width: 842
VWidth: 1507
Flags: W
HStem: -172 85<223 781> 612 86<252 782>
LayerCount: 2
Fore
SplineSet
781 -172 m 1
 14 -172 l 1
 422 295 l 1
 17 698 l 1
 782 698 l 1
 782 612 l 1
 252 612 l 1
 562 298 l 1
 223 -87 l 1
 781 -87 l 1
 781 -172 l 1
EndSplineSet
EndChar

StartChar: minus
Encoding: 8722 8722 330
Width: 612
VWidth: 1507
Flags: W
HStem: 297 86<48 567>
LayerCount: 2
Fore
SplineSet
48 297 m 1
 48 383 l 1
 567 383 l 1
 567 297 l 1
 48 297 l 1
EndSplineSet
EndChar

StartChar: radical
Encoding: 8730 8730 331
Width: 577
VWidth: 1507
Flags: W
HStem: 332 87<14 107>
LayerCount: 2
Fore
SplineSet
274 -60 m 1
 107 332 l 1
 14 332 l 1
 14 419 l 1
 191 419 l 1
 274 217 l 1
 274 217 421 576 478 730 c 1
 591 730 l 1
 274 -60 l 1
EndSplineSet
EndChar

StartChar: infinity
Encoding: 8734 8734 332
Width: 1022
VWidth: 1507
Flags: W
HStem: 163 81<221.092 343.315 668.096 789.485> 511 78<224.621 335.728 666.89 789.938>
VStem: 72 103<291.742 455.702> 837 102<293.971 460.199>
LayerCount: 2
Fore
SplineSet
175 375 m 0
 175 275 240 244 283 244 c 0
 347 244 414 324 443 378 c 1
 349 494 313 511 280 511 c 0
 226 511 175 456 175 375 c 0
733 589 m 0
 857 589 939 500 939 380 c 0
 939 266 857 163 733 163 c 0
 687 163 606 170 502 304 c 1
 405 172 324 163 280 163 c 0
 144 163 72 270 72 383 c 0
 72 526 174 589 280 589 c 0
 369 589 433 543 503 446 c 1
 606 586 695 589 733 589 c 0
733 243 m 0
 795 243 837 305 837 375 c 0
 837 457 794 511 730 511 c 0
 662 511 590 423 559 371 c 1
 606 320 665 243 733 243 c 0
EndSplineSet
EndChar

StartChar: integral
Encoding: 8747 8747 333
Width: 443
VWidth: 1507
Flags: W
HStem: -154 91<-23.7302 49.5977> 739 83<311.673 392.583>
LayerCount: 2
Fore
SplineSet
433 730 m 1
 389 735 367 739 360 739 c 0
 316 739 296 703 289 665 c 2
 175 -3 l 2
 168 -38 144 -154 20 -154 c 0
 0 -154 -40 -150 -78 -139 c 1
 -60 -54 l 1
 -38 -58 -5 -63 6 -63 c 0
 47 -63 64 -31 69 6 c 2
 181 672 l 2
 210 819 315 822 347 822 c 0
 380 822 417 817 448 809 c 1
 433 730 l 1
EndSplineSet
EndChar

StartChar: notequal
Encoding: 8800 8800 335
Width: 574
VWidth: 1507
Flags: MW
HStem: 182 92<44 151 303 519> 374 92<44 252 402 519>
LayerCount: 2
Fore
SplineSet
256 182 m 1
 188 56 l 1
 84 56 l 1
 151 182 l 1
 44 182 l 1
 44 274 l 1
 199 274 l 1
 252 374 l 1
 44 374 l 1
 44 466 l 1
 301 466 l 1
 374 604 l 1
 475 604 l 1
 402 466 l 1
 519 466 l 1
 519 374 l 1
 357 374 l 1
 303 274 l 1
 519 274 l 1
 519 182 l 1
 256 182 l 1
EndSplineSet
EndChar

StartChar: lessequal
Encoding: 8804 8804 336
Width: 798
VWidth: 1507
Flags: W
LayerCount: 2
Fore
SplineSet
684 647 m 1
 684 549 l 1
 309 386 l 1
 684 225 l 1
 684 127 l 1
 96 386 l 1
 684 647 l 1
87 283 m 1
 696 -6 l 1
 696 -103 l 1
 87 182 l 1
 87 283 l 1
EndSplineSet
EndChar

StartChar: greaterequal
Encoding: 8805 8805 337
Width: 798
VWidth: 1507
Flags: W
LayerCount: 2
Fore
SplineSet
687 386 m 1
 99 127 l 1
 99 225 l 1
 475 386 l 1
 99 549 l 1
 99 647 l 1
 687 386 l 1
696 283 m 1
 87 -6 l 1
 87 -103 l 1
 696 182 l 1
 696 283 l 1
EndSplineSet
EndChar

StartChar: lozenge
Encoding: 9674 9674 338
Width: 645
VWidth: 1507
Flags: W
LayerCount: 2
Fore
SplineSet
472 345 m 1
 318 579 l 1
 163 345 l 1
 318 113 l 1
 472 345 l 1
591 345 m 1
 318 -71 l 1
 45 345 l 1
 318 758 l 1
 591 345 l 1
EndSplineSet
EndChar

StartChar: dottedcircle
Encoding: 9676 9676 339
Width: 699
VWidth: 1507
Flags: W
HStem: 32 75<309.063 379.627> 50 77<210.597 279.618 409.021 478.454> 106 76<127.199 196.403 493.411 563.005> 191 77<71.4038 139.869 547.597 617.084> 289 77<50.733 121.233 570.382 641.23> 387 77<88.9545 139.801 549.911 618.979> 472 77<127.025 196.886 493.063 544.875> 529 75<210.085 262.772 408.237 478.801> 547 77<309.411 379.062>
VStem: 48 77<292.619 362.454> 68 75<194.411 247.57 408.052 460.886> 124 76<109.597 179.734 474.438 528.046> 207 76<53.5966 124.267 531.771 600.618> 306 77<35.211 103.596 550.995 620.589> 405 77<54.1809 123.222 532.411 600.243> 490 77<109.995 178.448 475.809 545.596> 544 77<194.778 264.403 391.527 460.403> 567 77<292.107 362.801>
LayerCount: 2
Fore
SplineSet
383 69 m 0x9c0e
 383 46 367 32 344 32 c 0
 319 32 306 44 306 69 c 0
 306 92 321 107 344 107 c 256
 366 107 383 92 383 69 c 0x9c0e
604 289 m 0
 582 289 567 305 567 329 c 0
 567 351 584 366 604 366 c 0
 631 366 644 354 644 329 c 0x1c0e40
 644 302 631 289 604 289 c 0
125 329 m 0x1c4e
 125 305 109 289 86 289 c 0
 61 289 48 302 48 329 c 0
 48 354 61 366 86 366 c 0
 108 366 125 351 125 329 c 0x1c4e
344 547 m 256x1c8e
 321 547 306 564 306 586 c 0
 306 611 319 624 344 624 c 0
 366 624 383 609 383 586 c 256
 383 563 365 547 344 547 c 256x1c8e
161 549 m 0x1e1e
 192 549 200 526 200 511 c 0
 200 485 187 472 161 472 c 0
 136 472 124 485 124 511 c 0
 124 534 139 549 161 549 c 0x1e1e
567 511 m 0x1e0f
 567 480 542 472 528 472 c 0
 503 472 490 485 490 511 c 0
 490 534 505 549 528 549 c 256
 550 549 567 534 567 511 c 0x1e0f
161 106 m 0x3c1e
 140 106 124 121 124 145 c 0
 124 170 136 182 161 182 c 0
 187 182 200 170 200 145 c 0
 200 122 184 106 161 106 c 0x3c1e
528 106 m 256
 505 106 490 122 490 145 c 0
 490 170 503 182 528 182 c 0
 551 182 567 166 567 145 c 256x3c0f
 567 122 549 106 528 106 c 256
445 50 m 256x5c0e
 423 50 405 66 405 89 c 256
 405 111 421 127 445 127 c 0
 470 127 482 114 482 89 c 0
 482 67 467 50 445 50 c 256x5c0e
246 50 m 0
 223 50 207 66 207 89 c 0
 207 114 220 127 246 127 c 0
 268 127 283 112 283 89 c 256
 283 67 268 50 246 50 c 0
621 229 m 256x1c0e80
 621 207 603 191 583 191 c 0
 557 191 544 204 544 229 c 0
 544 252 560 268 583 268 c 0
 603 268 621 252 621 229 c 256x1c0e80
106 191 m 0
 83 191 68 208 68 229 c 256
 68 252 83 268 106 268 c 0
 136 268 143 245 143 229 c 0x1c2e
 143 204 131 191 106 191 c 0
106 387 m 0
 83 387 68 405 68 425 c 0
 68 456 91 464 106 464 c 0
 131 464 143 451 143 425 c 0
 143 412 136 387 106 387 c 0
583 387 m 256
 561 387 546 406 546 425 c 0
 546 451 558 464 583 464 c 0
 607 464 623 448 623 425 c 0
 623 405 606 387 583 387 c 256
445 529 m 0x1d0e
 421 529 405 544 405 567 c 0
 405 589 423 604 445 604 c 256
 467 604 482 587 482 567 c 0
 482 542 470 529 445 529 c 0x1d0e
283 567 m 0
 283 537 261 529 246 529 c 0
 220 529 207 542 207 567 c 0
 207 589 223 604 246 604 c 0
 268 604 283 587 283 567 c 0
EndSplineSet
EndChar

StartChar: uni0E10.alt1
Encoding: 63232 63232 340
Width: 584
VWidth: 1507
Flags: W
HStem: 0 21G<207 342> 119 56<156.112 206.311> 283 53<155.806 243.142> 481 84<333.943 465.055> 537 77<169.725 300.675>
VStem: 80 65<185.775 272.198> 253 65<185.471 272.297> 372 95<110.73 163 163 318>
LayerCount: 2
Fore
SplineSet
143 466 m 1xef
 266 445 368 408 467 354 c 1
 467 163 l 2
 467 73 386 -0 298 0 c 2
 207 0 l 1
 207 119 l 1
 200 119 l 2
 134 119 80 169 80 228 c 256
 80 285 135 336 200 336 c 256
 265 336 318 293 318 228 c 2
 318 90 l 1
 361 109 372 123 372 163 c 2
 372 318 l 1
 312 350 205 384 33 407 c 1
 33 573 149 614 216 614 c 0xef
 294 614 344 573 412 565 c 0
 437 565 472 586 538 645 c 1
 552 562 l 1
 487 495 445 481 418 481 c 0xf7
 352 481 282 537 216 537 c 0
 175 537 146 492 143 466 c 1xef
199 283 m 256
 167 283 145 259 145 229 c 256
 145 201 167 175 199 175 c 256
 231 175 253 201 253 229 c 256
 253 261 229 283 199 283 c 256
EndSplineSet
EndChar

StartChar: uni0E48.alt2
Encoding: 63242 63242 350
Width: 0
VWidth: 1507
Flags: W
VStem: -234 100<724 981 724 981 724 724>
LayerCount: 2
Fore
SplineSet
-234 981 m 1
 -134 981 l 1
 -134 724 l 1
 -234 724 l 1
 -234 981 l 1
EndSplineSet
Substitution2: "Single Substitution lookup 20 subtable" uni0E48.alt3
Substitution2: "Single Substitution lookup 21 subtable" uni0E48
Substitution2: "Single Substitution lookup 22 subtable" uni0E48.alt1
Substitution2: "Single Substitution lookup 20 subtable" uni0E48.alt3
Substitution2: "Single Substitution lookup 21 subtable" uni0E48
Substitution2: "Single Substitution lookup 22 subtable" uni0E48.alt1
EndChar

StartChar: uni0E49.alt2
Encoding: 63243 63243 351
Width: 0
VWidth: 1507
Flags: MW
HStem: 710 45<-375.789 -343.043> 947 57<-327.338 -254.522>
VStem: -395 62<867.644 942.058> -249 61<868.155 942.058> -89 84<922.724 995>
LayerCount: 2
Fore
SplineSet
-5 995 m 1
 -5 866 -121 710 -270 710 c 0
 -324 710 -363 718 -415 755 c 1
 -378 759 -329 774 -308 809 c 1
 -373 821 -395 876 -395 903 c 0
 -395 952 -353 1004 -291 1004 c 256
 -228 1004 -188 952 -188 903 c 0
 -188 825 -239 785 -250 778 c 1
 -182 781 -92 924 -89 995 c 1
 -5 995 l 1
-291 947 m 256
 -315 947 -333 931 -333 904 c 256
 -333 879 -314 862 -291 862 c 256
 -266 862 -249 881 -249 904 c 256
 -249 931 -267 947 -291 947 c 256
EndSplineSet
Substitution2: "Single Substitution lookup 20 subtable" uni0E49.alt3
Substitution2: "Single Substitution lookup 21 subtable" uni0E49
Substitution2: "Single Substitution lookup 22 subtable" uni0E49.alt1
Substitution2: "Single Substitution lookup 20 subtable" uni0E49.alt3
Substitution2: "Single Substitution lookup 21 subtable" uni0E49
Substitution2: "Single Substitution lookup 22 subtable" uni0E49.alt1
EndChar

StartChar: uni0E4A.alt2
Encoding: 63244 63244 352
Width: 0
VWidth: 1507
Flags: W
HStem: 708 44<-437.016 -362.827> 837 48<-403.768 -364.125> 926 60<-388.086 -342>
VStem: -490 48<756.828 831.861> -357 43<757.811 831.218> -172 60<798.726 900.942> -72 58<926.884 989>
LayerCount: 2
Fore
SplineSet
-200 711 m 1
 -186 746 -172 802 -172 850 c 0
 -172 876 -176 898 -185 916 c 1
 -264 796 l 1
 -342 926 l 1
 -373 926 -402 898 -404 885 c 1
 -332 885 -314 821 -314 793 c 0
 -314 738 -350 708 -405 708 c 0
 -444 708 -490 751 -490 794 c 2
 -490 849 l 2
 -490 959 -369 986 -306 986 c 1
 -265 901 l 1
 -252 937 -236 951 -222 986 c 1
 -130 986 -112 916 -112 870 c 0
 -112 827 -111 813 -127 784 c 1
 -79 816 -72 950 -72 989 c 1
 -14 989 l 1
 -14 753 -126 711 -200 711 c 1
-399 837 m 256
 -425 837 -442 818 -442 794 c 256
 -442 770 -426 752 -399 752 c 256
 -374 752 -357 771 -357 794 c 256
 -357 818 -374 837 -399 837 c 256
EndSplineSet
Substitution2: "Single Substitution lookup 20 subtable" uni0E4A.alt3
Substitution2: "Single Substitution lookup 21 subtable" uni0E4A
Substitution2: "Single Substitution lookup 22 subtable" uni0E4A.alt1
Substitution2: "Single Substitution lookup 20 subtable" uni0E4A.alt3
Substitution2: "Single Substitution lookup 21 subtable" uni0E4A
Substitution2: "Single Substitution lookup 22 subtable" uni0E4A.alt1
EndChar

StartChar: uni0E4B.alt2
Encoding: 63245 63245 353
Width: 0
VWidth: 1507
Flags: W
HStem: 835 88<-374 -267 -169 -62 -374 -62 -374 -374>
VStem: -267 98<719 835 923 1036>
LayerCount: 2
Fore
SplineSet
-62 923 m 1
 -62 835 l 1
 -169 835 l 1
 -169 719 l 1
 -267 719 l 1
 -267 835 l 1
 -374 835 l 1
 -374 923 l 1
 -267 923 l 1
 -267 1036 l 1
 -169 1036 l 1
 -169 923 l 1
 -62 923 l 1
EndSplineSet
Substitution2: "Single Substitution lookup 20 subtable" uni0E4B.alt3
Substitution2: "Single Substitution lookup 21 subtable" uni0E4B
Substitution2: "Single Substitution lookup 22 subtable" uni0E4B.alt1
Substitution2: "Single Substitution lookup 20 subtable" uni0E4B.alt3
Substitution2: "Single Substitution lookup 21 subtable" uni0E4B
Substitution2: "Single Substitution lookup 22 subtable" uni0E4B.alt1
EndChar

StartChar: uni0E4C.alt2
Encoding: 63246 63246 354
Width: 0
VWidth: 1507
Flags: W
HStem: 731 53<-263.743 -178.677> 868 76<-104 -31.4441> 892 52<-263.15 -177.155>
VStem: -342 66<795.562 880.859> -167 66<795.547 866.886> 17 96<983.123 1048>
LayerCount: 2
Fore
SplineSet
-90 944 m 2xdc
 -41 944 10 989 17 1048 c 1
 113 1048 l 1
 106 964 32 868 -90 868 c 2
 -104 868 l 1xdc
 -102 862 -101 857 -101 852 c 2
 -101 837 l 2
 -101 778 -152 731 -222 731 c 0
 -287 731 -342 779 -342 837 c 0
 -342 895 -288 944 -222 944 c 2xbc
 -90 944 l 2xdc
-222 892 m 256xbc
 -250 892 -276 870 -276 838 c 256
 -276 807 -250 784 -222 784 c 256
 -190 784 -167 809 -167 838 c 256
 -167 868 -189 892 -222 892 c 256xbc
EndSplineSet
Substitution2: "Single Substitution lookup 20 subtable" uni0E4C.alt3
Substitution2: "Single Substitution lookup 21 subtable" uni0E4C
Substitution2: "Single Substitution lookup 22 subtable" uni0E4C.alt1
Substitution2: "Single Substitution lookup 20 subtable" uni0E4C.alt3
Substitution2: "Single Substitution lookup 21 subtable" uni0E4C
Substitution2: "Single Substitution lookup 22 subtable" uni0E4C.alt1
EndChar

StartChar: uni0E0D.alt1
Encoding: 63247 63247 355
Width: 927
VWidth: 1507
Flags: W
HStem: 0 53<183.82 271.433> 0 98<565 700.656> 161 52<219.018 271.505> 531 83<224.263 429.61>
VStem: 107 66<63.676 150.324> 107 112<213 343.99> 282 65<64.6181 149.842> 454 111<98 505.324> 728 112<121.938 614>
LayerCount: 2
Fore
SplineSet
39 390 m 1xb780
 52 514 165 614 294 614 c 2
 387 614 l 2
 468 614 565 545 565 452 c 2
 565 98 l 1
 665 98 l 2
 698 102 728 138 728 179 c 2
 728 614 l 1
 840 614 l 1
 840 164 l 2
 840 81 763 0 665 0 c 2
 546 0 l 2
 489 0 457 43 454 77 c 2
 454 452 l 2
 454 493 422 531 387 531 c 2
 289 531 l 2
 234 531 172 475 152 431 c 1
 211 404 219 334 219 318 c 2
 219 213 l 1x7780
 228 213 l 2
 281 213 347 163 347 107 c 0
 347 48 293 0 228 0 c 0
 167 0 115 39 107 87 c 1xbb80
 107 320 l 2
 107 348 84 385 39 390 c 1xb780
228 161 m 256
 195 161 173 137 173 107 c 256
 173 77 195 53 228 53 c 256xbb80
 256 53 282 75 282 107 c 256
 282 139 256 161 228 161 c 256
EndSplineSet
EndChar

StartChar: uni0E38.alt1
Encoding: 63256 63256 364
Width: 0
VWidth: 1507
Flags: W
HStem: -219 37<-235.468 -175.035> -92 35<-235.43 -161.231>
VStem: -288 45<-175.349 -98.4464> -175 72<-300 -216> -154 51<-176.07 -98.062>
LayerCount: 2
Fore
SplineSet
-197 -57 m 0xf0
 -149 -57 -103 -91 -103 -137 c 2xe8
 -103 -300 l 1
 -175 -300 l 1
 -175 -216 l 1
 -197 -219 l 2
 -245 -219 -288 -179 -288 -139 c 0
 -288 -94 -248 -57 -197 -57 c 0xf0
-197 -92 m 0
 -226 -92 -243 -115 -243 -137 c 256
 -243 -159 -226 -182 -197 -182 c 0
 -174 -182 -154 -162 -154 -137 c 256
 -154 -112 -174 -92 -197 -92 c 0
EndSplineSet
EndChar

StartChar: uni0E39.alt1
Encoding: 63257 63257 365
Width: 0
VWidth: 1507
Flags: W
HStem: -300 60<-229 -179> -222 37<-362.468 -301.344> -95 35<-362.23 -286.748>
VStem: -415 46<-178.435 -101.229> -280 51<-178.636 -102.339> -179 75<-240 -59>
LayerCount: 2
Fore
SplineSet
-324 -60 m 0
 -276 -60 -229 -93 -229 -140 c 2
 -229 -240 l 1
 -179 -240 l 1
 -179 -59 l 1
 -104 -59 l 1
 -104 -240 l 2
 -104 -288 -138 -300 -179 -300 c 2
 -301 -300 l 1
 -301 -219 l 1
 -324 -222 l 2
 -372 -222 -415 -182 -415 -142 c 0
 -415 -97 -375 -60 -324 -60 c 0
-324 -95 m 0
 -352 -95 -369 -116 -369 -140 c 256
 -369 -160 -354 -185 -324 -185 c 0
 -298 -185 -280 -163 -280 -140 c 256
 -280 -115 -301 -95 -324 -95 c 0
EndSplineSet
EndChar

StartChar: uni0E0E.alt1
Encoding: 63259 63259 367
Width: 666
VWidth: 1507
Flags: W
HStem: -140 56<100.071 188.56> 24 48<102.486 187.736> 90 53<108.067 193.267> 252 51<108.828 157.714> 531 83<243.179 445.746>
VStem: 30 60<-73.1718 12.2675 159.065 234.664> 199 56<-73.2758 -2.33638> 205 65<154.264 240.771> 470 110<119 507.868>
LayerCount: 2
Fore
SplineSet
54 393 m 1xfd80
 68 526 189 614 311 614 c 2
 404 614 l 2
 483 614 580 544 580 452 c 2
 580 119 l 1
 518 -4 425 -39 401 -48 c 1
 359 -28 344 2 249 2 c 1
 251 -5 255 -15 255 -32 c 0xfe80
 255 -74 222 -140 149 -140 c 0
 95 -140 30 -94 30 -33 c 0
 30 28 89 72 149 72 c 2
 250 72 l 2
 279 72 355 57 395 39 c 1
 432 66 l 2
 448 76 460 90 470 107 c 1
 470 452 l 2
 470 492 439 531 404 531 c 2
 306 531 l 2
 262 531 189 485 163 437 c 1
 228 429 268 354 268 320 c 2
 270 191 l 2
 270 141 212 90 151 90 c 0
 88 90 35 142 35 196 c 0
 35 258 93 303 152 303 c 2
 158 303 l 1
 157 318 l 2
 157 348 93 391 54 393 c 1xfd80
151 252 m 256
 118 252 96 226 96 197 c 256
 96 168 119 143 151 143 c 256
 182 143 205 169 205 197 c 256xfd80
 205 229 180 252 151 252 c 256
145 24 m 256
 113 24 90 -1 90 -30 c 256
 90 -60 112 -84 145 -84 c 256
 173 -84 199 -62 199 -30 c 256xfe80
 199 1 173 24 145 24 c 256
EndSplineSet
EndChar

StartChar: uni0E0F.alt1
Encoding: 63260 63260 368
Width: 664
VWidth: 1507
Flags: W
HStem: -143 54<99.0828 184.963> -20 20G<243 244> 20 60<98.64 177.64> 90 53<107.203 192.108> 252 51<105.984 155.913> 531 83<243.179 445.746>
VStem: 23 64<-77.3978 8.25575> 33 62<154.242 240.597> 196 54<-77.4113 -6.62362> 203 65<154.7 241.845> 470 110<78.3696 507.868>
LayerCount: 2
Fore
SplineSet
54 393 m 1xfd60
 68 526 189 614 311 614 c 2
 404 614 l 2
 483 614 580 544 580 452 c 2
 580 130 l 2
 580 74 558 33 498 -10 c 2
 439 -53 l 1
 381 81 l 1
 375 72 371 65 368 58 c 2
 332 -24 l 2
 326 -36 322 -44 317 -51 c 1
 317 -35 245 -4 241 0 c 1
 247 -11 250 -22 250 -33 c 0
 250 -91 209 -143 143 -143 c 0
 79 -143 23 -93 23 -36 c 0xfea0
 23 19 81 80 146 80 c 0
 157 80 268 79 303 39 c 1
 381 216 l 1
 455 39 l 1
 464 53 470 85 470 113 c 2
 470 452 l 2
 470 492 439 531 404 531 c 2
 306 531 l 2
 262 531 189 485 163 437 c 1
 228 429 268 354 268 320 c 2
 268 191 l 2
 268 137 207 90 149 90 c 0
 89 90 33 142 33 196 c 0
 33 256 88 303 151 303 c 2
 157 303 l 1
 157 318 l 2
 157 348 93 391 54 393 c 1xfd60
149 252 m 256
 120 252 95 229 95 197 c 256
 95 166 121 143 149 143 c 256
 181 143 203 169 203 197 c 256xfd60
 203 230 179 252 149 252 c 256
142 20 m 256
 109 20 87 -6 87 -35 c 256
 87 -64 110 -89 142 -89 c 256
 173 -89 196 -63 196 -35 c 256xfea0
 196 -3 171 20 142 20 c 256
EndSplineSet
EndChar

StartChar: uni0E2C.alt1
Encoding: 63261 63261 369
Width: 771
VWidth: 1507
Flags: W
HStem: -6 21G<259.5 295.559 538.864 589.5> 405 50<106.665 165.124> 469 53<507.828 588.552> 564 50<106.867 192.337> 630 50<507.918 594.741>
VStem: 38 57<466.06 552.657> 166 102<99 407> 203 65<465.155 552.828> 434 63<532.901 618.285> 589 98<105.375 470>
LayerCount: 2
Fore
SplineSet
778 660 m 1xfec0
 737 569 698 530 687 519 c 1
 687 161 l 2
 687 86 632 9 547 -6 c 1
 427 289 l 1
 286 -6 l 1
 233 -6 166 23 166 77 c 2
 166 407 l 1xfec0
 157 405 l 1
 100 405 38 449 38 511 c 0
 38 566 93 614 154 614 c 0
 209 614 268 570 268 513 c 2xfdc0
 268 99 l 1
 269 106 274 157 279 170 c 2
 410 442 l 1
 462 437 473 398 476 392 c 2
 579 170 l 2
 584 158 588 123 589 103 c 1
 589 470 l 1
 586 469 581 469 572 469 c 2
 555 469 l 2
 488 469 434 516 434 574 c 0
 434 627 491 680 558 680 c 0
 602 680 659 646 672 606 c 1
 686 628 696 643 704 660 c 1
 778 660 l 1xfec0
149 564 m 256
 118 564 95 538 95 510 c 256
 95 478 120 455 149 455 c 256
 179 455 203 477 203 510 c 256xfdc0
 203 538 181 564 149 564 c 256
552 630 m 256
 520 630 497 605 497 576 c 256
 497 546 519 522 552 522 c 256
 580 522 606 544 606 576 c 256
 606 607 580 630 552 630 c 256
EndSplineSet
EndChar

StartChar: uni0E24.liga
Encoding: 63617 63617 371
Width: 999
VWidth: 1507
Flags: W
HStem: 0 53<195.82 283.433> 161 52<231.018 283.505> 523 91<640.182 795.516> 531 83<235.679 441.656>
VStem: 119 66<63.676 150.324> 119 112<213 343.99> 294 65<64.6181 149.842> 466 110<-246 430> 816 113<-252 502.227>
LayerCount: 2
Fore
SplineSet
466 452 m 2xe780
 466 493 433 531 398 531 c 2
 303 531 l 2
 247 531 185 479 164 431 c 1
 223 404 231 334 231 318 c 2
 231 213 l 1xd780
 240 213 l 2
 293 213 359 163 359 107 c 0
 359 48 305 0 240 0 c 0
 179 0 127 39 119 87 c 1xdb80
 119 320 l 2
 119 348 96 385 51 390 c 1
 64 514 177 614 306 614 c 2
 399 614 l 2xd780
 459 614 507 582 537 547 c 1
 577 584 635 611 705 614 c 2
 754 614 l 2
 844 614 929 547 929 452 c 2
 929 -252 l 1
 816 -252 l 1
 816 452 l 2
 816 495 784 518 754 523 c 1
 702 523 l 2
 647 519 596 477 576 430 c 1
 576 -246 l 1
 466 -246 l 1
 466 452 l 2xe780
240 161 m 256
 207 161 185 137 185 107 c 256xcb80
 185 77 207 53 240 53 c 256
 268 53 294 75 294 107 c 256
 294 139 268 161 240 161 c 256
EndSplineSet
LCarets2: 1 0 
Ligature2: "'liga' Standard Ligatures in Latin lookup 19 subtable" uni0E24 uni0E45
Ligature2: "'liga' Standard Ligatures in Latin lookup 19 subtable" uni0E24 uni0E32
EndChar

StartChar: uni0E26.liga
Encoding: 63618 63618 372
Width: 999
VWidth: 1507
Flags: W
HStem: 0 53<100.912 188.296> 161 52<100.719 151.514> 523 91<638.75 795.516> 531 83<239.128 440.391>
VStem: 29 61<64.4323 149.729> 152 112<213 353.759> 199 65<64.6998 150.154> 464 110<-246 428> 816 113<-252 502.227>
LayerCount: 2
Fore
SplineSet
50 393 m 1xdd80
 61 527 187 614 306 614 c 2
 398 614 l 2xdd80
 457 614 507 582 537 547 c 1
 577 584 635 611 705 614 c 2
 754 614 l 2
 844 614 929 547 929 452 c 2
 929 -252 l 1
 816 -252 l 1
 816 452 l 2
 816 491 788 519 752 523 c 2
 704 523 l 2xed80
 647 522 595 476 574 428 c 1
 574 -246 l 1
 464 -246 l 1
 464 452 l 2
 464 492 433 531 398 531 c 2
 301 531 l 2
 257 531 184 485 158 437 c 1
 224 429 264 355 264 320 c 2xdd80
 264 101 l 2xdb80
 264 47 203 0 145 0 c 0
 79 0 29 54 29 106 c 0
 29 163 82 213 146 213 c 2
 152 213 l 1
 152 318 l 2
 152 350 87 391 50 393 c 1xdd80
145 161 m 256
 112 161 90 137 90 107 c 256
 90 77 112 53 145 53 c 256
 173 53 199 75 199 107 c 256xcb80
 199 139 173 161 145 161 c 256
EndSplineSet
LCarets2: 1 0 
Ligature2: "'liga' Standard Ligatures in Latin lookup 19 subtable" uni0E26 uni0E45
Ligature2: "'liga' Standard Ligatures in Latin lookup 19 subtable" uni0E26 uni0E32
EndChar

StartChar: fi
Encoding: 64257 64257 373
Width: 601
VWidth: 1507
Flags: W
HStem: 0 21G<122 232 404 513> 452 77<21 122 232 404> 639 91<295.998 371>
VStem: 122 110<0 452 529 578.884> 404 109<0 452>
LayerCount: 2
Fore
SplineSet
122 452 m 1
 21 452 l 1
 21 529 l 1
 122 529 l 1
 130 644 244 730 371 730 c 1
 371 639 l 1
 292 639 242 584 232 529 c 1
 513 529 l 1
 513 0 l 1
 404 0 l 1
 404 452 l 1
 232 452 l 1
 232 0 l 1
 122 0 l 1
 122 452 l 1
EndSplineSet
LCarets2: 1 0 
Ligature2: "'liga' Standard Ligatures in Latin lookup 19 subtable" f i
EndChar

StartChar: fl
Encoding: 64258 64258 374
Width: 616
VWidth: 1507
Flags: W
HStem: 0 21G<122 232 422 531> 452 77<21 122 232 422> 639 91<295.998 371>
VStem: 122 110<0 452 529 578.884> 422 109<0 452 529 730>
LayerCount: 2
Fore
SplineSet
422 452 m 1
 232 452 l 1
 232 0 l 1
 122 0 l 1
 122 452 l 1
 21 452 l 1
 21 529 l 1
 122 529 l 1
 130 644 244 730 371 730 c 1
 371 639 l 1
 292 639 242 584 232 529 c 1
 422 529 l 1
 422 730 l 1
 531 730 l 1
 531 0 l 1
 422 0 l 1
 422 452 l 1
EndSplineSet
LCarets2: 1 0 
Ligature2: "'liga' Standard Ligatures in Latin lookup 19 subtable" f l
EndChar

StartChar: PITA
Encoding: 65541 -1 375
Width: 1502
VWidth: 1507
Flags: W
HStem: 270 45<84 1408> 485 61<1097 1251> 570 62<151 367.61> 713 24<1363.21 1475.58> 758 59<151 366.516 638 776 861 998 1444 1461.45> 764 24<1391.02 1443.62> 871 23<1404.2 1444> 918 24<1361.95 1473.89>
VStem: 66 85<366 570 632 758> 381 85<644.264 744.061> 511 84<366 817> 776 85<366 758> 1299 34<768.593 887.729> 1360 31<796.72 870.774> 1444 33<789.103 816 850 864.285> 1506 33<768.795 886.109>
LayerCount: 2
Fore
SplineSet
84 315 m 1xf3ff
 1408 315 l 1
 1408 270 l 1
 84 270 l 1
 84 315 l 1xf3ff
466 693 m 0
 466 630 411 570 327 570 c 2
 151 570 l 1
 151 366 l 1
 66 366 l 1
 66 817 l 1
 327 817 l 2xfbff
 400 817 466 767 466 693 c 0
381 693 m 0
 381 727 358 758 327 758 c 2
 151 758 l 1
 151 632 l 1
 327 632 l 2
 358 632 381 659 381 693 c 0
511 817 m 1
 595 817 l 1
 595 366 l 1
 511 366 l 1
 511 817 l 1
776 758 m 1
 638 758 l 1
 638 817 l 1
 998 817 l 1
 998 758 l 1
 861 758 l 1
 861 366 l 1
 776 366 l 1
 776 758 l 1
1135 819 m 1
 1179 819 1220 806 1233 778 c 2
 1424 366 l 1
 1333 366 l 1
 1280 485 l 1
 1070 485 l 1
 1016 366 l 1
 927 366 l 1
 1135 819 l 1
1097 546 m 1
 1251 546 l 1
 1174 711 l 1
 1097 546 l 1
1299 828 m 0
 1299 880 1342 942 1418 942 c 0
 1492 942 1539 884 1539 828 c 0
 1539 767 1490 713 1418 713 c 0
 1351 713 1299 766 1299 828 c 0
1506 828 m 0
 1506 871 1471 918 1418 918 c 0
 1359 918 1333 865 1333 828 c 0
 1333 777 1373 737 1418 737 c 0
 1471 737 1506 781 1506 828 c 0
1360 841 m 2
 1360 873 1384 894 1414 894 c 2
 1429 894 l 2
 1458 894 1477 876 1477 850 c 1
 1444 850 l 1
 1444 858 1441 871 1429 871 c 2
 1414 871 l 2
 1405 871 1391 860 1391 840 c 2
 1391 809 l 2
 1391 801 1397 788 1406 788 c 2
 1420 788 l 2
 1436 788 1444 797 1444 816 c 1
 1477 816 l 1
 1477 785 1452 764 1420 764 c 2
 1406 764 l 2xf7ff
 1380 764 1360 785 1360 808 c 2
 1360 841 l 2
EndSplineSet
LCarets2: 6 0 0 0 0 0 0 
Ligature2: "'liga' Standard Ligatures in Latin lookup 19 subtable" P I T A parenleft c parenright
EndChar

StartChar: franc
Encoding: 8355 8355 467
Width: 723
VWidth: 1507
Flags: W
HStem: 0 21G<178 289> 256 86<54 178 289 573> 378 86<54 178 289 573> 648 82<289 660>
VStem: 178 111<0 256 342 378 464 648>
LayerCount: 2
Fore
SplineSet
289 342 m 1
 573 342 l 1
 573 256 l 1
 289 256 l 1
 289 0 l 1
 178 0 l 1
 178 256 l 1
 54 256 l 1
 54 342 l 1
 178 342 l 1
 178 378 l 1
 54 378 l 1
 54 464 l 1
 178 464 l 1
 178 730 l 1
 660 730 l 1
 660 648 l 1
 289 648 l 1
 289 464 l 1
 573 464 l 1
 573 378 l 1
 289 378 l 1
 289 342 l 1
EndSplineSet
EndChar

StartChar: dong
Encoding: 8363 8363 468
Width: 604
VWidth: 1507
Flags: W
HStem: -136 83<84 499> -8 83<173.004 336.653> 452 85<200.415 355.057> 577 86<259 407 519 617>
VStem: 35 110<100.292 388.685> 407 112<-3 38 146.771 413.944 520 577 663 730>
LayerCount: 2
Fore
SplineSet
326 537 m 2
 350 537 380 536 407 520 c 1
 407 577 l 1
 259 577 l 1
 259 663 l 1
 407 663 l 1
 407 730 l 1
 519 730 l 1
 519 663 l 1
 617 663 l 1
 617 577 l 1
 519 577 l 1
 519 -3 l 1
 407 -3 l 1
 407 38 l 1
 377 16 327 -8 273 -8 c 2
 211 -8 l 2
 105 -8 35 74 35 176 c 2
 35 315 l 2
 35 431 135 537 264 537 c 2
 326 537 l 2
273 75 m 2
 331 75 401 133 407 208 c 2
 407 357 l 2
 403 392 375 452 326 452 c 2
 264 452 l 2
 194 452 145 383 145 315 c 2
 145 176 l 2
 145 138 163 75 211 75 c 2
 273 75 l 2
84 -136 m 1
 84 -53 l 1
 499 -53 l 1
 499 -136 l 1
 84 -136 l 1
EndSplineSet
EndChar

StartChar: Dcroat
Encoding: 272 272 475
Width: 851
VWidth: 1507
Flags: W
HStem: 0 84<235 555.003> 333 88<53 122 235 497> 654 83<235 600.144>
VStem: 122 113<84 333 421 654> 678 110<204.236 297 297 574.421>
LayerCount: 2
Fore
SplineSet
788 297 m 2
 788 121 635 -0 473 0 c 2
 208 0 l 2
 161 0 122 36 122 77 c 2
 122 333 l 1
 53 333 l 1
 53 421 l 1
 122 421 l 1
 122 737 l 1
 525 737 l 2
 662 737 788 639 788 491 c 2
 788 297 l 2
678 491 m 2
 678 571 619 654 525 654 c 2
 235 654 l 1
 235 421 l 1
 497 421 l 1
 497 333 l 1
 235 333 l 1
 235 84 l 1
 473 84 l 2
 576 84 678 173 678 297 c 2
 678 491 l 2
EndSplineSet
EndChar

StartChar: dcroat
Encoding: 273 273 476
Width: 604
VWidth: 1507
Flags: W
HStem: -8 83<173.004 336.653> 452 85<200.415 355.057> 577 86<259 407 519 617>
VStem: 35 110<100.292 388.685> 407 112<-3 38 146.771 413.944 520 577 663 730>
LayerCount: 2
Fore
SplineSet
326 537 m 2
 350 537 380 536 407 520 c 1
 407 577 l 1
 259 577 l 1
 259 663 l 1
 407 663 l 1
 407 730 l 1
 519 730 l 1
 519 663 l 1
 617 663 l 1
 617 577 l 1
 519 577 l 1
 519 -3 l 1
 407 -3 l 1
 407 38 l 1
 377 16 327 -8 273 -8 c 2
 211 -8 l 2
 105 -8 35 74 35 176 c 2
 35 315 l 2
 35 431 135 537 264 537 c 2
 326 537 l 2
273 75 m 2
 331 75 401 133 407 208 c 2
 407 357 l 2
 403 392 375 452 326 452 c 2
 264 452 l 2
 194 452 145 383 145 315 c 2
 145 176 l 2
 145 138 163 75 211 75 c 2
 273 75 l 2
EndSplineSet
EndChar

StartChar: Idotaccent
Encoding: 304 304 481
Width: 260
VWidth: 1507
Flags: W
HStem: 0 21G<75 178> 735 20G<75 178> 812 135<70.5376 187.05>
VStem: 50 158<832.761 926.089> 75 103<0 755>
LayerCount: 2
Fore
SplineSet
75 0 m 1xe8
 75 755 l 1
 178 755 l 1
 178 0 l 1
 75 0 l 1xe8
127 812 m 0
 85 812 50 839 50 879 c 256
 50 920 86 947 127 947 c 0
 172 947 208 920 208 879 c 256xf0
 208 839 172 812 127 812 c 0
EndSplineSet
EndChar

StartChar: dotlessi
Encoding: 305 305 482
Width: 263
VWidth: 1507
Flags: W
HStem: 0 529<75 184 75 184 75 75>
VStem: 75 109<0 529>
LayerCount: 2
Fore
SplineSet
75 0 m 1
 75 529 l 1
 184 529 l 1
 184 0 l 1
 75 0 l 1
EndSplineSet
EndChar

StartChar: Scedilla
Encoding: 350 350 483
Width: 810
VWidth: 1507
Flags: W
HStem: -184 52<386.555 423.472> -15 84<236.043 347 454 560.829> 672 83<254.469 555.391>
VStem: 38 111<162.665 247> 68 111<499.381 610.901> 282 74<-124.069 -72> 437 85<-130.655 -77.4351> 621 112<525 603.014> 653 110<151.058 295.213>
LayerCount: 2
Fore
SplineSet
356 -72 m 1xee80
 356 -127 392 -132 404 -132 c 0
 417 -132 437 -128 437 -109 c 0
 437 -63 355 -71 347 -15 c 1
 312 -15 l 2
 174 -15 38 85 38 247 c 1
 149 247 l 1
 149 158 218 69 312 69 c 2
 469 69 l 2
 573 69 653 142 653 220 c 0xf680
 653 284 616 332 555 344 c 2
 244 380 l 2
 68 407 68 509 68 555 c 0
 68 702 246 755 332 755 c 2
 490 755 l 2
 621 755 733 663 733 525 c 1
 621 525 l 1xef
 621 596 571 672 490 672 c 2
 332 672 l 2
 281 672 179 630 179 555 c 0
 179 489 235 476 262 472 c 2
 568 433 l 2
 744 409 763 289 763 220 c 0
 763 79 625 -15 469 -15 c 2
 454 -15 l 1
 466 -27 522 -50 522 -99 c 0
 522 -132 510 -154 486 -166 c 0
 463 -178 435 -184 402 -184 c 2
 389 -184 l 2
 294 -172 282 -113 282 -72 c 1
 356 -72 l 1xee80
EndSplineSet
EndChar

StartChar: scedilla
Encoding: 351 351 484
Width: 607
VWidth: 1507
Flags: W
HStem: -184 52<288.555 325.472> 5 82<186.611 249 345 443.972> 464 85<214.324 433.568>
VStem: 47 110<117.641 185> 71 111<348.554 435.267> 184 74<-124.069 -72> 339 85<-130.655 -76.8937> 466 110<366 430.875> 479 110<117.987 219.794>
LayerCount: 2
Fore
SplineSet
383 87 m 2xf680
 410 87 479 112 479 163 c 0xf680
 479 224 444 228 428 229 c 2
 210 255 l 2
 86 271 71 338 71 389 c 0
 71 484 172 549 277 549 c 2
 383 549 l 2
 512 549 576 452 576 366 c 1
 466 366 l 1
 466 418 428 464 383 464 c 2
 277 464 l 2
 243 464 182 440 182 390 c 0xef
 182 348 221 340 232 338 c 2
 342 325 l 2
 436 313 479 318 524 288 c 0
 552 270 589 238 589 164 c 0
 589 69 496 5 383 5 c 2
 345 5 l 1
 351 -14 360 -18 372 -26 c 0
 408 -50 424 -72 424 -99 c 0
 424 -132 412 -154 388 -166 c 0
 365 -178 337 -184 304 -184 c 2
 291 -184 l 2
 196 -172 184 -113 184 -72 c 1
 258 -72 l 1
 258 -127 294 -132 306 -132 c 0
 319 -132 339 -128 339 -109 c 0
 339 -58 244 -77 249 3 c 2
 249 5 l 1
 238 5 l 2
 119 5 47 92 47 185 c 1
 157 185 l 1
 157 131 190 87 238 87 c 2
 383 87 l 2xf680
EndSplineSet
EndChar

StartChar: Ohorn
Encoding: 416 416 487
Width: 749
VWidth: 1507
Flags: W
HStem: -15 84<234.219 467.734> 669 85<277.135 508.994>
VStem: 39 112<163.12 536.459> 592 112<201.169 491 491 578.722> 663 112<744.415 873>
LayerCount: 2
Fore
SplineSet
775 873 m 1xe8
 775 761 741 670 665 626 c 1
 691 583 704 538 704 491 c 2
 704 297 l 2xf0
 704 133 563 -15 389 -15 c 2
 303 -15 l 2
 148 -15 39 113 39 246 c 2
 39 440 l 2
 39 608 182 754 356 754 c 2
 440 754 l 2
 504 754 563 728 600 698 c 1
 652 723 663 800 663 873 c 1
 775 873 l 1xe8
389 69 m 2
 497 69 592 178 592 297 c 2
 592 491 l 2
 592 579 526 669 440 669 c 2
 356 669 l 2
 247 669 151 560 151 440 c 2
 151 246 l 2
 151 160 220 69 303 69 c 2
 389 69 l 2
EndSplineSet
EndChar

StartChar: ohorn
Encoding: 417 417 488
Width: 568
VWidth: 1507
Flags: W
HStem: -8 83<177.427 348.049> 452 85<203.924 372.117>
VStem: 35 110<110.848 390.973> 407 110<139.818 353 353 414.931>
LayerCount: 2
Fore
SplineSet
482 451 m 1
 499 427 517 392 517 353 c 2
 517 213 l 2
 517 85 407 -8 288 -8 c 2
 226 -8 l 2
 118 -8 35 80 35 176 c 2
 35 315 l 2
 35 427 129 537 264 537 c 2
 324 537 l 2
 358 537 388 530 415 516 c 1
 463 526 476 611 476 653 c 1
 576 653 l 1
 572 602 l 2
 567 537 535 484 482 451 c 1
288 75 m 2
 348 75 407 135 407 213 c 2
 407 353 l 2
 407 396 370 452 324 452 c 2
 264 452 l 2
 194 452 145 383 145 315 c 2
 145 176 l 2
 145 132 176 75 226 75 c 2
 288 75 l 2
EndSplineSet
EndChar

StartChar: Uhorn
Encoding: 431 431 489
Width: 833
VWidth: 1507
Flags: W
HStem: -15 84<242.489 473.799> 717 20G<45 157 600 711>
VStem: 45 112<165.442 737> 600 111<201.605 612 725 737> 754 101<761.027 873>
LayerCount: 2
Fore
SplineSet
855 873 m 1
 855 817 840 666 711 612 c 1
 711 297 l 2
 711 129 569 -15 395 -15 c 2
 311 -15 l 2
 158 -15 45 110 45 246 c 2
 45 737 l 1
 157 737 l 1
 157 246 l 2
 157 157 229 69 311 69 c 2
 395 69 l 2
 506 69 600 179 600 297 c 2
 600 737 l 1
 711 737 l 1
 711 725 l 1
 729 746 754 788 754 873 c 1
 855 873 l 1
EndSplineSet
EndChar

StartChar: uhorn
Encoding: 432 432 490
Width: 636
VWidth: 1507
Flags: W
HStem: -8 83<181.625 324.656> 509 20G<41 152 413 523>
VStem: 41 111<104.354 529> 413 110<0 32 137.42 188 188 431 513 529> 561 90<601.731 653>
LayerCount: 2
Fore
SplineSet
229 -8 m 2
 124 -8 41 74 41 176 c 2
 41 529 l 1
 152 529 l 1
 152 173 l 2
 152 130 178 75 229 75 c 2
 291 75 l 2
 350 75 401 133 413 188 c 1
 413 529 l 1
 523 529 l 1
 523 513 l 1
 559 547 561 634 561 653 c 1
 651 653 l 1
 651 475 553 441 523 431 c 1
 523 0 l 1
 413 0 l 1
 413 32 l 1
 361 -2 315 -8 291 -8 c 2
 229 -8 l 2
EndSplineSet
EndChar

StartChar: hookabovecomb
Encoding: 777 777 491
Width: 568
VWidth: 1507
Flags: W
HStem: 751 21G<188 286> 919 52<206.998 264.84>
VStem: 124 73<859 910.746> 188 98<751 807.608> 279 84<864.693 917.686>
LayerCount: 2
Fore
SplineSet
248 919 m 0xc8
 227 919 197 909 197 859 c 1
 124 859 l 1
 124 895 134 922 153 939 c 0
 172 956 212 971 231 971 c 2
 244 971 l 2
 276 971 304 965 328 953 c 0
 351 941 363 919 363 886 c 0xe8
 363 865 355 843 312 812 c 0
 298 802 286 799 286 784 c 2
 286 751 l 1
 188 751 l 1
 188 784 l 2xd0
 188 847 279 856 279 895 c 0
 279 911 264 919 248 919 c 0xc8
EndSplineSet
EndChar

StartChar: tildecomb
Encoding: 771 771 492
Width: 345
VWidth: 1507
Flags: MW
HStem: 592 71<214.764 256.605> 669 70<88.9395 133.396>
VStem: -9 93<617 629> 259 94<664.257 715>
LayerCount: 2
Fore
SplineSet
106 669 m 0
 92 669 84 641 84 617 c 1
 -9 617 l 1
 -6 717 61 739 112 739 c 0
 189 739 220 663 240 663 c 0
 253 663 259 680 259 715 c 1
 353 715 l 1
 350 659 329 592 231 592 c 0
 162 592 129 669 106 669 c 0
EndSplineSet
EndChar

